{"glyphs":{"0":{"ha":1126,"x_min":27,"x_max":1061,"o":"m 547 970 q 557 964 553 964 l 569 966 q 590 949 569 965 q 612 956 600 954 l 612 956 q 633 946 618 956 q 651 948 635 946 q 667 935 651 947 q 692 943 686 943 q 710 934 696 943 q 721 939 710 937 l 723 939 q 739 931 728 939 l 741 931 q 756 939 752 939 l 758 939 q 775 926 764 939 q 793 928 788 928 q 822 908 814 910 q 832 901 832 903 l 832 871 q 819 783 832 842 l 819 783 q 825 748 825 766 q 822 720 822 724 l 822 690 l 830 608 q 833 557 830 594 q 832 524 833 551 q 844 441 844 448 q 966 390 892 441 q 1023 324 1012 348 q 1061 193 1061 250 q 989 98 1061 143 q 967 92 980 94 l 965 93 q 943 91 956 91 q 849 132 901 91 q 825 57 842 85 q 653 0 781 0 q 512 31 547 0 q 450 138 450 71 l 450 150 q 463 210 450 178 q 471 250 463 224 q 382 267 446 262 q 336 288 353 267 l 336 332 q 338 336 336 334 q 336 340 336 338 l 336 341 q 338 342 336 342 l 336 344 q 349 523 349 471 q 343 562 349 528 l 343 575 l 347 638 l 347 677 q 351 744 347 696 l 340 800 q 340 820 340 805 l 340 823 q 340 824 340 824 q 340 825 340 825 q 352 912 347 887 q 368 918 368 916 q 385 924 376 924 l 399 924 q 412 936 408 936 l 433 936 q 434 935 434 936 l 452 948 l 453 948 q 475 941 456 948 q 486 954 482 954 l 491 953 l 493 953 q 507 968 495 953 q 511 970 509 970 q 532 966 520 970 q 547 970 542 970 m 532 958 q 514 960 521 960 l 512 960 l 498 944 l 486 944 q 476 931 480 931 l 454 939 q 436 926 444 930 q 416 928 422 928 q 406 916 412 928 q 404 916 406 916 l 393 916 q 373 909 378 916 q 367 908 372 908 l 367 907 q 380 903 378 903 q 390 908 385 908 q 399 899 393 907 q 414 901 410 901 q 427 895 416 901 l 442 903 l 444 903 q 460 888 458 888 q 469 892 467 892 q 480 886 479 886 l 490 888 l 507 879 q 522 885 519 885 q 530 881 530 882 q 547 888 544 888 q 549 958 549 947 q 545 962 545 960 q 532 958 534 958 m 561 956 l 558 956 l 555 878 l 563 871 q 581 877 578 877 l 582 877 q 602 860 593 867 q 624 862 622 862 q 644 852 629 861 q 663 855 656 855 l 674 849 l 694 855 l 698 855 q 709 851 705 851 l 723 862 q 739 860 732 862 q 753 874 747 860 q 767 881 767 874 l 771 885 l 779 885 q 793 894 782 885 l 795 894 q 802 892 802 892 l 804 892 q 815 901 812 901 q 789 919 800 911 q 770 918 777 918 q 758 930 764 926 l 755 930 q 743 921 754 930 l 741 921 q 723 930 740 921 l 722 930 q 711 925 718 930 l 707 925 q 689 934 695 934 l 667 925 q 648 939 665 925 q 628 937 638 937 q 612 947 618 947 q 589 939 606 947 q 566 957 578 945 l 561 956 m 358 903 l 358 901 q 349 814 349 838 l 349 811 q 358 750 349 798 l 358 743 q 356 684 358 739 q 355 681 356 683 l 356 675 l 356 644 l 351 566 q 356 524 356 535 l 356 498 q 345 345 356 472 l 345 291 q 380 276 345 283 q 467 260 439 271 q 476 257 467 258 q 561 313 498 293 q 590 318 572 316 l 600 317 l 626 317 q 643 320 631 317 l 643 354 q 639 386 639 381 q 646 572 639 489 q 642 629 642 618 q 654 696 654 682 l 654 718 q 654 734 654 726 q 665 804 654 757 q 669 842 669 827 q 660 846 661 846 q 641 844 644 844 l 640 844 q 621 853 628 853 q 600 851 604 851 l 579 867 q 559 861 561 861 q 545 878 545 876 q 532 872 533 872 q 522 876 528 872 q 507 870 509 870 q 489 880 503 870 q 479 876 481 876 q 467 882 469 882 q 456 877 458 877 q 441 892 444 892 l 429 886 l 427 886 q 412 892 426 886 q 397 890 402 890 q 389 899 395 890 q 379 894 382 894 q 359 903 374 894 l 358 903 m 802 883 q 797 885 797 883 q 782 876 785 876 l 775 876 q 761 865 768 865 q 750 854 758 865 l 743 852 l 741 852 q 726 853 736 852 q 709 842 713 842 q 695 846 707 842 q 678 842 694 846 q 664 758 673 791 q 663 732 664 751 q 664 699 664 706 q 651 626 664 688 l 651 622 q 654 575 651 616 q 648 382 648 486 l 652 351 l 652 324 l 651 322 l 667 322 q 715 311 675 322 l 715 311 q 724 361 715 331 q 764 417 724 385 q 833 440 795 440 l 835 442 q 823 528 835 448 q 824 551 824 541 l 825 551 l 824 553 l 824 555 q 814 682 820 639 q 813 701 813 684 l 813 718 q 817 749 813 728 l 817 751 l 817 753 q 810 784 817 762 q 824 886 824 840 l 824 894 l 822 894 q 806 883 819 894 l 802 883 m 462 825 q 486 809 486 821 l 486 799 l 486 799 q 567 787 561 790 q 573 772 573 782 q 567 757 572 757 l 482 768 q 471 745 482 745 q 443 764 443 745 q 452 823 445 823 q 462 825 459 825 m 464 734 l 473 734 q 547 721 515 734 q 569 682 569 707 q 538 644 569 655 q 528 644 533 644 q 446 654 490 644 q 443 666 443 658 l 443 675 q 456 690 444 690 q 519 682 496 682 l 521 683 q 469 694 521 693 q 443 707 443 694 l 442 712 q 464 734 442 734 m 458 637 l 462 637 q 527 624 472 637 q 563 608 563 620 l 563 595 q 530 574 563 581 q 517 570 530 574 l 517 568 q 562 555 562 568 l 562 547 q 547 530 560 530 l 541 530 q 433 550 433 536 q 431 566 431 559 q 455 586 431 583 q 495 594 493 594 l 495 596 q 441 606 441 600 q 439 615 439 612 q 458 637 442 637 m 458 524 l 471 524 q 551 484 538 521 q 554 469 554 476 l 554 460 q 528 422 554 431 q 515 420 522 420 l 512 420 q 447 435 492 420 q 426 469 426 454 l 426 477 q 452 523 426 513 l 458 524 m 479 473 q 497 464 479 464 q 502 468 502 466 q 487 481 502 477 l 484 481 q 479 473 479 480 m 478 416 q 545 361 527 416 q 547 348 547 349 q 517 316 543 316 l 515 316 q 432 332 497 316 q 412 357 412 340 q 438 410 412 385 q 478 416 450 416 m 723 307 q 785 286 782 291 q 800 274 796 277 q 823 294 807 294 l 832 294 q 880 266 850 294 q 919 176 919 215 q 895 154 919 157 q 852 174 877 154 q 851 161 851 167 l 851 146 l 850 142 q 943 100 902 100 l 952 100 q 1000 130 982 100 l 1009 168 l 1009 170 q 1008 190 1009 176 l 1008 202 q 991 250 991 221 q 968 296 991 252 q 956 327 964 320 q 907 357 948 334 q 850 385 886 370 q 814 399 835 399 q 734 361 767 399 q 723 307 723 334 m 465 361 q 494 355 488 355 q 498 361 498 356 q 477 376 498 374 l 476 376 q 465 361 469 376 m 189 363 l 206 363 q 321 324 297 363 q 329 243 329 283 q 264 122 329 145 q 206 115 222 115 q 90 201 119 115 q 88 207 90 201 l 68 207 q 30 239 43 207 q 27 261 27 248 q 73 309 34 309 q 86 309 79 309 q 110 343 86 323 q 189 363 147 363 m 95 307 l 95 303 q 203 263 95 271 l 205 263 q 293 287 250 263 q 314 311 314 301 l 314 316 q 281 344 314 330 q 194 355 250 355 q 115 336 152 355 q 95 307 95 319 m 220 351 q 300 324 281 351 q 302 318 302 321 l 302 316 q 212 276 302 292 l 199 276 q 114 300 132 276 q 112 309 112 306 l 112 313 q 142 341 112 328 q 220 351 170 351 m 788 351 l 791 351 q 793 348 792 351 l 793 346 q 784 341 793 343 q 772 328 784 339 q 767 320 769 321 l 764 320 q 762 322 762 320 l 762 325 q 775 343 762 333 q 788 351 779 351 m 121 309 l 121 305 q 125 300 124 300 q 218 330 140 325 q 290 313 264 330 q 293 315 292 313 l 293 319 q 219 342 277 342 q 121 316 138 342 l 121 309 m 838 325 l 846 325 q 876 307 857 325 q 905 285 884 307 q 912 278 912 280 q 909 274 910 274 l 905 274 l 878 298 q 856 313 873 298 q 837 318 851 316 l 836 320 l 836 323 q 838 325 836 325 m 626 309 q 589 309 593 309 q 497 270 537 302 q 476 235 479 250 l 479 237 l 486 237 q 495 211 491 237 q 480 204 490 204 q 473 211 473 204 l 473 224 l 473 224 q 471 198 471 208 q 526 109 471 139 q 610 70 589 70 l 618 70 q 621 71 620 71 l 621 70 l 623 71 l 626 71 q 627 70 627 71 q 630 71 629 71 q 777 90 777 83 q 825 128 806 99 q 845 186 845 162 l 845 189 q 798 264 845 222 l 799 257 l 799 256 q 789 250 795 250 l 784 250 q 768 269 774 250 l 768 273 q 774 281 769 281 l 774 281 q 726 296 770 286 q 662 314 677 314 q 626 309 659 314 m 645 302 q 656 292 656 300 l 656 292 q 632 278 656 281 q 622 294 622 283 q 645 302 629 302 m 58 298 l 58 298 q 66 298 63 298 q 85 294 73 298 l 85 298 q 73 300 79 300 l 68 300 q 58 298 66 300 m 205 254 q 114 271 161 254 q 92 287 104 275 q 91 260 91 269 l 91 243 q 134 212 91 228 q 181 207 159 207 l 184 207 q 319 263 293 209 l 317 296 q 247 259 298 273 q 205 254 229 256 m 713 296 q 722 290 718 296 l 722 289 q 714 271 722 275 l 712 271 q 696 283 696 274 l 696 283 q 713 296 699 296 m 631 291 q 635 287 632 287 q 648 292 637 287 q 646 294 648 294 l 645 294 q 631 291 637 294 m 35 260 q 64 216 35 225 q 77 215 73 215 l 86 216 l 85 218 l 85 222 l 81 222 q 46 262 46 222 q 62 281 48 281 l 62 281 q 83 279 67 281 l 83 283 q 66 290 77 290 q 36 261 36 286 q 35 260 36 260 m 545 290 q 567 279 565 282 l 567 278 q 552 264 567 267 q 525 275 525 269 l 525 276 q 545 290 525 286 m 705 285 l 705 281 l 712 280 l 713 287 l 712 287 l 705 285 m 536 278 l 536 277 q 553 273 547 273 l 554 273 q 557 276 555 273 q 543 281 555 276 q 536 278 542 281 m 851 279 l 851 278 q 906 200 867 225 l 906 201 q 851 279 887 257 m 776 272 q 785 258 776 265 l 789 259 q 783 275 789 262 l 782 275 q 776 272 776 274 m 68 273 l 68 271 l 68 266 q 82 241 68 241 q 83 242 82 242 l 82 248 l 82 267 l 83 269 q 68 273 79 271 m 935 248 q 950 215 950 237 l 950 210 q 949 201 950 206 q 956 179 956 182 l 956 178 q 949 146 952 157 q 926 130 935 130 l 924 130 q 921 133 922 130 l 921 135 q 937 145 921 136 q 945 168 945 150 q 947 178 946 178 q 941 199 941 197 l 941 204 q 943 214 941 209 q 932 241 943 227 l 932 244 q 935 248 932 247 m 664 243 q 721 224 673 243 q 737 194 737 212 l 737 186 q 693 159 730 159 l 684 161 q 644 152 648 152 l 591 165 q 573 178 578 168 q 566 206 566 192 q 577 227 566 222 q 636 241 612 241 q 664 243 650 243 m 785 235 l 789 235 q 800 224 797 235 l 800 218 q 778 213 800 213 q 766 228 770 213 q 785 235 766 235 m 541 235 q 551 224 551 231 q 526 207 551 214 q 515 219 515 211 l 515 222 q 541 235 531 235 m 481 228 l 482 218 l 481 213 q 486 215 486 213 l 484 228 l 481 228 m 776 227 l 776 226 q 779 222 777 222 l 787 222 l 791 222 q 789 227 790 227 l 776 227 m 524 218 l 527 216 q 543 224 536 218 l 541 226 q 524 218 534 226 m 182 165 q 107 181 138 165 l 107 180 q 206 123 138 123 q 282 141 253 123 q 313 186 306 161 q 316 202 316 199 q 182 165 275 165 m 595 174 l 595 172 q 643 161 600 172 l 644 161 l 682 168 l 697 168 q 718 174 705 168 l 718 174 q 677 195 711 183 q 664 197 670 197 l 656 197 q 595 174 608 197 m 528 188 q 543 163 537 188 l 543 159 q 536 156 542 156 l 530 156 q 510 179 519 156 l 510 181 q 528 188 513 188 m 759 182 q 768 172 764 182 q 749 161 762 161 q 743 172 743 165 q 759 182 751 182 m 519 178 q 534 163 527 163 q 536 165 534 165 q 527 179 529 179 l 522 179 q 519 178 519 179 m 795 143 l 798 143 q 808 126 808 134 l 808 125 q 784 115 797 115 q 773 127 773 119 q 795 143 773 136 m 711 142 l 716 142 q 726 132 726 140 q 711 122 722 122 q 700 130 702 126 l 700 132 q 711 142 706 140 m 642 141 q 661 132 652 141 l 661 130 q 649 116 656 116 l 648 116 q 628 130 628 121 q 642 141 628 136 m 714 134 l 712 131 l 714 131 q 717 132 715 132 l 717 133 q 714 134 715 133 m 782 126 q 787 123 785 123 q 799 127 788 123 q 793 134 799 134 q 782 126 786 131 m 638 129 l 648 124 l 651 128 l 651 130 l 644 132 q 638 129 638 131 m 564 124 q 586 116 581 124 q 576 106 585 106 q 558 115 558 108 q 564 124 559 119 m 692 106 q 705 94 701 106 q 687 80 705 86 l 686 80 q 677 94 677 86 q 692 106 684 106 m 686 93 q 689 89 688 89 l 695 94 q 692 98 695 96 l 691 98 q 686 93 690 98 z "},"1":{"ha":1052,"x_min":41,"x_max":1017,"o":"m 508 976 l 514 973 q 534 976 526 976 l 541 973 q 543 976 543 973 q 699 946 595 975 q 674 907 688 907 q 553 931 614 931 l 529 931 q 526 935 526 931 l 519 931 l 517 931 q 514 935 514 931 l 508 931 l 505 931 q 159 741 313 931 q 82 485 82 618 q 300 104 82 249 q 519 41 406 41 l 538 41 q 918 268 771 41 q 975 491 975 376 l 975 500 q 1017 521 975 506 l 1017 488 q 758 56 1017 212 q 538 0 651 0 l 514 0 q 100 250 264 0 q 41 494 41 367 q 294 916 41 753 q 508 976 423 976 m 558 901 q 677 878 673 895 q 716 791 677 842 q 704 753 704 768 l 704 720 q 802 619 704 651 q 820 577 817 619 q 933 497 866 497 q 942 500 939 500 q 948 455 948 485 q 800 182 948 264 q 514 71 656 71 q 270 137 342 71 q 174 348 239 161 q 112 530 117 449 q 285 753 112 642 q 529 899 413 899 l 558 901 m 320 521 q 418 313 320 416 q 529 268 470 268 q 699 375 629 268 q 734 512 734 439 q 579 682 734 653 q 511 687 537 687 q 326 571 374 687 q 320 521 320 547 m 532 673 q 701 553 646 673 q 713 494 713 524 l 713 479 q 597 315 713 371 q 529 300 570 304 q 356 420 414 300 q 344 479 344 449 l 344 497 q 481 667 344 614 q 532 673 511 673 m 386 491 l 386 479 q 502 345 386 384 q 519 342 519 345 q 529 345 526 345 q 532 342 532 345 q 663 437 618 342 q 671 485 671 456 l 671 494 q 558 628 671 589 q 526 631 538 631 q 389 517 427 631 q 386 491 386 507 z "},"2":{"ha":1024,"x_min":27,"x_max":997,"o":"m 497 970 l 527 970 q 666 943 606 970 q 660 911 663 917 q 669 869 663 890 q 651 840 651 859 q 675 819 659 819 q 695 828 682 819 l 699 828 l 699 825 q 684 778 688 802 l 686 772 q 684 769 686 769 q 772 656 684 690 q 796 639 796 656 q 843 559 812 579 q 911 532 860 543 l 917 535 l 929 535 q 994 553 950 535 q 997 485 997 499 q 781 83 997 240 q 515 0 651 0 q 83 257 242 0 q 27 494 27 367 q 260 902 27 740 q 497 970 383 970 m 438 857 q 453 833 438 843 l 465 833 q 486 854 486 833 l 486 866 q 462 881 478 881 q 438 857 443 881 m 284 754 q 311 728 289 728 q 332 751 330 728 l 332 763 q 314 778 332 768 q 284 754 284 772 m 571 715 l 571 704 q 595 689 578 689 q 616 709 616 689 l 616 724 q 595 736 611 736 l 592 736 q 571 715 571 736 m 403 621 q 427 594 404 594 q 450 618 450 594 l 450 627 q 429 642 444 642 l 417 642 q 403 621 408 640 m 151 553 q 175 532 151 535 q 199 556 199 532 q 184 580 199 572 l 166 580 q 151 553 151 572 m 778 503 q 805 476 783 476 q 825 500 823 476 l 825 503 q 805 526 825 521 q 778 503 786 526 m 542 482 l 542 479 q 562 455 542 460 q 589 479 581 455 q 562 506 585 506 q 542 482 544 506 m 353 429 l 353 422 q 373 402 353 402 l 376 402 q 399 426 395 402 q 376 450 395 450 l 367 450 q 353 429 353 444 m 802 337 l 796 337 l 719 361 l 710 361 q 616 248 663 361 q 542 195 578 195 q 465 278 507 195 q 432 296 446 296 q 370 231 413 296 q 334 219 346 219 q 201 405 264 219 l 184 420 l 175 420 q 116 396 126 396 q 107 393 113 396 q 77 399 102 396 q 201 169 90 295 q 444 47 319 64 q 494 41 492 43 q 929 334 801 41 q 953 441 953 407 q 828 349 861 404 q 802 337 812 337 z "},"3":{"ha":1029,"x_min":20,"x_max":993,"o":"m 492 972 l 528 972 q 669 943 600 972 l 669 940 q 661 904 665 927 q 699 819 661 867 q 682 762 691 798 q 420 625 589 750 q 148 484 218 484 q 145 492 145 489 q 293 635 199 572 q 536 804 461 742 q 581 857 581 840 q 489 907 563 907 q 198 789 395 907 q 193 774 195 774 q 219 750 200 750 l 414 842 q 492 860 460 860 q 515 857 494 860 l 515 854 q 290 688 436 778 q 94 492 94 558 l 94 480 q 154 433 94 446 q 364 528 233 444 l 368 528 l 368 525 q 364 498 364 509 l 364 477 q 379 418 364 455 q 186 231 186 281 q 243 169 197 169 q 729 415 346 189 q 839 477 810 477 l 848 477 q 859 456 859 473 l 859 454 q 741 344 857 414 q 418 98 422 105 l 418 89 q 480 30 418 41 l 486 30 q 764 160 592 30 q 768 169 764 163 q 741 196 762 196 q 637 134 734 196 q 486 77 534 77 q 477 80 480 80 l 477 83 q 868 376 477 87 q 907 465 907 418 q 848 531 893 531 l 844 531 q 711 463 807 531 q 634 415 635 415 q 631 418 634 418 q 649 486 649 450 l 649 489 q 643 531 649 509 q 794 637 726 571 l 797 637 q 877 534 797 572 q 924 525 897 525 q 984 543 956 525 q 993 486 993 543 q 768 77 993 236 q 524 0 635 0 l 524 3 l 518 0 l 498 0 q 495 3 495 0 q 492 0 492 3 q 148 157 312 0 q 20 484 20 305 l 20 492 q 278 919 20 758 q 492 972 394 972 m 696 711 q 744 659 703 696 q 619 575 698 612 q 518 629 573 629 l 518 631 q 667 706 574 678 q 696 711 689 711 m 409 380 l 412 380 q 500 344 458 344 l 500 338 q 254 225 281 225 l 245 237 l 245 240 q 409 380 321 317 z "},"4":{"ha":1036,"x_min":27,"x_max":1006,"o":"m 502 979 l 528 979 q 716 937 620 979 l 720 931 q 705 871 705 906 q 740 793 705 833 l 740 787 q 734 782 740 782 q 648 883 654 883 q 618 857 626 883 q 627 832 627 836 q 511 755 522 755 l 454 838 l 454 844 q 492 883 492 867 q 466 907 492 903 q 298 770 438 907 q 164 671 258 735 l 161 656 q 185 633 161 633 q 263 680 198 633 l 266 680 q 313 614 276 670 l 313 612 q 179 513 304 600 q 140 471 140 488 l 140 469 q 164 445 140 445 q 185 456 172 445 q 251 364 196 434 l 251 361 q 185 296 185 313 q 215 275 194 275 q 281 319 222 275 l 283 319 q 355 206 342 243 q 313 170 313 187 q 340 143 317 143 q 388 164 381 164 q 433 119 388 155 l 451 119 q 466 149 466 126 l 430 191 q 570 277 566 277 q 654 182 576 267 q 579 113 579 124 l 579 111 q 603 83 579 88 q 690 143 608 83 l 692 143 q 710 128 692 140 q 740 158 740 134 q 731 179 731 173 q 827 262 778 216 l 848 260 q 871 283 871 260 q 865 301 865 293 q 895 337 895 319 l 895 340 q 871 364 895 364 q 836 340 859 364 l 833 340 q 770 418 829 340 l 770 420 q 871 501 865 501 q 889 495 881 495 l 892 495 q 916 504 898 495 q 970 495 943 495 q 1003 501 987 495 l 1006 495 q 746 60 1006 214 q 528 0 630 0 l 528 3 l 522 0 q 81 262 241 0 q 27 484 27 375 l 27 501 q 254 904 27 743 q 502 979 377 979 m 412 808 q 472 722 469 736 q 353 642 364 642 q 308 716 308 709 q 412 808 332 729 m 656 793 l 660 793 q 728 704 666 791 l 728 701 q 609 623 617 623 l 546 707 l 546 713 q 656 793 558 725 m 502 683 q 570 593 504 683 q 448 510 459 513 l 388 593 l 388 600 q 502 683 397 609 m 752 656 l 755 656 q 842 546 791 626 q 740 463 823 524 l 737 463 q 642 582 728 469 q 752 656 652 592 m 343 570 q 409 480 347 570 l 296 394 l 293 394 q 224 480 290 394 l 224 486 q 343 570 242 496 m 597 552 l 600 552 q 695 433 608 547 l 695 430 q 573 346 591 346 q 481 471 481 464 l 597 552 m 442 439 l 534 316 q 400 236 416 236 q 323 352 400 239 q 442 439 433 439 m 728 391 l 797 304 q 699 215 768 271 l 692 215 q 612 304 630 277 q 728 391 612 308 z "},"5":{"ha":991,"x_min":6,"x_max":973,"o":"m 384 12 q 45 321 153 59 q 22 542 6 460 l 39 624 q 178 849 60 724 q 586 965 369 1009 l 589 964 q 945 624 852 910 q 954 416 973 511 l 945 373 q 709 61 905 180 q 384 12 559 -24 m 806 233 l 815 276 q 869 357 818 290 l 872 371 q 847 448 878 395 l 848 472 l 851 485 q 867 547 857 511 q 818 640 876 587 q 699 781 774 648 l 696 781 q 682 763 688 762 l 669 766 q 663 788 660 771 q 685 793 665 798 q 621 831 688 807 l 610 833 q 496 808 556 844 l 471 806 l 366 831 q 302 804 340 837 q 229 712 270 730 q 149 643 161 699 q 146 574 148 584 q 104 505 144 566 l 102 498 q 130 427 98 473 q 134 399 136 409 l 129 376 q 153 289 117 315 q 217 203 229 257 q 294 126 233 138 l 384 128 q 484 66 396 125 q 503 59 486 66 q 623 127 558 47 q 745 170 690 162 q 806 233 800 199 m 524 113 l 518 114 q 507 130 513 115 l 509 137 q 525 147 510 142 l 531 146 q 542 130 536 144 l 541 123 q 524 113 539 118 m 248 170 l 241 171 q 231 186 236 172 l 233 193 q 248 204 233 199 l 255 203 q 265 186 260 201 l 264 180 q 248 170 263 175 m 397 163 q 380 177 378 169 l 382 190 q 401 197 384 197 q 414 177 410 195 q 397 163 405 163 m 313 235 q 301 262 298 243 l 317 269 l 326 267 q 334 255 331 266 l 332 241 q 313 235 330 234 m 574 189 l 564 191 q 557 202 559 191 l 559 212 q 570 220 559 217 l 584 218 q 589 210 590 216 l 586 196 q 574 189 585 191 m 694 184 l 684 186 q 674 205 672 196 q 701 218 682 221 l 707 202 l 705 193 q 694 184 705 188 m 460 233 l 450 235 q 442 246 446 235 l 444 256 q 463 266 454 268 q 475 254 475 258 l 472 240 q 460 233 471 235 m 271 296 q 258 321 255 303 l 274 329 l 280 328 q 290 309 292 318 q 271 296 288 300 m 540 254 l 533 255 q 524 275 527 258 q 540 288 533 288 l 547 287 q 557 271 551 286 l 555 264 q 540 254 555 259 m 178 328 q 166 340 165 336 l 169 354 q 188 360 171 361 q 199 348 200 353 l 196 334 q 178 328 195 327 m 446 280 l 433 283 q 349 324 385 317 q 322 380 342 329 q 306 418 302 401 q 321 474 317 456 q 317 522 315 512 l 319 536 q 379 575 323 555 q 441 627 414 633 l 482 609 q 569 615 548 619 q 618 550 587 611 q 644 479 657 542 q 659 435 643 473 l 654 412 q 614 366 651 397 q 573 298 601 300 q 482 290 561 292 q 446 280 461 277 m 704 268 q 692 294 688 276 l 707 302 l 718 300 q 725 288 722 299 l 723 278 q 704 268 720 271 m 168 395 q 154 412 154 405 q 168 430 157 429 l 180 427 q 187 408 189 425 q 168 395 185 399 m 267 378 l 257 380 q 249 393 252 381 l 251 402 q 263 410 252 407 l 273 408 q 281 396 277 407 l 279 387 q 267 378 278 382 m 591 435 q 506 556 589 539 l 503 557 q 388 501 433 571 q 377 465 381 484 q 463 345 361 388 q 576 401 529 332 q 591 435 586 412 m 791 295 l 785 296 q 774 312 780 297 l 776 319 q 792 329 777 323 l 798 328 q 809 312 804 327 l 808 305 q 791 295 806 300 m 700 348 l 690 350 q 682 362 685 351 l 684 372 q 703 382 694 384 q 714 369 715 374 l 711 356 q 700 348 711 351 m 211 458 l 201 460 q 193 473 197 461 l 195 482 q 208 490 197 487 l 217 488 q 225 476 222 487 l 223 467 q 211 458 222 462 m 291 497 l 281 499 q 273 511 277 500 l 276 524 q 298 530 281 533 l 305 515 l 303 505 q 291 497 302 500 m 156 525 l 150 526 q 139 542 144 527 l 140 549 q 156 559 142 553 l 163 557 q 172 532 175 549 l 156 525 m 804 406 l 791 408 q 786 416 785 410 l 789 433 q 804 439 790 437 q 818 423 818 430 l 816 413 q 804 406 815 408 m 718 488 q 705 505 705 498 l 706 511 q 722 522 707 517 l 728 521 q 739 505 733 519 l 737 498 q 718 488 734 492 m 231 602 l 224 604 q 213 619 218 604 l 214 626 q 231 636 216 631 l 237 635 q 245 623 242 634 l 242 610 q 231 602 241 605 m 323 621 q 310 640 315 623 q 327 654 319 654 l 334 653 q 344 637 338 652 l 342 631 q 323 621 333 618 m 647 592 l 640 607 l 642 617 q 654 625 643 622 l 663 623 q 671 611 668 622 l 669 598 q 647 592 663 589 m 463 633 q 452 660 448 641 l 467 667 l 473 665 q 484 650 478 665 l 482 643 q 463 633 479 637 m 924 553 l 925 559 q 874 696 904 690 q 822 810 848 729 q 728 871 783 859 l 685 879 q 630 911 675 882 q 601 920 618 917 q 505 920 519 917 q 447 939 446 934 q 298 880 377 953 q 167 777 233 869 l 166 773 l 170 772 q 443 901 268 880 q 562 895 503 906 l 585 890 q 905 611 804 844 q 920 553 922 564 l 924 553 m 831 572 q 818 591 823 573 q 835 605 827 605 l 842 604 q 852 588 846 603 l 850 581 q 831 572 841 570 m 354 669 q 342 682 342 677 l 345 695 q 357 703 347 700 l 368 701 q 377 682 374 698 q 354 669 368 667 m 765 599 l 755 601 q 747 612 750 602 l 749 623 q 768 632 759 634 q 779 620 781 625 l 777 606 q 765 599 776 602 m 557 642 l 547 644 q 538 663 536 653 q 564 674 546 678 l 571 659 l 569 649 q 557 642 568 644 m 713 664 q 701 688 698 673 q 713 699 708 700 l 726 696 q 732 674 736 690 q 713 664 730 667 m 611 685 q 600 698 599 693 l 603 711 q 614 719 604 715 l 625 717 q 632 705 629 715 l 630 695 q 611 685 627 688 m 420 724 q 406 741 406 734 l 408 751 q 420 759 410 755 l 430 757 q 438 745 435 755 l 435 732 q 420 724 434 726 m 311 760 q 299 787 295 768 l 314 794 q 332 780 332 791 l 330 770 q 311 760 321 758 m 542 751 q 529 770 533 753 q 545 785 538 785 l 555 783 q 564 770 560 781 l 562 760 q 542 751 552 749 z "},"6":{"ha":1310,"x_min":20,"x_max":1271,"o":"m 677 972 l 701 972 q 829 941 741 951 q 896 938 867 938 q 934 959 918 959 l 941 959 q 1042 913 955 959 q 1163 844 1163 885 q 1263 719 1218 766 q 1271 674 1271 688 l 1271 650 q 1229 555 1271 616 q 1204 382 1219 464 q 1094 216 1175 271 q 767 45 857 45 q 469 0 569 0 l 413 0 q 218 108 291 0 q 73 257 191 115 q 20 410 20 334 q 66 552 20 454 l 62 570 l 62 583 q 121 629 62 613 q 187 698 121 636 l 184 715 l 184 722 q 218 761 191 761 l 253 761 q 382 886 382 873 q 427 920 382 909 q 465 910 465 913 q 625 938 536 938 q 677 972 665 972 m 705 941 l 705 938 q 805 809 744 873 q 802 806 802 809 q 708 903 765 823 q 684 938 688 938 l 680 938 q 708 889 708 900 l 705 889 l 667 935 q 663 931 667 931 q 823 768 690 875 q 1034 437 1004 479 q 1055 424 1038 437 l 1059 424 l 1066 427 q 993 528 1066 438 l 993 538 l 1066 462 q 962 583 1057 481 q 802 848 852 839 q 715 938 766 880 q 705 941 708 941 m 951 920 l 951 917 l 989 868 l 989 865 l 986 865 q 941 910 949 887 l 937 910 l 937 907 q 1042 792 937 899 q 1135 576 1099 705 q 1181 511 1157 511 l 1184 517 q 1153 573 1153 543 l 1156 573 l 1181 545 l 1181 549 q 1121 674 1127 633 l 1198 545 l 1201 545 l 1201 552 q 1066 827 1156 604 q 1010 889 1033 872 q 1034 848 1034 855 l 1031 848 q 955 920 966 916 l 951 920 m 791 892 q 809 882 791 886 q 875 889 861 889 l 875 896 q 812 903 840 903 l 802 903 q 791 892 797 903 m 410 882 l 410 876 q 510 764 510 791 q 545 726 530 726 q 538 747 538 737 l 545 750 q 552 743 546 743 l 552 747 q 517 795 517 791 l 524 799 q 531 792 525 792 l 534 792 l 461 876 l 454 871 l 427 892 l 420 892 q 410 882 415 892 m 513 876 l 513 868 q 531 858 513 863 q 646 879 603 879 q 625 892 646 884 q 621 889 621 892 l 604 892 l 580 892 q 513 876 551 892 m 833 871 l 833 865 q 844 868 844 865 l 861 865 l 865 865 l 882 868 l 882 871 l 850 876 l 833 871 m 597 858 q 604 851 598 851 l 628 851 l 646 854 l 646 861 l 628 865 l 604 865 q 597 858 597 864 m 781 854 l 785 854 q 875 743 865 789 l 875 740 l 781 854 m 340 736 l 340 733 l 343 733 q 437 809 351 744 l 437 817 q 430 823 437 823 q 382 789 418 823 q 340 736 340 761 m 1139 809 l 1139 806 q 1177 691 1177 707 q 1173 663 1173 672 l 1181 660 q 1191 694 1187 660 q 1142 809 1189 724 l 1139 809 m 670 785 l 670 781 q 698 774 692 774 q 673 785 698 783 l 670 785 m 823 781 l 829 781 q 847 764 834 781 l 840 764 q 823 781 836 764 m 1191 774 l 1191 768 q 1240 681 1240 709 l 1240 667 q 1222 608 1240 633 l 1222 604 l 1225 604 q 1257 660 1257 624 l 1257 667 q 1191 774 1257 711 m 604 768 l 604 764 q 631 743 608 753 q 708 747 684 747 q 764 712 720 747 q 767 715 767 712 q 705 761 739 761 q 628 757 698 761 q 604 768 611 768 m 340 712 l 340 705 l 354 705 q 395 750 367 709 l 392 750 q 340 712 354 731 m 250 733 l 295 694 l 288 694 l 225 726 q 253 698 225 724 l 253 694 l 250 694 q 208 719 223 707 l 208 715 q 354 632 210 692 l 399 587 l 402 587 l 413 594 q 385 635 412 609 q 389 639 389 635 l 395 635 l 399 635 l 315 681 q 256 733 268 728 l 250 733 m 441 670 l 441 667 q 448 660 441 660 q 500 726 487 660 l 496 726 q 454 677 473 682 q 441 670 454 670 m 587 726 q 559 702 587 704 l 548 702 q 534 705 541 702 q 500 653 523 705 q 444 622 474 622 l 444 601 q 423 552 423 556 l 416 538 l 416 535 l 420 535 q 472 604 425 562 l 472 601 q 433 524 472 595 l 433 521 l 437 521 q 534 639 469 605 q 667 663 604 663 q 743 635 707 663 l 746 635 q 656 677 746 655 l 656 684 l 673 684 q 757 653 710 684 q 760 663 760 660 q 705 698 736 698 q 652 694 696 698 q 593 726 627 694 l 587 726 m 1145 712 l 1149 691 l 1156 691 l 1156 705 q 1149 712 1156 712 l 1145 712 m 399 667 l 451 698 l 451 702 q 399 667 399 691 m 608 698 l 608 694 q 580 681 608 686 l 569 681 q 608 698 585 698 m 694 694 l 705 694 l 729 688 l 729 681 l 722 681 q 694 691 696 681 l 694 694 m 781 681 q 777 639 781 675 l 777 635 l 781 635 q 788 670 788 657 q 785 681 785 677 l 781 681 m 608 674 l 618 674 l 618 667 q 545 646 601 667 l 545 650 q 608 674 564 674 m 1215 667 q 1208 618 1215 655 q 1222 656 1222 622 q 1219 667 1219 663 l 1215 667 m 135 618 l 135 614 q 180 656 144 614 l 176 656 q 135 618 168 656 m 222 580 l 222 576 l 232 576 q 274 632 232 584 l 274 635 q 264 646 274 638 q 222 580 243 646 m 1083 646 q 1048 563 1083 609 l 1052 563 q 1086 632 1071 563 l 1086 646 l 1083 646 m 448 462 q 469 448 451 448 l 479 448 q 510 486 479 486 l 528 486 l 562 462 q 694 532 694 498 q 739 583 694 583 l 739 601 q 677 642 739 637 q 469 524 522 642 q 448 462 448 483 m 816 542 q 823 535 817 535 l 826 535 q 854 614 848 535 l 854 629 l 850 629 q 826 563 845 625 q 816 542 816 559 m 267 597 l 274 597 q 291 614 279 597 l 291 618 l 288 618 q 267 597 277 618 m 86 583 l 86 573 q 156 545 87 565 q 232 452 175 532 q 336 368 267 417 q 441 195 426 275 l 465 115 l 469 115 l 475 118 q 395 326 475 210 l 395 330 q 493 118 493 218 l 496 118 q 500 128 496 128 q 371 375 500 212 q 250 493 269 448 q 142 587 222 559 q 104 597 110 597 q 86 583 88 591 m 406 559 l 406 549 q 423 570 410 549 l 420 570 q 406 559 406 564 m 364 521 q 399 465 364 492 l 399 469 q 378 514 378 504 l 378 532 q 385 559 378 534 l 385 566 l 382 566 q 364 521 374 566 m 343 559 q 336 545 343 554 l 336 511 q 347 500 336 505 l 343 535 l 347 555 l 347 559 l 343 559 m 753 555 q 746 549 753 549 l 739 552 l 736 552 l 736 549 q 767 521 746 549 q 764 517 764 521 l 736 535 l 736 532 q 857 385 839 444 q 882 306 857 379 l 885 306 l 885 313 l 888 313 l 896 309 l 896 316 l 868 396 q 920 288 920 326 l 924 288 l 924 302 q 781 538 924 337 l 753 555 m 191 552 q 246 486 223 530 l 246 479 q 191 549 191 547 l 191 552 m 837 511 l 844 511 q 868 549 868 526 l 865 549 q 837 511 847 532 m 1066 514 l 1066 511 l 1069 511 q 1101 538 1101 533 l 1101 542 q 1066 514 1076 532 m 1083 490 l 1083 486 l 1090 486 q 1135 521 1135 516 l 1135 524 q 1083 490 1110 524 m 69 511 q 48 462 48 473 l 48 458 l 52 458 q 73 507 73 504 l 73 511 l 69 511 m 204 511 l 208 511 q 239 465 239 486 l 236 465 q 204 511 204 499 m 69 417 l 69 399 l 79 365 l 83 365 q 79 403 79 389 q 97 496 79 433 q 69 417 80 496 m 1163 486 l 1163 483 q 1111 337 1158 416 l 1094 323 l 1094 330 q 1145 469 1143 419 q 1094 410 1116 454 q 1027 382 1035 390 q 947 288 947 312 q 909 250 942 250 q 878 257 884 257 q 777 174 844 257 q 757 108 768 150 l 739 104 q 583 118 706 115 q 545 125 583 124 q 500 87 532 125 l 475 83 q 420 104 432 104 q 236 149 332 104 l 291 97 l 291 94 q 243 118 280 94 l 243 115 q 371 31 326 31 l 378 31 l 378 35 q 326 56 326 44 l 326 59 q 465 41 463 41 q 646 69 528 49 l 646 66 q 406 28 604 28 l 406 24 q 465 21 418 24 q 844 94 566 21 q 850 97 844 97 l 850 101 l 847 101 q 819 94 834 94 l 788 94 l 788 101 q 899 160 854 117 q 1006 229 985 229 l 1006 226 l 861 104 l 865 104 q 1118 275 1029 195 q 1198 486 1168 315 l 1191 486 q 1145 319 1191 423 q 1066 254 1104 271 l 1062 254 l 1062 264 q 1156 403 1124 297 q 1173 486 1173 477 l 1163 486 m 503 462 q 580 385 503 436 q 673 184 629 336 q 701 139 692 142 l 708 139 l 708 142 q 698 177 698 160 l 705 180 q 715 156 715 163 l 718 156 l 718 160 q 659 302 659 296 q 729 184 669 292 l 729 188 q 576 413 683 311 q 513 465 525 465 q 503 462 507 462 m 184 452 l 184 420 q 260 347 184 359 l 260 354 q 212 406 212 380 l 197 458 l 191 458 q 184 452 184 457 m 646 396 l 646 385 q 659 382 653 385 q 753 448 700 391 q 746 455 753 455 q 652 406 703 419 l 646 396 m 1073 452 l 1073 448 q 1076 437 1076 441 l 1080 437 l 1080 441 q 1076 452 1076 448 l 1073 452 m 941 389 l 944 389 q 968 413 968 397 q 941 389 949 402 m 996 413 q 955 365 996 407 l 958 365 q 1003 413 987 381 l 996 413 m 100 389 q 107 358 100 380 l 111 358 l 111 361 l 107 382 l 107 389 l 100 389 m 52 385 l 52 372 q 170 212 52 279 q 225 191 203 195 l 229 191 l 229 195 q 55 385 55 276 l 52 385 m 510 368 l 486 368 l 486 354 q 513 351 489 354 q 559 368 545 351 q 552 375 559 375 q 510 368 528 368 m 670 365 l 677 361 q 701 375 695 361 l 698 375 q 670 365 670 373 m 1090 368 l 1090 365 q 975 260 1040 296 l 968 260 q 1090 368 993 290 m 1031 361 l 1034 361 l 1034 358 q 965 298 994 312 l 965 302 q 1031 361 997 339 m 788 326 l 788 323 l 791 323 q 829 344 825 344 l 829 347 l 826 347 q 788 326 792 326 m 528 330 l 528 326 l 545 326 q 580 340 580 331 l 580 344 l 576 344 q 528 330 532 330 m 208 319 q 364 267 265 267 l 364 275 q 212 319 237 295 l 208 319 m 760 229 l 764 229 q 854 292 827 286 l 854 302 q 760 229 760 260 m 746 257 l 746 254 l 750 254 q 788 285 788 280 l 785 285 q 746 257 749 268 m 347 250 l 347 243 q 392 236 382 236 l 392 243 q 347 250 364 250 m 180 247 l 180 239 q 336 191 252 191 l 336 195 q 236 219 336 202 l 180 247 m 517 247 l 517 243 l 541 239 l 559 239 l 559 243 l 534 247 l 517 247 m 878 239 l 878 233 q 788 167 848 221 q 785 170 788 170 q 878 239 834 239 m 548 216 q 576 205 551 205 l 583 205 q 635 208 600 205 l 635 216 l 548 216 m 850 205 l 850 198 q 819 174 850 192 q 812 180 812 174 q 850 205 833 205 m 371 188 l 368 180 l 368 177 q 385 170 385 177 q 395 174 392 174 l 395 184 q 371 188 385 184 m 271 174 q 399 149 271 160 l 399 160 l 271 174 m 538 160 l 652 160 l 652 167 l 611 170 l 583 170 q 538 160 538 170 m 875 167 l 875 163 q 795 125 875 146 l 795 128 q 875 167 798 138 m 343 80 l 347 80 q 410 77 353 80 l 410 69 l 392 66 l 374 66 q 343 73 366 66 l 343 80 m 382 31 l 382 28 l 402 28 l 402 31 l 382 31 z "},"7":{"ha":1196,"x_min":27,"x_max":1173,"o":"m 847 972 q 1128 769 1036 972 q 1173 657 1173 703 l 1173 593 q 1067 332 1173 464 q 922 153 1063 296 q 674 34 786 45 q 458 0 553 0 q 170 92 301 0 q 27 332 27 92 q 58 390 27 341 q 71 518 64 411 q 68 535 68 524 q 163 701 68 593 q 264 800 208 779 q 522 949 456 949 q 627 945 585 945 l 657 949 l 664 945 l 671 949 q 674 945 674 949 q 847 972 823 972 m 610 918 l 610 922 q 606 918 606 922 q 566 925 566 922 l 468 864 q 448 874 450 864 l 448 888 l 451 895 l 444 895 q 278 783 374 858 q 122 613 223 771 q 85 387 102 583 q 58 336 66 342 q 98 136 75 136 q 136 115 98 125 l 153 115 l 268 153 q 295 156 276 153 q 410 146 372 153 l 509 170 q 593 156 585 162 q 745 231 622 156 q 867 342 774 303 q 935 461 935 376 q 1098 715 999 577 q 1101 739 1098 725 q 1000 884 1071 844 q 830 949 922 949 q 664 922 811 949 q 610 918 637 918 m 492 915 l 492 911 l 495 911 q 532 932 532 926 l 528 939 q 492 915 492 924 m 817 942 l 847 942 q 901 922 891 942 l 901 915 l 898 915 q 840 925 854 925 l 820 925 q 752 922 798 925 l 749 928 q 817 942 783 942 m 823 911 l 867 911 q 969 857 918 911 l 969 854 q 962 847 969 847 q 823 905 892 905 l 823 911 m 589 908 q 640 891 640 903 l 640 884 q 620 874 637 874 l 593 874 q 579 888 588 874 l 579 901 q 589 908 579 908 m 935 905 q 1064 810 980 905 q 1081 745 1081 770 l 1081 742 q 1023 637 1081 716 q 1006 600 1013 600 l 1003 600 l 996 603 q 1050 711 996 657 l 1061 745 q 935 898 1061 822 l 935 905 m 827 898 q 840 888 840 893 l 840 861 q 827 830 840 835 q 806 840 809 830 l 806 861 q 827 898 806 895 m 427 871 l 427 864 q 326 793 418 864 l 322 793 l 319 800 q 427 871 400 871 m 434 857 l 437 850 q 404 830 421 830 q 400 833 404 833 q 434 857 400 849 m 928 847 q 962 827 946 847 l 962 823 q 956 817 962 817 q 928 840 928 836 l 928 847 m 681 833 l 688 833 q 772 776 708 833 l 772 762 q 762 752 772 758 l 755 752 q 667 810 667 777 q 681 833 667 828 m 993 830 l 1000 830 q 1047 759 1047 800 l 1047 745 q 1020 711 1041 711 q 1017 722 1017 718 q 1030 759 1030 746 q 993 830 1030 771 m 559 827 l 572 827 q 593 817 593 825 l 593 813 l 555 813 q 552 817 552 813 l 545 813 l 538 813 l 538 817 q 559 827 542 827 m 610 817 l 616 817 q 644 800 635 817 l 644 796 q 610 817 624 796 m 684 810 l 684 803 q 718 783 699 783 l 722 783 q 688 810 719 791 l 684 810 m 424 803 q 441 779 441 798 l 441 766 q 431 745 441 748 l 420 745 q 407 776 407 750 l 407 793 q 424 803 407 801 m 562 803 l 586 803 q 630 783 615 803 l 630 779 l 569 789 q 478 769 517 783 q 562 803 503 803 m 911 800 l 915 800 q 972 722 972 755 l 972 694 q 956 610 964 610 l 952 610 q 959 708 959 691 q 905 796 959 739 l 911 800 m 535 779 l 579 779 q 715 684 665 779 q 739 644 734 684 l 739 640 q 640 525 739 572 q 552 465 600 483 q 502 383 528 446 l 478 376 q 329 454 359 376 l 312 593 q 383 640 312 618 q 509 772 496 772 q 535 779 521 779 m 1003 779 q 1013 769 1008 779 l 1013 755 q 1006 749 1013 749 q 996 776 1000 749 l 1003 779 m 661 776 q 698 728 698 753 l 694 728 l 650 772 q 661 776 657 776 m 271 762 l 285 762 q 295 752 290 762 l 295 725 q 281 715 295 715 q 261 752 268 715 q 271 762 261 757 m 888 752 q 925 725 925 747 q 898 623 913 623 l 895 623 q 861 654 872 623 q 884 752 861 752 l 888 752 m 722 739 l 728 739 q 742 725 734 739 l 742 715 l 735 715 q 722 732 730 715 l 722 739 m 1118 725 q 1152 620 1152 656 l 1156 620 q 1162 627 1162 620 l 1162 637 q 1128 732 1162 667 l 1125 732 q 1118 725 1118 731 m 451 694 l 454 694 q 495 711 492 711 l 495 715 l 488 715 q 451 694 451 705 m 630 711 l 630 708 q 681 620 681 680 l 684 620 q 691 640 691 631 l 691 644 q 630 711 676 711 m 495 694 l 495 691 q 518 701 518 696 l 518 705 l 515 705 q 495 694 495 703 m 732 705 l 735 705 q 759 661 759 689 l 749 661 q 732 698 749 672 l 732 705 m 203 701 l 207 701 l 207 698 q 142 586 207 690 q 125 532 125 544 l 119 532 l 119 538 q 203 701 119 616 m 397 701 l 400 694 q 363 674 378 674 l 359 674 l 359 677 q 397 701 366 688 m 414 701 q 420 694 420 701 l 420 688 q 319 620 403 661 l 295 589 l 292 589 l 292 600 q 390 677 292 633 q 414 701 410 701 m 481 667 l 481 664 l 485 664 q 559 691 512 677 l 559 694 l 552 694 q 481 667 532 694 m 878 667 l 878 640 l 891 640 q 895 650 891 644 q 888 694 888 686 q 878 667 878 692 m 383 583 l 383 579 q 471 674 414 616 l 471 677 l 468 677 q 383 583 383 616 m 305 674 l 309 674 q 319 664 313 674 l 319 661 q 231 606 267 610 l 220 620 l 220 633 q 305 674 267 665 m 647 664 q 661 640 661 645 l 667 640 l 667 650 q 654 664 667 656 l 647 664 m 942 664 l 942 650 q 901 555 942 595 l 898 555 q 935 664 935 656 l 942 664 m 1115 661 q 1122 610 1115 648 l 1128 610 q 1132 620 1128 620 q 1118 661 1126 661 l 1115 661 m 414 511 l 414 508 l 417 485 l 424 485 q 454 600 434 563 l 498 647 l 498 650 l 492 650 q 414 511 414 595 m 444 468 q 485 427 444 439 q 538 481 494 427 q 657 606 657 561 q 596 647 641 647 l 586 647 q 458 549 487 647 q 444 468 451 536 m 234 630 l 234 627 q 258 640 258 633 l 258 644 l 254 644 q 234 630 234 636 m 183 623 q 166 600 174 602 l 163 600 l 163 603 q 183 623 163 623 m 400 549 l 400 545 l 404 545 l 420 593 q 400 549 410 593 m 1139 589 l 1139 586 q 1037 329 1139 471 l 1037 326 q 1152 589 1152 446 l 1139 589 m 359 566 l 356 552 l 356 549 l 359 549 q 363 562 363 561 l 363 566 l 359 566 m 271 566 l 275 566 q 281 559 281 565 q 285 478 281 556 l 281 478 q 264 528 270 478 l 268 528 q 264 532 268 532 l 271 566 m 854 566 q 861 559 861 565 l 861 552 q 755 437 861 494 q 752 441 755 441 q 830 515 752 445 q 854 566 851 566 m 833 559 q 840 552 840 558 q 813 518 827 526 l 810 518 l 810 522 q 833 559 810 540 m 959 559 l 962 559 l 962 555 q 901 387 918 420 q 857 363 871 363 l 854 363 l 854 366 q 922 498 892 391 q 959 559 939 551 m 1115 552 l 1098 488 l 1098 485 l 1101 485 q 1118 549 1118 529 l 1118 552 l 1115 552 m 370 522 q 373 511 373 515 l 376 511 q 380 545 376 528 q 370 522 372 545 m 295 545 l 298 545 q 326 437 312 545 q 376 390 365 390 l 376 383 q 298 468 298 411 q 288 542 295 509 l 295 545 m 711 528 q 735 501 735 528 q 722 461 733 461 l 708 461 q 694 501 694 461 q 711 528 694 525 m 874 485 l 878 485 q 898 451 888 485 q 803 410 898 426 l 796 410 q 786 420 791 410 l 786 431 q 874 485 820 467 m 112 478 l 119 478 l 122 454 l 122 441 q 105 393 122 402 l 102 393 q 112 478 109 422 m 193 471 l 203 471 q 214 461 208 471 l 214 441 q 197 400 208 400 l 190 400 q 180 410 185 400 l 180 441 q 193 471 180 467 m 366 451 q 414 407 382 407 l 414 414 q 376 451 395 414 l 366 451 m 397 444 l 397 437 q 407 427 397 432 l 414 427 l 414 431 q 400 444 414 435 l 397 444 m 806 434 l 806 427 l 810 427 q 833 441 828 427 l 833 444 l 830 444 q 806 434 813 434 m 298 407 l 302 407 q 407 359 366 359 l 407 353 l 376 353 q 298 407 298 370 m 647 404 l 694 404 q 728 387 721 404 q 708 359 728 366 q 623 376 623 359 l 623 380 q 647 404 623 404 m 857 393 l 857 387 q 745 315 851 370 q 715 281 720 282 l 711 281 l 711 285 q 776 356 711 312 l 772 356 l 755 349 l 752 356 q 793 376 781 376 q 796 366 796 370 q 857 393 847 393 m 115 373 q 183 349 183 373 l 183 346 q 132 332 171 332 q 88 346 88 334 q 115 373 92 373 m 505 366 q 518 349 512 364 q 458 309 518 327 l 448 322 l 448 332 q 505 366 484 366 m 109 353 l 109 346 q 119 342 112 346 l 136 346 q 129 353 136 353 l 109 353 m 481 342 l 492 342 q 498 349 498 342 l 498 353 l 495 353 q 481 342 481 347 m 840 356 l 844 356 l 844 349 q 769 295 844 345 q 684 217 722 217 l 681 224 q 762 315 720 248 q 840 356 819 356 m 319 342 q 349 312 349 338 q 339 305 340 305 l 326 305 q 305 326 321 305 l 305 332 q 319 342 305 340 m 366 342 l 380 342 l 397 339 l 397 332 l 373 332 q 366 339 366 332 l 366 342 m 664 339 l 664 336 q 640 319 662 326 l 637 326 q 664 339 651 339 m 681 336 l 691 336 l 691 329 q 583 271 640 271 l 572 271 l 572 278 q 681 336 625 286 m 393 292 l 407 275 l 407 268 q 346 183 376 183 q 319 200 328 183 q 390 292 319 248 l 393 292 m 674 288 l 684 288 q 694 268 694 285 l 694 251 q 684 241 694 246 l 674 241 q 664 261 664 244 l 664 278 q 674 288 664 283 m 88 281 q 109 180 102 281 q 142 153 123 153 l 149 153 q 231 183 218 183 l 254 183 q 264 173 259 183 q 146 129 255 173 q 81 278 81 129 l 88 281 m 353 237 l 356 237 q 383 264 360 237 l 383 271 l 380 271 q 353 237 353 251 m 492 275 l 498 275 q 515 220 513 275 l 515 214 q 505 203 515 209 l 498 203 q 478 254 481 203 l 478 261 q 492 275 478 267 m 681 129 l 681 125 l 688 125 q 878 241 813 159 q 891 258 882 241 l 888 258 q 681 129 774 159 m 268 237 l 285 237 q 292 231 292 236 q 285 224 292 224 l 268 224 q 261 231 261 224 q 268 237 262 237 m 633 234 l 637 227 l 637 224 q 593 203 622 203 l 569 203 q 562 210 562 203 l 562 214 l 566 214 q 633 234 607 214 m 258 217 l 285 217 q 295 207 290 217 l 288 203 l 258 203 q 186 190 233 203 l 183 197 q 258 217 183 210 m 657 210 l 667 210 l 667 207 q 593 173 638 173 q 509 180 588 173 l 451 170 l 451 176 q 512 193 481 193 l 552 193 q 583 190 564 193 q 657 210 621 197 m 122 207 l 125 207 q 166 180 132 197 q 159 173 166 173 l 149 173 q 122 200 122 173 l 122 207 m 701 159 l 701 156 l 705 156 q 759 180 709 156 l 759 183 l 752 183 q 701 159 707 159 m 298 180 q 400 173 315 180 l 400 166 q 370 159 370 163 q 292 176 292 165 l 298 180 m 752 122 l 752 119 l 755 119 q 817 156 806 134 l 817 159 q 752 122 760 122 m 498 122 l 498 119 l 522 119 l 522 122 q 512 125 518 122 q 498 122 506 122 m 383 115 l 383 109 q 475 95 425 95 l 485 95 q 566 112 566 99 l 552 115 q 485 109 502 109 q 383 115 451 109 m 305 102 l 305 98 q 373 81 349 81 l 404 81 l 404 85 q 309 102 384 85 l 305 102 m 454 51 q 309 71 376 54 q 471 34 321 44 q 688 92 588 34 l 691 98 l 688 98 q 454 51 568 51 m 465 75 l 465 71 l 505 64 q 569 78 541 68 l 569 81 q 465 75 512 75 z "},"8":{"ha":1202,"x_min":27,"x_max":1171,"o":"m 627 975 l 644 975 q 667 956 667 975 l 671 956 q 713 975 692 975 l 724 975 q 760 959 736 975 q 810 965 789 965 q 959 892 864 965 q 989 905 979 905 l 992 905 q 1048 846 1045 905 q 1118 684 1118 774 q 1171 591 1141 618 l 1171 577 q 1145 514 1171 557 l 1145 491 q 969 189 1145 378 q 641 37 918 117 q 412 0 543 0 q 176 142 293 0 q 123 196 163 142 q 67 245 67 196 q 77 286 77 275 q 34 398 34 373 q 27 448 31 401 q 203 736 27 541 q 259 823 218 823 q 339 852 330 836 q 564 945 410 897 q 627 975 604 975 m 597 932 q 618 872 615 908 l 624 872 l 624 882 q 627 945 624 909 q 624 956 624 951 l 611 956 q 597 932 597 950 m 694 939 l 694 935 q 774 786 694 892 l 774 793 q 717 935 717 889 q 711 945 711 935 l 701 945 q 694 939 694 944 m 760 932 q 827 753 792 862 q 913 528 867 685 q 956 481 936 481 q 976 488 967 488 l 983 484 q 956 461 983 476 q 959 451 959 454 q 1025 501 1025 466 l 1025 514 q 1013 521 1013 514 l 1013 524 q 1025 554 1025 542 l 1025 567 q 949 517 968 517 l 949 521 q 1022 604 1022 586 l 1019 617 q 979 591 991 591 l 979 597 q 1013 647 1013 628 q 969 777 985 740 q 916 823 969 781 l 913 829 q 916 833 916 829 l 962 806 l 962 819 q 863 896 881 896 l 863 902 l 866 902 q 956 852 892 902 l 956 866 q 783 939 873 939 q 760 932 760 939 m 654 766 q 720 667 720 734 q 713 630 720 654 l 707 630 q 651 749 707 723 l 648 726 q 681 684 648 709 q 697 614 689 665 q 707 584 705 614 l 707 581 q 671 524 707 572 l 671 504 l 674 504 q 713 537 680 504 q 717 528 717 531 q 664 481 706 503 l 664 468 q 750 524 685 468 q 753 521 750 521 q 661 444 745 481 l 657 438 q 684 321 684 349 l 684 292 q 681 202 684 264 l 687 202 q 817 292 722 262 q 906 372 864 292 q 913 378 913 372 l 906 381 l 903 381 q 806 312 852 312 q 717 262 755 291 l 713 262 q 707 269 707 262 q 836 338 766 320 q 893 401 883 380 q 886 408 893 408 q 843 378 863 378 q 836 385 836 378 q 880 431 880 420 q 823 644 853 514 q 690 886 766 766 q 681 929 681 924 l 677 929 q 661 856 671 929 q 654 766 654 856 m 319 809 q 369 667 355 688 q 429 707 412 707 l 432 707 l 432 703 q 378 654 432 700 l 378 647 q 392 633 378 642 q 488 716 440 716 q 574 713 553 713 l 578 720 l 578 723 q 508 736 517 736 q 495 733 503 733 l 492 740 q 501 747 493 740 q 581 736 526 747 l 585 743 l 541 753 l 541 760 l 545 760 q 588 756 586 756 q 604 842 604 799 l 597 889 q 452 869 551 879 l 452 876 q 591 909 558 894 q 588 919 588 916 l 585 919 q 462 892 542 905 q 319 812 399 869 l 319 809 m 972 863 l 972 852 q 989 766 972 834 l 996 766 q 992 770 996 770 l 996 809 l 996 876 q 989 882 996 882 l 983 882 q 972 863 972 879 m 548 856 l 548 849 q 471 836 514 836 l 469 836 l 469 842 q 548 856 543 856 m 425 852 l 425 846 q 389 833 391 833 l 389 836 q 425 852 404 852 m 220 684 l 223 684 q 273 800 246 778 l 262 806 q 220 693 227 806 l 220 684 m 1042 800 l 1039 783 l 1039 760 q 1085 544 1085 615 q 1095 581 1093 544 l 1065 713 l 1072 713 q 1115 577 1115 616 l 1115 567 q 1088 494 1115 553 l 1088 484 q 1141 570 1109 484 l 1141 574 q 1109 644 1141 580 q 1042 800 1067 800 m 614 779 q 597 716 597 721 l 597 703 q 608 693 597 699 l 618 707 l 618 713 q 614 740 618 727 q 618 766 618 753 l 618 779 l 614 779 m 793 747 l 793 743 q 823 663 810 704 l 827 663 l 827 670 q 793 747 806 747 m 186 295 q 213 272 186 291 q 206 265 213 265 q 180 279 192 270 l 176 279 l 173 265 q 262 222 204 238 l 262 216 l 259 216 q 166 249 222 216 l 163 242 q 256 199 184 199 l 286 196 l 286 189 q 220 182 239 182 q 153 219 191 182 q 146 212 146 218 l 146 209 q 233 149 196 149 l 296 166 q 445 133 317 166 l 458 133 l 458 142 q 389 163 458 151 q 322 186 389 166 l 322 196 l 326 196 q 435 169 349 196 q 445 176 445 172 q 366 448 378 448 q 329 461 329 448 l 332 468 q 369 461 364 461 l 369 465 l 316 494 q 289 537 289 522 l 289 564 l 292 564 l 319 514 q 372 488 349 488 l 372 498 q 326 561 326 539 q 332 584 332 574 q 283 723 306 621 q 279 730 279 723 q 233 521 267 730 q 186 298 210 395 l 186 295 m 408 726 l 412 720 q 372 696 384 696 l 372 700 q 408 726 393 726 m 1013 707 l 1013 696 q 1032 630 1032 635 l 1036 630 l 1036 637 q 1016 707 1036 647 l 1013 707 m 50 448 q 94 305 50 385 l 94 315 q 60 431 64 403 q 73 465 64 465 l 77 458 q 73 448 77 448 q 103 342 73 423 q 113 361 110 342 q 100 418 100 408 l 106 418 q 120 381 120 386 q 170 547 132 381 q 199 696 176 565 q 50 448 64 538 m 309 696 q 359 584 327 584 q 366 591 360 591 q 313 696 346 614 l 309 696 m 406 621 l 406 614 l 412 614 q 441 630 432 630 l 445 624 q 408 594 441 623 l 408 587 l 425 591 l 429 584 q 399 537 399 556 q 402 524 402 532 l 408 524 l 408 537 q 564 647 408 600 l 571 647 l 571 650 l 564 650 l 564 660 l 588 660 q 581 667 588 667 l 555 667 q 488 660 522 667 l 485 667 q 571 680 521 680 q 564 686 571 686 l 534 686 q 406 621 440 686 m 741 680 l 747 680 q 753 633 753 648 q 750 584 750 592 l 743 584 l 741 607 l 741 680 m 637 663 l 637 656 l 657 654 q 637 663 657 660 m 425 531 q 469 494 425 516 q 604 534 604 505 q 624 557 614 556 l 657 554 q 684 591 673 567 q 618 624 684 624 l 608 624 q 439 561 519 624 q 425 531 425 543 m 465 621 l 469 621 q 452 604 469 616 l 441 604 l 441 607 q 465 621 447 621 m 857 577 l 857 570 q 869 537 861 537 l 876 537 l 860 577 l 857 577 m 369 537 q 382 521 375 522 q 385 561 382 550 q 369 537 380 561 m 120 551 l 123 551 l 123 544 q 100 507 100 512 l 94 507 q 120 551 94 525 m 190 547 l 183 524 l 183 511 q 193 544 193 511 l 193 547 l 190 547 m 1046 541 l 1029 451 q 1042 435 1036 436 q 1055 451 1047 435 l 1052 468 l 1052 534 q 1046 541 1052 541 m 614 528 l 614 458 l 621 458 q 634 504 634 492 l 634 511 q 624 531 634 528 q 614 528 618 528 m 262 531 l 269 531 q 299 484 269 519 q 296 481 296 484 q 262 531 262 498 m 876 514 l 876 507 q 923 391 903 412 q 932 395 929 395 l 932 405 q 880 514 919 425 l 876 514 m 389 474 q 412 401 401 448 l 415 401 l 415 405 q 418 494 418 471 l 408 501 l 402 501 q 389 474 393 501 m 465 471 q 488 461 465 465 l 555 471 l 558 465 q 495 444 551 446 l 481 444 q 478 448 478 444 q 469 444 472 444 l 469 425 l 475 425 q 522 431 496 425 l 525 425 q 485 412 502 412 l 469 412 q 531 189 469 248 q 551 166 536 173 q 597 182 597 174 l 597 186 l 594 193 q 558 186 566 186 q 548 189 551 189 l 548 196 q 608 232 608 202 q 614 298 614 279 q 594 431 606 426 q 564 425 573 425 l 564 428 q 597 458 597 446 l 597 491 q 591 498 597 498 q 465 474 549 484 l 465 471 m 969 435 l 976 421 q 1016 441 1014 433 l 1016 458 q 969 435 969 439 m 1088 421 l 1082 421 l 1085 438 q 1065 412 1082 438 q 1076 405 1076 412 q 969 256 1038 301 q 916 219 933 219 q 1059 408 1040 338 q 1009 391 1034 408 l 1002 391 l 1002 398 l 1013 412 l 1013 414 q 959 365 996 412 q 939 358 948 358 l 926 361 q 783 256 876 256 q 774 252 783 252 l 774 249 l 787 249 l 787 245 q 747 219 787 240 q 661 136 690 136 q 627 109 633 109 q 601 113 609 113 q 531 86 531 95 l 538 86 l 538 83 q 485 70 538 72 l 475 70 q 469 76 469 70 l 469 79 l 478 79 l 501 83 l 501 86 q 481 96 494 86 l 465 93 l 441 93 q 366 109 406 93 l 362 109 l 362 106 q 439 73 439 77 l 439 70 l 435 70 q 286 116 404 70 q 246 123 263 123 l 236 123 q 412 23 327 23 l 448 23 q 853 130 591 23 q 1109 435 1027 252 l 1112 451 l 1112 454 q 1088 421 1091 421 m 306 444 l 309 444 q 352 428 341 428 l 352 421 q 306 441 306 430 l 306 444 m 618 428 l 618 418 l 621 385 q 631 405 631 388 l 627 428 l 618 428 m 166 421 q 94 262 166 389 q 90 249 90 256 q 100 239 90 244 l 103 239 q 170 401 117 239 l 170 421 l 166 421 m 1025 388 l 1032 388 q 979 315 1032 346 l 976 321 q 1025 388 1015 362 m 986 375 l 986 368 q 936 315 968 334 l 932 315 l 932 319 q 986 375 932 328 m 806 355 l 806 351 q 743 328 806 342 l 743 335 q 806 355 788 355 m 896 286 l 899 286 l 899 282 q 777 212 866 233 l 767 212 l 767 216 q 883 275 767 220 q 896 286 883 279 m 322 275 l 349 275 l 366 272 l 366 265 l 355 265 l 322 269 l 322 275 m 631 259 q 614 153 614 187 l 614 142 l 621 133 q 634 142 634 138 l 634 259 l 631 259 m 253 256 q 402 232 402 256 l 402 229 q 276 239 361 239 q 253 252 253 245 l 253 256 m 571 239 l 571 235 q 522 222 571 226 q 508 232 508 227 q 571 239 533 239 m 458 216 l 458 212 q 501 113 486 113 l 508 113 q 515 119 515 113 l 515 136 q 462 216 462 202 l 458 216 m 548 149 l 548 130 q 597 139 557 130 q 591 156 597 156 q 548 149 581 156 m 720 136 l 724 136 l 724 133 q 664 106 693 106 l 664 109 q 720 136 667 119 m 797 133 q 654 79 738 79 l 654 86 q 797 133 671 86 m 322 126 l 322 123 q 352 113 328 123 l 355 113 l 355 116 q 329 126 348 116 l 322 126 m 296 96 q 425 60 392 60 l 432 60 q 604 86 499 60 l 604 79 q 432 40 527 40 q 296 93 370 40 l 296 96 z "},"9":{"ha":1041,"x_min":34,"x_max":1006,"o":"m 524 972 q 720 929 618 972 q 975 655 904 841 q 1006 475 1006 575 l 1004 475 q 1006 473 1004 473 l 1004 463 q 859 137 1004 291 q 534 0 707 0 l 511 0 q 210 110 352 0 q 92 255 119 194 q 34 471 34 365 l 34 500 q 195 848 34 692 q 524 972 340 972 m 53 488 l 53 483 q 220 127 53 277 q 519 19 355 19 l 542 19 l 557 21 l 557 19 q 743 75 671 35 q 876 182 795 98 q 985 477 985 319 l 985 496 q 797 863 985 708 q 534 951 666 951 l 505 951 q 179 806 330 951 q 53 488 53 663 m 500 931 l 522 931 q 658 890 559 931 q 799 838 772 863 q 897 707 882 763 q 957 595 927 646 q 961 572 961 587 l 961 570 q 946 488 961 548 q 955 412 953 452 q 762 116 955 267 q 665 81 739 102 q 542 47 621 58 q 314 104 448 47 q 181 222 270 130 q 98 345 108 297 q 79 479 79 418 q 156 692 79 621 q 214 788 182 729 q 361 896 293 871 q 500 931 441 931 m 303 829 q 403 796 311 796 q 422 794 411 794 l 689 808 l 699 808 q 810 771 785 808 l 810 759 q 629 730 788 734 q 368 734 580 730 q 165 678 209 734 q 138 635 138 660 l 138 631 q 264 578 138 578 l 324 578 q 338 587 335 578 l 338 597 q 328 606 338 600 l 314 604 l 260 604 q 163 635 163 604 q 208 680 163 650 q 303 707 262 707 l 303 705 q 306 707 306 705 q 366 709 313 707 q 621 705 555 705 l 646 705 q 828 741 817 713 q 836 759 836 751 l 836 763 q 751 829 836 811 q 699 833 729 833 l 677 833 q 432 821 460 821 l 391 821 q 330 836 330 823 q 522 890 391 890 q 583 884 534 890 l 589 892 l 589 902 q 524 914 589 913 l 515 914 q 316 857 382 914 q 303 829 303 841 m 322 471 q 363 363 322 396 q 505 286 450 286 l 524 286 q 716 448 667 286 q 722 496 722 475 l 722 516 q 687 593 722 562 q 536 682 626 682 q 380 618 469 682 q 322 471 334 563 m 524 651 q 673 549 619 651 q 685 481 685 516 q 596 338 685 394 q 519 319 551 319 q 374 406 431 319 q 355 479 355 444 l 355 498 q 446 635 355 578 q 524 651 485 651 m 374 483 q 475 347 374 389 q 513 340 498 340 l 522 340 q 660 446 621 340 q 667 485 665 463 q 573 622 667 576 q 517 633 539 633 q 414 587 465 633 q 374 483 374 543 m 699 606 l 699 600 q 710 589 699 597 l 734 589 q 909 537 875 589 l 911 525 l 911 520 q 799 454 911 464 l 745 454 q 737 456 741 454 q 724 446 728 453 l 724 444 q 739 429 724 429 l 766 429 q 793 427 779 429 q 926 483 883 427 q 938 525 938 509 q 777 614 938 597 q 716 616 769 614 q 699 606 705 616 m 231 479 l 224 479 q 96 417 96 479 l 96 408 q 167 311 96 339 q 200 307 185 307 q 380 321 366 316 l 382 332 l 382 334 q 372 345 382 336 q 200 332 332 340 q 121 410 121 340 q 227 454 121 454 q 306 450 236 454 q 316 465 316 453 l 316 467 q 235 479 316 479 l 235 481 l 231 479 m 679 345 l 673 336 l 673 328 q 762 313 673 313 q 842 282 842 305 l 842 280 q 724 230 842 239 l 724 232 q 722 230 722 232 q 660 228 681 228 l 604 228 q 409 239 551 228 q 283 189 308 239 q 279 172 279 181 l 279 170 q 524 87 279 87 q 675 102 675 87 q 677 108 677 106 q 669 118 673 117 q 546 114 587 114 l 507 114 q 308 155 345 114 q 303 168 303 162 q 393 212 303 205 q 416 214 404 214 q 631 201 549 201 q 855 245 817 201 q 869 286 869 264 q 810 332 869 318 q 679 345 766 338 z "},"\u0000":{"ha":0,"x_min":0,"x_max":0,"o":""}," ":{"ha":345,"x_min":0,"x_max":0,"o":""},"!":{"ha":1123,"x_min":27,"x_max":1082,"o":"m 62 971 l 932 971 l 933 970 q 932 867 932 910 q 916 863 918 864 l 840 573 l 1047 323 q 1048 323 1048 323 q 1046 129 1048 298 q 1082 66 1072 106 l 1082 26 q 1052 -37 1082 1 q 1038 -49 1051 -37 q 1015 -63 1029 -55 q 918 -90 985 -81 q 880 -92 898 -92 l 833 -92 q 701 -62 761 -92 q 657 -25 683 -53 q 651 -17 657 -23 q 650 -20 651 -18 q 651 -20 651 -20 q 640 -31 645 -31 l 635 -31 q 630 -21 630 -28 q 631 -12 630 -20 q 627 -2 628 -2 q 625 -17 627 -3 l 625 -20 q 629 -43 629 -37 q 616 -64 627 -64 q 603 -37 603 -64 q 597 2 601 2 l 530 2 l 531 -2 l 531 -8 q 518 -30 528 -30 q 509 -13 509 -30 q 507 -5 508 -11 q 500 -8 505 -7 q 498 -22 499 -18 q 499 -36 499 -30 q 485 -65 496 -65 l 483 -65 q 473 -50 475 -65 q 474 -26 473 -43 q 471 2 474 2 l 324 2 l 325 -9 q 311 -29 325 -29 q 302 -14 303 -29 l 302 -13 q 302 -5 302 -10 q 302 -1 302 -4 l 297 -1 q 288 -20 288 -12 q 288 -28 288 -21 q 273 -59 285 -59 l 267 -59 q 256 -10 261 -59 q 253 2 254 -10 l 131 2 q 129 -4 130 2 q 133 -33 133 -25 l 133 -42 q 122 -56 133 -54 l 121 -56 q 107 -22 107 -56 l 107 -13 q 102 -1 107 -5 l 92 -2 l 92 -6 q 74 -42 89 -42 q 58 -17 58 -37 l 58 -3 q 54 2 58 2 l 28 2 q 27 3 27 2 l 27 345 l 202 548 l 171 627 q 80 852 115 766 q 67 857 67 855 l 60 970 l 62 971 m 83 956 q 86 871 83 920 q 686 879 108 871 l 688 880 l 690 879 q 900 881 857 881 q 916 882 912 882 q 916 885 916 885 l 913 955 l 912 955 q 83 956 344 956 m 706 951 q 718 935 718 949 l 718 930 q 712 917 718 924 l 712 916 q 731 899 731 906 l 731 897 q 727 891 731 893 l 721 891 q 697 905 719 891 q 688 909 689 909 l 688 907 q 682 886 688 886 l 677 886 q 671 891 673 886 q 671 911 671 908 q 671 937 671 933 q 691 951 671 948 l 706 951 m 314 950 q 344 940 336 947 q 352 920 352 932 q 317 887 352 892 q 306 899 306 890 l 306 903 q 305 943 306 918 q 314 950 305 949 m 100 949 l 109 949 q 113 945 110 949 q 112 923 112 928 q 113 912 112 922 q 125 918 119 918 l 127 918 q 146 903 134 918 q 159 946 153 946 l 169 946 q 173 942 170 946 l 173 935 q 162 885 168 921 q 153 880 157 880 l 149 880 q 125 896 141 880 q 112 882 118 882 l 108 882 q 98 897 100 882 q 94 920 94 911 l 94 934 q 100 949 94 947 m 581 949 l 582 949 q 589 942 589 948 l 589 940 q 583 932 589 932 l 577 932 l 575 931 q 578 890 577 918 q 570 885 576 885 l 570 885 q 560 897 560 885 q 558 929 560 904 l 547 927 l 543 927 q 536 932 536 927 l 536 939 q 567 947 536 947 q 581 949 567 949 m 873 949 q 881 942 881 948 l 881 937 q 873 925 881 934 q 888 916 888 924 l 888 914 q 872 891 888 905 q 864 886 872 886 l 863 886 q 854 893 854 886 l 854 899 q 859 908 854 903 l 859 909 q 848 920 848 912 l 848 925 q 868 949 850 935 l 873 949 m 387 948 l 391 948 q 397 942 397 948 l 397 937 q 387 929 397 929 q 375 911 378 918 q 388 901 380 901 l 391 901 q 401 905 391 901 l 405 905 q 412 901 410 905 l 412 893 q 396 883 412 885 l 381 883 q 358 901 369 883 q 357 907 357 904 l 357 914 q 379 947 357 929 q 387 948 383 948 m 612 948 q 633 946 616 946 l 651 946 q 659 938 659 944 l 659 936 q 654 931 659 935 l 644 932 q 620 932 631 932 l 616 932 l 616 924 l 624 923 l 634 923 l 639 922 q 643 923 640 923 l 645 923 q 649 919 646 923 l 649 916 q 642 909 649 911 l 618 911 l 618 909 l 618 907 q 623 903 618 903 q 633 907 624 903 l 637 907 q 646 897 644 907 l 646 895 q 622 885 646 885 q 601 904 601 885 q 599 931 601 912 l 599 935 q 612 948 604 948 m 205 947 q 227 916 227 939 q 208 884 227 894 q 203 884 207 884 q 179 911 182 884 l 179 916 q 197 947 181 947 q 205 947 200 947 m 254 947 q 290 925 281 947 q 292 918 292 921 l 292 913 q 272 887 292 897 q 262 885 266 885 q 236 911 239 885 l 236 918 q 254 947 241 947 m 476 947 q 488 943 486 943 l 498 943 q 522 945 502 943 q 526 938 526 943 l 526 936 q 518 927 526 927 q 511 928 516 927 l 507 927 l 507 925 q 512 897 507 914 l 512 897 q 504 888 511 888 q 494 896 497 888 q 490 923 490 916 l 490 927 l 487 927 q 468 935 468 930 l 468 943 q 476 947 470 947 m 447 944 l 450 944 q 460 924 458 944 l 460 916 q 439 884 457 884 l 433 884 q 410 920 416 884 l 410 928 q 418 943 410 943 l 425 943 q 429 939 427 943 l 429 932 q 427 927 429 930 q 437 901 427 910 q 443 920 443 909 l 440 932 l 440 938 q 447 944 440 944 m 798 944 q 817 943 804 944 q 827 944 823 944 q 834 937 834 943 l 834 936 q 830 929 834 932 q 812 928 816 928 q 804 929 805 929 l 804 924 l 814 924 q 823 927 815 924 q 830 920 830 926 q 808 909 830 909 l 804 909 l 804 906 l 824 907 q 829 900 829 905 q 809 891 829 891 l 800 891 q 789 906 791 891 l 789 934 q 798 944 789 944 m 760 912 l 762 912 q 772 901 772 912 l 772 899 q 761 888 772 890 l 758 888 q 749 903 749 888 q 760 912 749 911 m 817 831 q 819 827 819 831 q 810 783 814 795 q 820 776 810 777 q 850 789 836 776 q 857 807 857 800 l 857 812 q 827 845 857 822 l 823 845 q 817 831 817 842 m 791 833 l 791 812 l 790 812 q 766 836 772 836 l 765 836 q 758 829 758 834 q 758 812 758 825 q 757 789 758 810 q 764 782 758 782 l 765 782 q 772 789 772 782 q 770 792 772 791 q 772 810 772 796 l 773 810 q 792 793 786 793 l 797 793 q 805 813 805 799 l 805 827 q 808 833 808 830 l 808 835 q 800 843 808 841 q 791 833 791 843 m 370 812 q 353 835 364 818 l 349 836 l 348 836 q 339 828 339 836 q 340 790 340 799 l 340 774 q 347 768 340 768 l 351 768 q 357 776 357 768 l 357 798 l 358 798 q 370 793 364 793 l 375 793 q 391 808 382 793 l 391 808 q 403 774 397 774 q 407 773 404 773 l 408 773 q 415 781 415 773 l 415 783 q 397 840 403 840 l 389 840 q 373 816 381 840 q 370 812 371 812 m 420 833 q 429 773 424 795 l 435 772 q 444 781 444 772 l 442 793 q 457 815 457 800 q 439 840 457 829 l 427 840 q 420 833 420 840 m 471 833 q 471 827 471 828 q 471 814 471 819 l 471 783 q 477 775 471 775 l 483 775 q 487 781 487 777 l 487 795 q 488 833 487 810 q 479 840 486 840 q 471 833 471 839 m 169 808 l 169 804 q 194 760 174 760 l 207 760 q 227 762 214 760 q 232 760 229 760 l 234 760 q 241 769 241 760 q 230 778 241 777 l 229 778 q 201 775 224 778 q 185 804 189 775 l 185 805 q 202 821 185 819 l 219 817 l 220 817 q 227 821 224 817 l 227 829 q 201 837 222 837 q 169 808 169 833 m 503 829 q 505 793 505 811 l 505 784 q 519 773 505 773 q 546 781 546 774 l 546 784 q 538 791 546 791 q 522 789 532 791 l 520 790 l 520 803 q 515 836 520 836 l 510 836 q 503 829 503 836 m 250 802 l 250 794 q 277 761 250 774 q 288 760 280 760 q 322 781 316 760 q 324 791 324 787 l 324 792 q 304 827 324 817 q 281 836 292 831 l 277 836 q 250 802 250 825 m 554 809 l 554 808 q 559 800 554 804 q 581 777 564 777 l 587 777 q 618 789 618 782 l 618 790 q 611 797 618 797 l 610 797 l 585 792 l 583 792 q 577 795 579 792 l 577 797 l 582 797 q 599 817 599 797 q 583 836 599 833 l 581 836 q 560 816 568 836 q 554 809 554 814 m 703 793 l 703 785 q 711 776 703 776 l 714 776 q 721 782 721 776 q 720 792 720 791 q 726 796 721 792 q 730 782 728 796 q 738 777 733 777 l 741 777 q 748 781 746 777 l 748 787 q 745 797 745 796 q 748 803 748 798 l 748 808 q 738 814 747 812 q 721 836 730 836 l 715 836 q 708 820 708 833 l 703 793 m 623 827 l 623 814 q 635 774 623 797 l 641 773 q 665 790 657 773 q 667 803 667 798 q 642 833 667 829 l 633 833 q 623 827 627 833 m 552 734 l 552 730 q 551 697 552 718 q 559 688 552 688 l 562 688 q 568 694 568 688 q 567 701 568 696 q 568 720 568 711 q 568 720 568 720 q 603 696 599 696 q 607 694 604 694 q 616 700 614 694 l 616 705 q 606 712 616 710 q 588 726 592 722 q 594 742 594 734 q 570 764 594 764 q 552 734 552 764 m 743 733 q 764 692 745 700 l 768 691 l 777 691 q 792 703 792 693 l 792 705 q 788 711 792 709 l 781 711 q 773 707 777 707 l 770 707 q 761 720 766 707 l 762 721 l 772 721 q 787 729 783 721 l 787 742 q 774 762 787 755 q 770 762 772 762 l 761 762 q 743 733 749 762 m 797 697 q 805 688 799 688 l 810 688 q 843 716 829 688 q 844 724 844 722 l 844 730 q 820 760 844 741 q 813 762 820 762 l 812 762 q 802 732 802 762 q 797 697 798 716 m 686 753 l 686 749 q 703 741 686 741 l 707 740 q 694 726 703 726 q 690 717 690 722 q 692 711 690 714 q 686 693 686 696 l 686 692 q 694 685 686 685 l 715 685 q 722 691 722 685 l 722 697 q 717 701 720 701 l 707 701 l 707 701 q 712 711 707 703 q 723 708 720 708 l 724 708 q 731 715 731 708 q 719 726 731 723 l 719 726 q 725 745 725 740 q 699 757 725 757 q 692 758 699 758 q 686 753 689 758 m 640 753 l 640 726 q 646 696 640 696 l 652 696 q 659 701 657 696 q 658 739 658 724 l 658 750 q 650 758 658 758 l 647 758 q 640 753 642 758 m 471 711 q 484 688 475 688 q 494 686 484 686 q 526 710 518 686 l 528 722 q 506 755 528 747 q 496 757 499 757 q 471 711 471 749 m 392 749 l 392 746 q 415 736 392 738 q 420 734 420 736 q 421 701 420 732 l 421 691 q 429 682 421 682 l 433 682 l 437 686 l 436 734 l 437 734 q 444 732 443 732 l 448 732 q 452 736 450 732 l 452 742 q 410 753 452 753 q 399 756 404 756 q 392 749 392 755 m 326 716 l 326 711 q 356 678 330 678 l 357 678 q 391 689 372 678 q 392 694 392 693 q 385 701 391 701 l 382 701 q 357 694 361 694 l 356 694 q 342 713 345 694 q 349 729 342 720 l 357 728 q 364 734 364 728 q 355 748 363 748 l 351 748 q 326 716 334 748 m 232 738 q 233 726 233 730 l 233 718 q 229 691 233 710 l 229 691 q 201 738 203 726 q 194 740 197 740 l 193 740 q 186 730 186 740 l 186 728 q 219 672 186 724 q 226 665 219 670 l 233 665 q 249 716 245 665 l 249 722 q 250 729 250 728 l 250 732 q 241 744 249 744 l 237 744 q 232 738 235 744 m 264 736 q 277 675 268 675 q 306 672 283 672 l 311 672 q 317 678 317 672 l 317 683 q 300 691 310 691 q 294 688 298 691 l 290 688 q 284 696 284 688 l 284 699 q 302 704 284 701 q 307 711 307 707 l 307 712 q 298 720 307 719 q 282 717 287 717 q 281 726 281 718 q 281 726 281 726 q 294 726 290 726 l 298 726 q 312 734 312 726 q 307 742 311 742 q 293 741 296 741 q 275 743 281 743 l 269 743 q 264 736 264 741 m 581 486 q 730 534 654 534 q 785 527 760 534 l 785 528 q 696 568 758 568 q 581 486 613 568 m 247 512 l 247 511 q 310 523 276 523 l 319 523 q 464 473 387 523 q 467 472 464 472 q 414 539 450 519 q 336 559 382 559 q 247 512 273 559 m 587 425 q 745 467 640 467 q 848 454 798 467 l 848 455 q 814 496 840 482 q 741 515 784 515 l 728 515 q 593 439 637 515 q 587 425 587 427 m 209 454 l 209 452 q 292 464 248 464 q 475 408 387 464 l 477 408 l 477 408 q 414 475 456 453 q 313 498 372 498 q 209 454 246 498 m 585 351 l 929 351 l 929 352 q 895 397 919 372 q 758 448 838 448 l 755 448 q 607 399 661 448 q 585 351 585 370 m 142 359 q 155 357 153 357 q 364 356 197 357 l 377 355 q 385 356 380 356 q 407 355 397 355 q 408 356 408 355 l 412 355 l 458 355 q 483 355 467 355 q 407 417 465 393 q 294 436 355 436 l 278 436 q 161 387 208 436 q 142 359 142 363 m 52 327 q 51 24 51 145 l 52 24 q 568 26 464 26 q 589 27 586 27 l 589 26 l 591 27 l 633 27 q 630 55 631 41 q 670 131 630 89 q 855 188 737 188 q 1019 150 954 188 l 1024 146 l 1025 146 l 1025 159 q 1026 314 1025 212 l 370 323 l 368 323 q 358 323 367 323 l 52 327 m 88 310 l 90 310 q 132 286 100 310 q 166 243 154 276 q 174 181 174 210 l 174 166 q 159 91 174 133 q 136 62 153 77 q 88 35 115 35 l 87 35 q 71 44 74 35 q 72 54 71 48 q 70 75 71 65 q 69 121 70 89 q 75 254 72 221 q 81 305 75 305 q 88 310 85 310 m 679 309 q 703 307 688 307 q 722 309 705 307 q 805 300 805 304 q 810 268 810 296 q 796 256 807 256 l 770 256 l 770 256 q 774 193 774 214 q 768 186 772 186 q 753 186 760 186 q 729 186 739 186 q 720 199 721 186 q 715 262 719 262 l 707 262 q 686 261 699 262 q 669 274 669 261 q 669 290 669 283 l 669 292 q 679 309 669 307 m 431 307 q 488 297 445 305 q 492 288 492 293 q 483 208 486 288 q 498 48 490 103 l 498 47 q 489 34 498 34 q 446 47 446 38 q 422 94 439 67 q 410 114 421 94 l 409 114 l 409 113 q 420 46 417 58 l 420 43 q 413 36 420 36 l 410 36 q 354 45 354 36 q 351 55 354 47 q 353 60 351 57 q 355 142 353 69 l 356 142 q 355 145 355 144 q 353 194 353 182 l 353 235 q 353 290 353 255 q 361 304 353 304 q 379 306 366 304 q 393 292 393 306 q 422 195 407 243 l 423 195 q 424 211 424 206 l 424 237 q 420 282 424 248 q 431 307 420 307 m 274 304 l 286 304 q 325 277 302 304 q 344 216 337 256 q 345 201 345 208 l 345 192 q 330 127 345 165 q 293 74 320 110 q 252 43 271 43 l 245 43 q 198 99 214 43 q 194 138 197 106 q 218 256 194 184 q 244 288 225 269 q 264 299 251 292 q 274 304 267 304 m 892 303 q 953 297 910 300 q 959 290 959 295 l 959 290 q 930 271 959 281 q 907 260 930 270 l 907 258 q 935 239 935 250 l 935 238 q 917 224 935 233 q 871 193 873 193 l 868 193 q 840 202 857 199 q 836 210 836 208 q 857 238 836 215 l 855 239 l 852 239 q 825 252 825 242 l 825 254 q 860 288 831 271 q 885 302 875 302 l 892 303 m 526 300 l 528 300 q 573 292 541 295 q 579 281 579 287 q 578 252 578 267 l 578 229 q 579 192 578 212 q 578 147 578 166 l 580 146 l 583 146 q 606 192 595 146 q 608 216 608 201 l 608 240 q 603 285 608 261 q 613 294 603 294 l 623 294 q 649 285 649 294 l 649 271 q 650 257 649 263 q 648 235 648 243 q 649 208 648 220 q 648 155 648 184 l 648 146 q 635 103 648 113 q 610 69 624 86 q 579 50 600 50 q 532 75 560 50 q 510 170 510 104 q 507 207 507 181 l 507 227 q 519 296 510 296 q 526 300 522 296 m 254 216 q 245 165 248 191 q 256 134 245 144 q 268 173 268 156 l 268 178 q 254 216 264 216 m 110 210 l 110 210 q 113 146 112 192 l 114 146 q 125 180 125 172 q 110 210 125 195 m 658 55 q 677 45 658 47 q 695 19 683 42 q 723 2 709 2 q 751 -16 726 2 q 766 -20 758 -20 q 797 -13 773 -20 q 802 -12 798 -12 q 821 -24 808 -12 q 849 -35 836 -32 l 851 -34 l 854 -35 q 883 -29 875 -29 q 915 -31 894 -29 q 970 -1 963 -31 q 1002 16 975 16 q 1032 27 1028 16 q 1042 62 1036 62 q 1055 69 1042 66 l 1055 73 q 1028 121 1055 94 q 923 165 987 155 q 859 170 900 169 q 736 144 801 170 q 694 117 713 133 q 661 68 665 87 q 658 55 661 66 m 871 164 l 879 164 q 889 158 882 164 q 904 146 894 158 q 921 164 911 164 q 937 150 937 158 q 921 118 928 118 q 912 114 920 116 q 891 126 899 117 q 878 138 882 134 q 877 135 878 137 q 878 127 878 131 q 871 123 875 123 q 861 134 864 123 q 864 155 862 135 q 871 164 869 163 m 809 161 l 815 161 q 834 141 834 152 l 834 140 q 814 117 834 124 q 808 115 813 115 l 805 115 q 788 134 791 115 q 809 161 788 153 m 752 138 q 762 127 759 138 q 768 119 768 123 q 758 105 768 115 l 761 102 q 772 106 762 102 q 780 98 780 104 l 780 97 q 758 75 780 81 l 753 75 q 726 101 737 75 q 725 107 725 105 q 750 138 725 127 l 752 138 m 980 138 l 987 138 q 1008 126 1008 133 q 1014 115 1014 121 l 1014 113 q 1003 100 1012 100 q 983 117 992 100 l 980 119 l 976 119 q 985 96 976 116 q 990 77 990 79 q 968 56 990 66 l 966 56 q 939 73 950 56 q 937 79 937 77 q 949 96 940 96 q 956 90 952 96 l 963 86 q 969 91 966 87 q 956 113 956 105 l 956 118 q 980 138 956 130 m 861 115 q 922 90 909 115 q 924 81 924 85 l 924 79 q 882 50 924 58 q 862 48 875 48 l 858 48 q 838 50 838 48 q 837 50 837 50 q 798 62 819 50 q 790 82 790 71 q 812 109 790 100 q 861 115 837 115 m 813 87 q 817 83 815 83 q 863 90 838 90 q 897 85 879 90 q 901 87 900 87 l 901 90 q 857 99 897 97 q 813 87 813 96 m 696 94 l 699 94 q 740 70 705 94 q 745 58 745 64 l 745 56 q 728 33 734 33 q 683 65 701 41 l 682 71 q 696 94 682 79 z "},"\"":{"ha":1042,"x_min":27,"x_max":1004,"o":"m 496 971 l 536 971 q 848 842 696 971 q 1004 484 1004 687 q 952 281 1004 364 q 690 33 874 107 q 503 0 610 0 l 503 2 q 500 0 500 2 l 490 2 l 488 2 q 202 115 347 2 q 87 262 106 207 q 33 404 33 361 q 27 465 27 446 q 29 467 27 467 l 27 477 l 27 488 q 212 867 27 711 q 496 971 353 971 m 456 921 l 454 917 l 454 911 q 509 898 503 898 l 511 903 l 511 907 q 456 921 511 913 m 621 892 q 623 886 623 888 l 627 886 q 675 911 675 905 l 675 913 q 669 919 675 916 q 621 892 621 895 m 365 905 l 365 898 q 371 850 365 850 l 373 850 q 377 854 377 850 l 377 888 l 375 909 l 369 909 q 365 905 365 908 m 530 850 q 577 821 568 821 q 581 825 581 821 l 581 827 q 538 859 581 830 q 530 850 532 857 m 267 854 l 267 817 q 264 815 267 815 l 267 810 l 264 806 q 271 796 267 796 l 273 796 q 279 804 276 796 q 277 833 277 822 l 277 846 q 279 848 277 848 q 277 854 277 852 l 267 854 m 717 840 l 717 833 q 759 806 720 833 l 763 806 q 767 810 767 806 q 725 844 764 819 l 721 844 q 717 840 717 844 m 396 806 l 396 804 q 400 800 397 800 q 454 808 454 800 l 454 810 q 450 815 454 815 q 396 806 396 814 m 792 800 q 838 775 800 794 l 842 775 q 846 779 846 775 l 846 786 q 800 808 842 786 q 792 800 794 807 m 613 759 l 613 750 l 621 750 q 661 786 660 781 q 654 792 661 789 l 652 792 q 613 759 637 781 m 313 790 l 311 786 l 311 781 q 352 752 313 777 l 357 752 q 361 756 361 752 l 361 763 q 313 790 319 790 m 173 732 l 177 730 l 181 730 q 215 769 191 739 l 215 771 q 208 777 215 774 q 173 732 173 743 m 759 736 l 754 730 l 761 677 l 771 677 q 773 682 771 682 q 763 734 767 734 l 759 736 m 492 684 l 492 682 l 500 682 q 525 730 525 720 q 521 734 525 734 l 519 734 q 492 684 495 701 m 246 707 l 246 701 q 300 684 246 693 l 302 688 l 302 690 q 252 709 302 694 q 246 707 248 707 m 871 667 l 871 663 q 876 659 872 659 l 882 659 l 911 703 q 909 709 909 707 q 876 671 897 709 q 871 667 871 671 m 613 673 q 623 663 615 664 l 667 688 l 667 692 q 661 696 667 696 q 613 673 615 673 m 390 637 q 392 631 392 633 l 398 631 q 417 682 404 631 q 415 688 415 686 l 410 688 q 390 637 405 688 m 109 667 q 106 661 109 665 q 130 612 123 615 l 136 612 l 136 615 q 115 667 136 631 l 109 667 m 371 484 q 473 346 371 387 q 515 340 495 340 q 654 446 615 340 q 659 473 659 465 l 659 486 q 573 615 659 571 q 513 627 543 627 q 377 525 420 627 l 371 484 m 819 621 l 819 615 q 867 592 866 594 q 873 594 871 594 l 873 600 q 823 625 833 625 q 819 621 819 625 m 319 612 l 315 606 q 336 556 330 556 l 342 556 q 344 561 342 561 q 319 612 327 612 m 671 556 l 675 554 l 682 554 l 698 604 q 692 610 698 608 q 671 556 685 610 m 215 604 l 215 600 q 246 559 233 573 l 248 559 q 254 565 251 559 q 221 608 229 603 l 219 608 q 215 604 215 608 m 936 602 l 936 561 l 938 550 l 944 550 q 948 554 948 550 l 948 604 q 944 608 948 608 l 942 608 q 936 602 939 608 m 773 538 l 773 536 q 777 532 774 532 q 831 544 831 537 l 831 546 q 825 550 831 550 q 773 538 773 545 m 106 500 l 113 496 q 144 542 119 496 l 144 544 q 140 548 144 548 l 138 548 q 106 500 127 541 m 940 496 q 959 446 952 446 q 965 448 963 448 q 950 503 965 455 l 944 503 q 940 496 940 503 m 237 484 l 237 481 q 281 450 239 477 l 290 456 q 246 488 290 462 l 242 488 q 237 484 237 487 m 177 452 l 177 404 q 181 400 178 400 l 188 400 l 190 410 l 190 452 q 183 458 190 455 q 177 452 180 458 m 831 454 q 800 415 831 450 l 800 410 q 804 406 801 406 l 808 406 q 842 446 810 406 l 842 450 q 838 454 842 454 l 831 454 m 690 423 q 698 417 690 417 q 746 441 746 436 q 740 448 746 445 q 690 423 690 428 m 66 359 l 71 356 l 77 356 q 106 396 77 359 l 106 400 q 102 404 106 404 l 98 404 q 66 359 66 368 m 721 332 l 719 332 q 692 340 713 332 l 686 340 q 590 244 648 340 q 554 212 568 212 l 550 212 q 513 260 536 212 q 477 281 498 281 q 404 233 459 281 l 390 231 q 342 283 371 234 l 334 288 q 286 225 323 283 q 254 206 267 206 q 200 283 228 206 q 171 317 183 317 q 115 288 131 288 l 106 288 l 106 286 q 357 58 189 121 q 471 29 386 44 q 473 31 473 29 l 488 29 l 519 29 q 890 223 739 29 q 934 309 924 279 l 917 309 q 863 304 865 304 q 792 365 827 304 q 769 379 778 379 q 738 340 759 379 q 721 332 729 332 m 313 369 q 361 344 313 362 q 369 350 369 347 q 319 373 365 359 l 317 373 q 313 369 313 372 m 882 346 l 882 344 q 886 340 882 340 q 940 350 940 343 l 940 352 q 936 356 940 356 q 882 346 882 353 z "},"#":{"ha":1040,"x_min":27,"x_max":1002,"o":"m 509 975 l 511 975 q 937 734 779 975 l 968 667 q 1002 492 1002 580 l 1002 486 q 783 81 1002 237 q 511 0 658 0 q 154 160 310 0 q 27 492 27 304 q 193 854 27 697 q 509 975 336 975 m 46 488 q 197 143 46 293 q 513 19 342 19 q 898 216 741 19 q 983 486 983 347 q 779 875 983 722 q 517 956 654 956 q 125 748 277 956 q 46 488 46 620 m 522 910 q 530 900 526 909 q 522 889 526 890 l 515 889 q 509 896 513 889 l 509 904 q 522 910 511 910 m 366 902 l 372 902 q 378 896 375 902 l 378 889 q 368 881 374 881 q 357 891 362 881 q 366 902 361 901 m 428 887 l 435 887 q 443 873 443 884 l 435 867 q 422 873 424 867 l 422 875 q 428 887 423 887 m 580 877 l 588 877 q 594 871 591 877 l 594 865 q 584 856 590 856 q 576 863 576 859 l 576 873 q 580 877 576 877 m 468 869 l 476 869 q 482 863 479 869 l 482 856 q 472 848 478 848 q 461 860 461 852 q 468 869 465 869 m 690 867 l 694 867 q 703 858 697 867 l 703 854 q 694 846 703 851 l 690 846 q 682 854 687 846 l 682 858 q 690 867 682 861 m 337 863 l 345 863 q 351 852 350 863 q 339 842 348 842 q 330 848 330 845 l 330 856 q 337 863 330 859 m 650 863 q 663 856 663 861 l 663 848 q 650 842 661 842 q 642 852 646 842 q 650 863 646 861 m 275 854 l 279 854 q 287 846 282 854 l 287 840 q 275 833 285 833 q 266 842 271 833 l 266 846 q 275 854 266 849 m 576 836 l 582 836 q 590 825 586 834 q 578 814 587 814 q 570 821 570 818 l 570 829 q 576 836 570 832 m 748 825 l 754 817 l 754 810 q 748 804 754 808 l 742 804 q 734 814 734 808 q 748 825 737 825 m 395 810 q 406 802 404 806 l 406 795 q 399 789 406 793 l 391 789 q 385 802 385 791 q 395 810 385 806 m 526 810 l 534 810 q 541 798 541 808 q 530 789 539 793 q 519 798 521 793 q 526 810 521 810 m 796 806 l 804 806 q 810 800 807 806 l 810 793 q 802 785 810 791 q 789 798 789 788 q 796 806 793 806 m 646 795 q 656 781 656 793 q 650 775 656 779 l 642 775 q 636 781 640 775 l 636 787 q 646 795 637 792 m 229 785 l 235 785 q 243 775 243 781 q 235 765 239 766 l 231 765 q 222 773 227 765 l 222 779 q 229 785 222 782 m 306 777 l 314 777 q 320 771 317 777 l 320 765 q 310 756 319 760 q 299 765 300 760 q 306 777 300 777 m 597 771 l 605 771 q 611 765 608 771 l 611 758 q 605 752 611 755 l 597 752 q 590 762 592 752 q 597 771 593 771 m 480 762 q 490 752 486 762 q 482 742 486 743 l 476 742 q 470 748 473 742 l 470 756 q 480 762 470 760 m 769 758 q 779 744 779 755 l 771 738 l 765 738 q 759 744 762 738 l 759 750 q 769 758 760 754 m 675 742 l 684 742 q 690 736 687 742 l 690 727 q 682 721 690 724 q 671 727 671 724 l 671 738 q 675 742 672 742 m 197 723 l 206 723 q 212 717 209 723 l 212 711 q 203 703 212 707 l 199 703 q 191 713 195 703 q 197 723 194 723 m 451 723 q 461 717 461 720 l 461 709 q 455 703 461 705 l 447 703 q 441 713 442 703 q 451 723 441 718 m 817 723 l 819 723 q 831 717 831 722 l 831 711 q 821 703 830 707 q 810 711 811 707 q 817 723 812 723 m 538 721 l 545 721 q 551 715 547 721 l 551 707 q 541 701 551 702 q 530 709 531 704 l 530 713 q 538 721 530 716 m 304 719 l 310 719 q 318 709 314 718 q 310 698 314 699 q 297 705 299 698 l 297 713 q 304 719 297 715 m 397 713 q 408 698 408 710 q 401 692 408 695 l 393 692 q 387 698 390 692 l 387 705 q 397 713 387 709 m 266 707 l 273 707 q 279 701 275 707 l 279 692 q 268 686 279 687 q 260 692 260 689 l 260 701 q 266 707 260 703 m 865 696 l 871 696 q 877 690 873 696 l 877 682 q 865 675 875 675 l 859 684 l 859 690 q 865 696 859 693 m 603 694 q 613 688 613 691 l 613 680 q 607 673 613 677 l 601 673 q 594 680 597 673 l 594 686 q 603 694 594 689 m 723 692 l 728 692 q 736 684 730 692 l 736 680 q 728 671 736 676 l 723 671 q 715 680 720 671 l 715 684 q 723 692 715 687 m 667 675 l 671 675 q 680 667 675 675 l 680 661 q 673 654 680 658 l 667 654 q 659 665 663 655 q 667 675 663 674 m 295 663 l 301 663 q 308 656 304 663 l 308 648 q 295 642 306 642 q 287 652 291 643 q 295 663 291 662 m 366 661 l 370 661 q 378 652 373 661 l 378 648 q 370 640 378 645 q 357 646 359 640 l 357 652 q 366 661 357 656 m 187 656 q 197 646 193 656 q 191 636 195 636 l 183 636 q 177 642 180 636 l 177 650 q 187 656 177 655 m 777 654 q 787 642 787 651 q 781 634 785 634 l 773 634 q 767 640 770 634 l 767 646 q 777 654 768 650 m 505 652 l 526 652 q 663 563 607 652 q 680 492 680 528 l 680 478 q 588 338 680 394 q 513 322 552 322 q 355 443 401 322 q 349 486 349 465 q 461 644 349 597 q 505 652 486 652 m 368 488 q 474 347 368 389 q 515 340 489 343 q 652 436 606 340 q 661 488 661 466 l 661 492 q 559 627 661 584 q 513 634 533 634 l 511 634 q 380 547 428 634 q 368 488 370 520 m 715 629 q 728 623 728 628 l 728 617 q 719 609 728 614 l 715 609 q 707 623 707 612 l 715 629 m 821 627 l 829 627 q 836 621 832 627 l 836 615 q 829 609 836 612 l 823 609 q 814 619 819 610 q 821 627 818 627 m 231 615 l 237 615 q 243 609 240 615 l 243 600 q 233 594 243 595 q 222 605 227 594 q 231 615 227 614 m 312 615 q 322 607 321 611 q 312 592 322 595 q 301 607 301 595 q 312 615 302 611 m 133 596 l 142 596 q 148 590 144 596 l 148 584 q 142 578 148 581 l 133 578 q 127 588 128 578 q 133 596 130 596 m 904 596 l 912 596 q 918 590 916 596 l 918 584 q 908 576 918 580 q 898 588 898 579 q 904 596 901 596 m 308 565 l 316 565 q 322 553 322 563 q 312 545 321 549 q 301 553 302 549 l 301 559 q 308 565 301 562 m 806 559 l 814 559 q 821 549 819 559 q 814 541 818 541 l 806 541 q 800 547 804 541 l 800 553 q 806 559 800 555 m 237 555 l 243 547 l 243 541 q 237 534 243 537 l 231 534 q 222 545 227 535 q 237 555 225 555 m 748 541 q 756 530 753 539 q 748 519 753 520 l 742 519 q 736 526 739 519 l 736 534 q 748 541 738 541 m 894 530 l 902 530 q 908 524 905 530 l 908 517 q 902 511 908 515 l 894 511 q 887 517 890 511 l 887 524 q 894 530 887 527 m 127 528 l 133 528 q 139 522 136 528 l 139 513 q 133 507 139 510 l 127 507 q 121 513 124 507 l 121 522 q 127 528 121 524 m 168 526 l 177 526 q 183 519 180 526 l 183 513 q 172 505 178 505 q 162 513 163 509 q 168 526 163 526 m 291 500 q 301 490 296 500 q 293 480 298 481 l 287 480 q 279 490 283 481 q 291 500 282 500 m 831 492 l 840 492 q 846 486 842 492 l 846 478 q 842 474 846 474 l 831 474 q 825 480 828 474 q 831 492 826 492 m 199 480 q 212 474 212 479 l 212 465 q 199 459 210 459 q 191 474 191 463 l 199 480 m 728 469 q 740 463 740 469 l 740 455 q 728 449 738 449 q 719 457 724 449 l 719 461 q 728 469 719 465 m 814 461 q 823 455 823 458 l 823 445 q 819 441 823 441 l 810 441 q 804 447 808 441 l 804 455 q 814 461 804 458 m 106 459 q 117 445 117 456 l 108 438 l 102 438 q 96 445 99 438 l 96 453 q 106 459 96 456 m 916 455 q 925 443 925 444 q 918 434 922 434 l 910 434 q 904 441 907 434 l 904 447 q 916 455 908 455 m 252 434 l 260 434 q 266 428 263 434 l 266 422 q 256 414 265 418 q 245 426 245 417 q 252 434 248 434 m 154 418 l 160 410 l 160 403 q 154 397 160 400 l 146 397 q 139 410 139 399 q 154 418 142 418 m 848 414 q 859 405 857 410 l 859 399 q 852 393 859 396 l 844 393 q 838 399 841 393 l 838 405 q 848 414 838 410 m 736 412 q 748 405 748 410 l 748 397 q 742 391 748 394 l 734 391 q 730 395 730 391 l 730 405 q 736 412 730 408 m 133 374 l 139 374 q 148 363 144 373 q 139 353 144 354 q 127 359 129 353 l 127 368 q 133 374 127 371 m 921 374 q 931 366 930 370 l 931 359 q 925 353 931 357 l 916 353 q 910 363 911 353 q 921 374 910 369 m 310 357 l 318 357 q 326 347 322 357 q 320 338 323 338 l 312 338 q 306 345 309 338 l 306 353 q 310 357 307 357 m 214 345 l 220 345 q 229 336 224 345 l 229 332 q 214 324 225 324 l 208 332 l 208 338 q 214 345 208 342 m 366 334 l 372 334 q 378 328 375 334 l 378 320 q 368 314 378 315 q 359 320 359 317 l 359 328 q 366 334 359 332 m 796 334 l 804 334 q 810 322 810 332 q 800 314 810 318 q 789 322 791 318 l 789 328 q 796 334 789 332 m 873 326 l 879 326 q 885 320 882 326 l 885 312 q 875 305 885 307 q 865 316 869 305 q 873 326 869 326 m 701 320 l 709 320 q 715 310 713 320 q 705 299 715 304 q 694 305 694 302 l 694 314 q 701 320 694 317 m 127 310 l 131 310 q 139 301 134 310 l 139 297 q 131 289 139 294 l 125 289 q 119 301 119 291 q 127 310 119 304 m 634 305 l 640 305 q 646 299 643 305 l 646 293 q 638 285 646 290 l 634 285 q 625 293 631 285 l 625 297 q 634 305 625 300 m 170 287 q 181 274 181 283 q 175 266 178 266 l 166 266 q 160 272 163 266 l 160 279 q 170 287 161 283 m 424 285 l 430 277 l 430 268 q 426 264 430 264 l 418 264 q 410 272 414 264 q 424 285 410 285 m 875 279 l 881 279 q 887 272 884 279 l 887 264 q 881 258 887 261 q 869 264 870 258 l 869 272 q 875 279 869 275 m 314 268 q 328 258 326 268 q 320 248 324 248 l 314 248 q 308 254 311 248 l 308 262 q 314 268 308 264 m 566 268 q 576 258 571 268 q 568 248 572 248 l 561 248 q 555 254 558 248 l 555 262 q 566 268 555 267 m 256 264 l 262 264 q 268 258 265 264 l 268 250 q 264 245 268 245 l 254 245 q 248 254 250 245 q 256 264 252 263 m 694 252 q 705 243 704 248 l 705 237 q 699 231 705 234 l 690 231 q 684 241 686 231 q 694 252 684 247 m 817 252 l 821 252 q 829 243 824 252 q 823 231 829 233 l 817 231 q 808 239 814 231 l 808 243 q 817 252 808 246 m 191 241 l 195 241 q 203 233 199 241 l 203 229 q 195 220 203 225 l 191 220 q 183 229 188 220 l 183 233 q 191 241 183 236 m 775 241 q 785 235 785 238 l 785 227 q 779 220 785 224 l 773 220 q 765 231 769 221 q 775 241 765 236 m 615 239 q 625 227 625 235 q 619 218 623 218 l 611 218 q 605 224 608 218 l 605 231 q 615 239 606 235 m 332 233 q 343 224 342 229 l 343 218 q 337 212 343 215 l 328 212 q 322 222 323 212 q 332 233 322 228 m 449 224 q 461 218 461 223 l 461 210 q 449 203 459 203 q 441 214 441 208 q 449 224 445 224 m 515 214 l 522 214 q 530 201 530 210 l 522 195 l 515 195 q 509 201 513 195 l 509 208 q 515 214 509 211 m 669 201 l 673 201 q 682 193 677 201 l 682 189 q 673 181 682 186 l 669 181 q 661 189 666 181 l 661 193 q 669 201 661 197 m 382 189 l 387 189 q 395 181 390 189 l 395 176 q 387 168 395 174 l 382 168 q 374 176 379 168 l 374 181 q 382 189 374 184 m 256 187 l 262 187 q 268 181 265 187 l 268 172 q 256 166 266 166 q 248 176 252 167 q 256 187 252 186 m 765 181 q 775 168 775 178 q 769 160 772 160 l 761 160 q 754 166 758 160 l 754 172 q 765 181 755 177 m 465 172 l 472 172 q 478 166 475 172 l 478 160 q 468 152 474 152 q 457 166 457 155 l 465 172 m 690 164 l 696 164 q 703 158 699 164 l 703 150 q 690 143 701 143 q 682 154 686 144 q 690 164 686 163 m 574 156 l 578 156 q 586 148 581 156 l 586 143 q 578 135 586 140 l 574 135 q 566 143 570 135 l 566 148 q 574 156 566 151 m 306 150 l 312 150 q 320 141 315 150 l 320 137 q 312 129 320 134 q 299 135 301 129 l 299 143 q 306 150 299 146 m 625 133 l 634 133 q 640 123 639 133 q 634 115 637 115 l 625 115 q 619 121 623 115 l 619 127 q 625 133 619 130 m 406 125 q 416 112 416 121 q 410 104 412 104 l 401 104 q 395 110 398 104 l 395 117 q 406 125 396 121 m 441 125 q 451 117 450 121 l 451 110 q 445 104 451 107 l 437 104 q 430 115 432 104 q 441 125 430 120 m 499 115 l 505 115 q 513 104 509 113 q 505 94 509 94 q 492 100 494 94 l 492 108 q 499 115 492 111 m 547 79 l 555 79 q 559 75 559 78 l 559 64 q 549 58 559 60 q 541 64 541 61 l 541 73 q 547 79 541 76 z "},"$":{"ha":1048,"x_min":34,"x_max":1008,"o":"m 516 975 l 526 975 q 928 758 766 975 q 1008 488 1008 627 q 850 129 1008 282 q 516 0 705 0 q 155 164 315 0 q 34 482 34 312 l 34 492 q 241 887 34 730 q 516 975 369 975 m 508 949 l 506 949 q 237 838 379 949 q 177 752 193 793 q 109 659 177 749 q 65 482 65 599 q 146 241 65 314 q 333 81 256 114 q 532 35 454 35 l 551 35 q 757 96 589 35 q 857 179 788 113 q 963 351 959 298 q 971 418 971 372 q 965 490 971 431 q 977 572 977 555 l 977 578 q 940 661 977 604 q 838 829 880 793 q 705 896 789 878 q 559 945 623 920 q 522 949 539 949 l 514 949 q 512 951 512 949 l 508 949 m 514 937 q 630 904 559 937 q 813 831 795 861 q 899 713 885 764 q 958 600 929 651 q 965 574 965 586 q 948 494 954 494 l 946 494 q 940 505 946 505 l 938 505 q 934 500 934 505 q 954 445 941 461 q 956 438 956 445 l 956 414 q 886 237 956 315 q 867 281 883 237 q 865 283 865 281 l 857 277 q 878 227 871 235 q 743 106 780 114 q 541 47 589 47 q 317 102 453 47 l 317 106 l 319 106 q 364 102 353 102 l 366 106 l 366 108 q 313 119 366 114 q 311 108 311 115 l 308 108 q 237 166 277 130 l 237 168 q 254 220 247 185 q 250 224 250 220 q 231 176 240 224 l 227 176 q 149 260 160 241 l 149 262 l 167 262 l 188 260 q 192 266 192 265 q 186 272 192 269 q 134 274 146 274 q 94 363 94 329 q 125 401 97 363 l 125 405 q 121 410 125 410 l 119 410 q 94 378 94 387 l 88 378 q 79 459 79 433 l 79 500 q 130 663 79 604 l 132 663 q 153 613 134 645 l 155 613 q 159 617 159 613 l 159 619 q 134 669 144 669 l 188 742 q 250 831 201 781 q 514 937 389 937 m 462 910 l 462 904 q 516 891 479 891 q 518 894 516 894 q 466 910 518 904 l 462 910 m 374 896 l 377 871 l 377 854 q 383 842 378 842 l 389 846 l 387 871 l 387 894 q 381 900 387 897 q 374 896 376 896 m 610 858 l 616 854 q 663 879 619 854 l 657 887 q 610 858 610 866 m 528 854 l 528 848 q 574 819 563 819 l 576 819 q 578 823 576 823 q 536 854 578 828 l 528 854 m 279 836 l 279 795 q 286 789 279 793 q 292 795 288 789 l 292 842 l 288 848 q 279 836 279 846 m 686 812 q 728 781 686 809 l 732 781 q 736 785 736 781 l 736 787 q 694 819 734 793 l 692 819 q 686 812 690 819 m 406 800 l 406 798 q 412 793 406 793 q 462 798 437 793 l 462 804 l 460 808 q 406 800 406 806 m 792 800 l 790 795 q 840 769 790 788 l 842 773 l 842 777 q 792 800 808 800 m 325 783 l 323 779 l 323 775 q 368 746 363 746 l 372 752 q 325 783 337 783 m 566 750 l 566 746 q 570 742 566 742 q 612 777 597 760 q 610 783 610 781 l 604 783 q 566 750 573 760 m 479 721 l 485 717 q 512 765 493 717 q 508 769 512 769 l 506 769 q 479 721 498 764 m 770 738 q 782 686 774 686 q 788 692 783 686 l 780 742 l 774 742 q 770 738 770 741 m 202 694 l 202 690 q 206 686 203 686 q 241 725 212 686 l 241 729 q 237 734 241 734 l 235 734 q 202 694 214 711 m 632 709 l 632 707 q 639 703 632 703 q 684 725 649 703 l 684 732 q 680 734 680 732 q 632 709 632 712 m 360 663 l 364 661 l 370 661 q 385 713 385 704 l 381 715 l 379 715 q 360 663 372 715 m 260 703 l 260 696 q 313 680 269 688 q 317 684 313 684 q 267 705 317 692 q 260 703 262 703 m 341 586 l 339 586 q 319 629 323 629 q 313 623 315 629 q 337 574 329 574 q 311 474 313 492 q 325 395 311 434 q 288 410 320 395 q 281 408 283 408 l 281 399 q 339 378 324 380 q 397 324 386 324 l 397 318 q 391 314 391 318 l 391 268 q 397 262 391 265 l 401 262 l 404 272 l 404 314 l 401 318 l 404 318 q 516 277 467 277 l 524 277 q 711 399 649 277 q 736 507 736 454 q 696 605 736 567 l 696 607 q 715 654 704 622 q 713 661 713 659 l 705 661 q 690 617 690 622 l 684 617 q 583 690 658 664 l 541 696 q 372 627 466 696 l 341 586 m 861 656 l 861 652 q 865 648 861 648 l 869 648 q 899 688 899 686 l 899 692 q 894 696 899 696 l 892 696 q 861 656 885 690 m 541 682 l 545 682 q 647 642 588 682 q 720 538 720 562 q 722 519 722 530 l 722 500 q 651 338 722 409 q 516 289 596 289 q 346 391 437 289 q 325 478 325 412 q 393 627 349 596 q 541 682 477 682 m 362 484 q 470 336 362 385 q 522 328 494 330 q 663 416 608 328 q 680 486 680 462 q 562 642 680 596 q 516 646 534 646 q 370 541 418 646 q 362 484 362 516 m 809 619 l 809 613 q 854 590 809 608 l 857 590 q 861 594 861 590 l 861 596 q 815 621 859 600 q 809 619 811 619 m 229 600 q 260 559 234 592 l 262 559 q 267 563 267 559 q 237 607 267 574 l 233 607 q 229 600 229 607 m 932 607 l 932 551 l 938 551 q 942 555 942 551 l 942 603 q 938 607 942 607 l 932 607 m 153 538 q 159 530 155 530 q 192 570 164 530 l 192 574 q 188 578 192 578 l 186 578 q 153 538 183 578 m 772 538 q 774 532 774 534 q 827 545 827 538 l 827 547 q 823 551 827 551 q 772 538 772 546 m 92 472 l 96 469 l 102 469 q 117 522 117 513 l 113 524 l 111 524 q 92 472 104 524 m 252 486 l 252 484 q 294 455 254 479 l 298 455 q 302 459 302 455 l 302 461 q 256 490 266 490 q 252 486 252 490 m 749 467 l 749 463 q 755 459 749 459 q 801 478 785 474 l 801 488 l 794 488 q 749 467 749 471 m 880 482 l 848 443 l 848 436 l 857 434 l 888 474 l 888 480 l 880 482 m 194 457 l 194 410 q 198 405 195 405 l 204 405 l 206 416 l 206 455 q 200 461 206 458 l 198 461 q 194 457 194 460 m 782 414 l 782 408 q 799 359 793 359 l 805 359 q 807 363 805 363 q 788 414 793 414 l 782 414 m 720 372 l 720 343 q 726 320 720 320 l 728 320 q 732 324 732 320 l 732 366 l 730 376 l 724 376 q 720 372 720 376 m 878 357 l 878 347 l 880 347 q 934 355 934 349 l 934 357 q 930 363 930 363 q 878 357 924 362 m 177 355 l 177 349 q 182 345 178 345 l 198 345 q 227 343 210 345 q 233 345 231 345 l 233 351 q 227 355 233 355 q 184 357 215 355 q 177 355 180 355 m 747 287 q 796 272 754 281 l 799 272 q 803 277 803 272 l 803 279 q 755 295 803 282 q 747 287 748 293 m 290 293 l 288 289 l 288 287 q 337 277 288 283 q 344 279 341 279 l 344 285 q 290 293 337 293 m 618 229 l 622 227 l 626 227 q 637 281 632 227 l 632 283 l 630 283 q 618 229 625 283 m 444 208 l 450 203 q 487 241 484 233 l 487 243 q 481 248 487 248 q 444 208 444 218 m 678 212 q 684 205 678 209 l 732 227 l 732 231 q 728 235 732 235 l 726 235 q 678 212 679 219 m 530 183 l 534 181 l 536 181 q 566 224 544 185 q 564 231 564 229 l 557 231 q 530 183 530 194 m 337 214 q 335 208 337 212 q 362 162 355 164 q 368 168 364 162 l 346 214 l 337 214 m 763 197 l 763 193 q 784 145 779 145 l 790 145 q 792 150 790 150 l 774 197 l 763 197 m 576 154 q 626 137 576 147 l 628 137 q 632 141 632 137 l 632 143 q 585 160 630 148 q 576 154 576 157 m 416 141 q 414 137 416 137 q 468 119 414 129 l 470 123 l 470 125 q 420 141 470 131 l 416 141 m 657 108 l 657 102 q 661 100 661 102 l 713 106 l 713 112 q 709 117 713 117 q 657 108 657 113 m 516 75 l 516 71 q 520 66 517 66 l 522 66 q 559 104 559 102 q 557 110 557 108 l 551 110 q 516 75 549 110 z "},"%":{"ha":996,"x_min":27,"x_max":971,"o":"m 492 971 l 509 971 q 914 722 752 971 q 971 479 971 600 q 776 91 971 249 q 509 0 650 0 l 489 0 q 104 216 260 0 q 27 472 27 348 q 297 924 27 775 q 492 971 391 971 m 101 516 q 138 452 101 492 q 145 418 138 449 q 142 344 142 368 q 270 239 142 290 q 435 118 368 118 l 452 118 q 553 162 498 118 q 593 176 578 176 q 678 169 662 169 q 769 280 746 169 q 843 340 793 309 q 863 388 863 366 l 863 398 q 857 462 857 455 l 857 475 q 880 547 880 533 l 880 549 q 833 627 880 578 q 800 739 833 739 q 728 772 746 760 q 685 857 696 844 q 621 877 648 877 l 533 860 l 523 860 q 412 901 514 860 l 398 901 q 297 816 345 901 q 179 739 265 778 q 135 624 135 715 q 101 543 135 602 l 101 516 m 462 870 l 469 870 q 475 863 475 869 q 462 809 473 809 q 452 819 457 809 l 452 826 q 462 870 452 870 m 371 840 q 378 819 378 829 q 351 809 376 809 q 344 819 344 818 l 344 826 q 371 840 344 836 m 600 840 q 648 819 648 826 l 648 812 q 641 806 648 806 q 590 829 590 819 l 590 833 q 600 840 590 840 m 570 789 l 580 789 q 590 769 590 786 q 564 759 576 759 q 557 779 557 770 l 570 789 m 280 779 l 297 769 q 287 745 294 745 l 277 745 q 267 759 269 745 q 280 779 267 779 m 675 772 l 678 772 q 708 725 708 746 q 701 718 708 718 l 698 718 q 668 759 695 718 l 668 766 q 675 772 669 772 m 516 739 l 519 732 l 519 728 q 462 711 519 716 l 458 718 l 458 725 q 516 739 458 733 m 391 732 q 398 711 398 721 q 381 698 398 707 l 378 698 q 364 711 372 698 l 364 715 q 391 732 373 732 m 776 718 q 786 708 781 718 q 755 661 763 661 q 745 671 751 661 l 745 674 q 776 718 767 715 m 695 701 l 698 701 q 711 688 703 701 q 695 668 707 674 l 692 668 q 678 681 686 668 l 678 684 q 695 701 678 689 m 509 698 q 607 671 565 671 l 644 621 q 668 576 668 606 q 661 547 668 572 q 678 472 678 481 q 624 418 678 450 q 580 354 610 368 l 576 354 q 533 364 538 364 q 446 340 460 340 q 385 395 435 340 q 344 469 344 395 q 321 513 321 496 q 351 573 321 541 l 351 607 q 462 674 351 661 q 509 698 462 686 m 189 671 l 206 671 q 216 661 211 671 l 216 654 q 206 644 216 649 l 189 644 q 182 651 182 644 l 182 665 q 189 671 183 671 m 324 651 l 328 644 l 328 641 q 277 607 296 607 l 273 614 l 273 617 q 324 651 305 651 m 391 526 q 499 412 404 412 q 607 503 580 412 l 607 516 q 499 627 607 610 l 496 627 q 391 533 418 627 l 391 526 m 789 621 q 803 610 803 615 q 786 587 803 587 q 772 597 772 592 l 772 607 q 789 621 779 621 m 698 617 q 752 597 752 607 l 752 593 q 745 587 752 587 l 742 587 q 692 607 716 587 l 692 610 q 698 617 692 617 m 233 597 l 236 590 l 236 587 q 179 573 236 573 l 176 580 l 176 583 q 233 597 176 597 m 833 566 l 843 566 q 853 556 848 566 q 840 533 853 538 q 823 547 825 539 q 833 566 826 566 m 132 563 q 176 530 154 551 l 176 523 q 169 516 176 516 l 165 516 q 125 549 136 534 l 125 556 q 132 563 126 563 m 685 543 l 701 543 q 711 533 707 543 q 701 516 707 516 l 685 516 q 678 523 678 516 l 678 536 q 685 543 679 543 m 290 506 l 294 506 q 300 499 300 505 l 300 452 q 294 445 300 445 l 290 445 q 280 499 280 445 l 290 506 m 222 503 l 229 503 q 239 482 239 499 l 239 479 q 229 469 239 474 l 219 469 q 212 475 212 469 l 212 492 q 222 503 212 497 m 796 489 l 800 489 q 813 431 808 489 l 806 428 l 803 428 q 786 482 791 428 l 796 489 m 196 438 q 236 408 205 436 l 236 401 q 229 395 236 395 l 226 395 q 186 428 199 409 l 186 431 q 196 438 186 438 m 701 431 l 708 431 q 715 425 715 431 l 715 422 q 675 385 715 416 q 665 395 670 385 l 665 398 q 701 431 669 408 m 361 391 l 368 391 q 374 385 374 390 q 361 330 369 330 l 354 330 q 347 337 347 330 q 361 391 352 391 m 793 388 q 803 361 803 386 q 783 354 791 354 q 772 381 772 356 q 793 388 783 388 m 226 374 l 229 374 q 236 368 236 373 q 226 313 236 313 l 219 313 q 212 320 212 313 q 226 374 217 374 m 634 330 q 644 320 639 330 q 614 273 623 276 l 610 273 q 604 280 604 273 q 634 330 604 302 m 904 323 q 718 121 863 213 q 499 67 614 67 q 138 246 281 67 q 132 260 132 254 l 128 260 l 128 256 q 219 159 153 195 q 287 84 249 84 q 324 87 294 84 q 401 41 349 87 l 415 41 q 489 58 478 58 l 597 34 q 678 84 626 34 q 769 118 769 94 q 810 179 773 118 q 907 320 886 235 l 907 323 l 904 323 m 311 317 q 317 297 317 303 l 304 287 l 294 287 q 283 307 283 290 q 311 317 298 317 m 509 307 q 519 297 514 307 l 519 287 q 492 277 517 277 q 486 297 486 288 q 509 307 498 307 m 388 267 l 398 253 l 398 246 q 385 233 398 241 l 374 233 q 364 253 364 236 q 388 267 380 267 m 701 267 q 718 250 718 260 q 701 229 713 235 q 685 246 685 237 q 701 267 689 260 m 557 216 l 560 216 q 576 199 564 216 l 576 192 q 557 182 574 182 q 543 199 543 197 l 543 202 q 557 216 543 208 m 449 195 q 455 189 455 195 l 455 185 q 429 176 453 176 l 401 176 q 395 182 395 176 l 395 185 q 449 195 395 195 z "},"&":{"ha":999,"x_min":27,"x_max":974,"o":"m 507 977 q 802 862 654 977 q 940 663 908 762 q 974 487 964 606 q 859 169 974 321 q 497 0 704 0 l 487 0 q 136 172 294 0 q 27 467 27 317 l 27 490 q 288 923 27 772 q 507 977 389 977 m 98 498 q 132 433 98 473 q 142 399 142 416 l 142 393 q 139 322 142 366 q 196 251 164 251 q 315 166 270 222 q 450 92 372 92 q 551 136 496 92 q 592 149 569 149 q 669 142 629 149 q 747 190 724 142 q 808 295 759 252 q 866 369 866 323 q 856 444 856 432 l 882 525 q 832 606 882 550 l 832 640 q 754 731 832 731 q 707 792 722 746 q 623 852 692 852 q 528 836 610 852 q 412 876 516 836 l 393 876 q 294 792 344 876 q 176 714 264 756 q 136 619 136 688 q 102 522 136 578 q 98 498 98 508 m 578 822 l 585 822 q 602 791 602 813 q 592 778 597 778 l 585 778 q 568 808 577 779 q 578 822 573 822 m 419 846 q 460 832 435 836 l 460 822 q 453 815 460 815 l 439 815 q 409 832 422 815 l 409 839 q 419 846 409 846 m 362 829 l 366 829 q 372 822 372 827 l 372 815 q 338 791 357 791 l 335 791 q 328 798 328 791 l 328 802 l 362 829 m 494 781 l 500 771 q 480 751 500 766 l 477 751 q 470 758 470 751 l 470 764 q 494 781 480 781 m 633 774 l 636 774 q 646 744 643 774 q 636 737 637 737 q 626 747 631 737 l 626 768 q 633 774 627 774 m 284 761 l 288 761 q 294 754 294 760 l 294 741 q 277 724 294 736 q 271 734 271 724 q 284 761 277 761 m 720 737 l 727 737 q 761 703 761 730 l 751 696 l 713 730 q 720 737 715 737 m 193 700 l 203 686 l 203 683 q 182 652 203 665 q 169 663 169 658 l 169 673 q 193 700 178 700 m 578 734 l 582 734 q 589 727 589 732 l 589 720 q 565 707 583 707 l 562 707 q 555 713 555 707 l 555 717 q 578 734 555 721 m 382 724 l 386 724 q 393 717 393 722 q 362 676 393 676 l 355 686 l 382 724 m 264 673 l 271 673 q 288 642 288 665 q 277 629 282 629 l 267 629 q 254 656 263 629 l 254 663 q 264 673 254 667 m 686 669 l 690 669 q 703 635 701 669 l 696 632 l 693 632 q 680 656 680 638 l 680 663 q 686 669 681 669 m 768 639 l 774 639 q 781 632 781 638 l 781 629 q 758 589 760 589 l 754 589 q 747 595 747 589 l 747 602 q 768 639 758 639 m 389 521 q 497 412 411 412 q 606 504 578 412 l 606 531 q 521 629 606 594 l 487 629 q 402 575 446 629 q 389 521 389 532 m 186 585 q 196 565 196 582 l 196 562 q 179 531 189 531 l 176 531 q 169 538 169 531 l 169 545 q 179 585 174 549 l 186 585 m 294 551 q 301 545 301 550 l 301 531 q 277 517 296 517 l 267 517 q 260 524 260 517 l 260 534 q 294 551 260 545 m 822 551 l 825 551 q 832 545 832 550 l 829 521 l 832 504 q 822 497 823 497 q 812 507 817 497 l 812 531 q 822 551 814 551 m 727 500 l 734 500 q 744 490 739 500 l 744 487 q 717 456 744 456 l 710 467 l 710 477 q 727 500 722 500 m 189 477 l 193 477 q 199 470 199 475 q 176 446 199 446 q 169 453 169 446 l 169 456 q 189 477 169 460 m 237 456 l 254 453 q 281 456 272 456 l 284 450 l 284 446 q 254 433 279 433 q 230 446 230 437 l 230 450 q 237 456 231 456 m 798 436 l 802 436 q 808 429 808 435 l 808 422 q 788 402 808 418 q 778 412 783 402 q 798 436 783 428 m 342 392 l 349 392 q 372 378 366 392 l 372 375 q 362 366 372 370 q 335 385 335 380 q 342 392 336 392 m 213 385 l 227 385 q 237 375 231 385 l 237 372 q 210 355 227 355 q 193 366 193 359 l 193 375 q 213 385 196 385 m 626 378 l 633 378 q 639 372 639 378 l 639 362 q 623 345 639 357 l 619 345 q 612 352 612 345 l 612 359 q 626 378 621 378 m 754 375 q 768 366 768 370 l 768 362 q 720 342 768 358 l 713 352 q 754 375 713 363 m 277 335 l 281 335 q 288 328 288 334 l 288 325 q 257 311 288 315 l 254 318 l 254 321 q 277 335 259 335 m 517 335 l 521 328 l 521 318 q 480 294 505 294 l 473 304 l 500 325 q 517 335 500 332 m 389 315 q 422 277 392 315 q 412 267 422 273 q 379 308 379 286 l 389 315 m 720 294 l 724 294 q 734 284 728 294 q 700 264 720 264 l 686 264 q 680 271 680 264 l 680 274 q 690 284 680 279 l 696 281 q 720 294 701 281 m 545 267 l 548 267 q 555 260 555 266 l 555 254 q 534 237 555 248 l 531 237 q 524 243 524 237 l 524 247 q 545 267 524 252 m 311 260 l 321 260 q 342 233 342 252 l 342 230 q 335 223 342 223 l 325 223 q 301 243 301 240 l 301 250 q 311 260 301 255 m 646 237 q 656 227 651 237 l 656 220 q 629 203 648 203 l 623 203 q 612 213 617 203 l 612 220 q 646 237 612 229 m 470 210 l 477 199 q 443 176 467 176 l 433 176 q 426 182 426 176 l 426 186 q 470 210 465 210 z "},"'":{"ha":1072,"x_min":27,"x_max":1034,"o":"m 376 971 l 437 971 q 932 743 713 971 q 1034 460 1034 619 q 877 117 1034 273 q 589 0 741 0 l 533 0 q 118 253 340 0 q 27 572 27 406 q 305 961 27 873 q 376 971 343 971 m 315 916 q 285 875 315 895 l 270 875 l 260 880 q 239 850 260 876 l 255 840 q 275 865 264 863 q 300 804 300 842 l 305 804 q 336 860 305 844 l 340 860 q 356 825 351 860 l 361 825 q 381 854 361 845 l 387 854 q 406 814 400 854 l 401 784 l 401 779 l 406 779 q 442 860 427 860 l 447 860 q 462 845 454 860 q 452 769 462 817 l 452 764 l 457 764 q 492 845 474 845 l 498 845 q 508 835 508 843 l 508 829 q 503 809 508 818 l 503 804 l 508 804 q 523 825 510 825 l 528 825 q 543 794 543 825 l 548 794 q 564 814 551 814 l 568 814 q 578 799 578 814 q 568 739 578 794 l 568 733 l 574 733 q 619 789 574 753 l 634 789 l 644 784 l 634 724 q 669 764 666 764 l 685 764 q 695 733 695 764 l 705 739 l 715 739 q 725 728 725 737 l 725 718 l 720 708 l 725 708 q 745 713 734 713 l 755 698 q 745 668 745 677 q 776 677 762 677 l 786 677 q 796 668 796 676 q 776 622 796 652 l 781 622 q 811 632 798 632 l 817 632 q 826 617 826 632 q 811 582 826 604 l 811 576 l 846 582 l 857 582 q 867 572 867 580 l 867 547 q 882 536 882 547 l 882 531 q 872 500 882 517 q 892 486 892 498 l 892 475 l 882 460 q 902 445 902 458 l 902 435 l 892 420 l 912 405 q 918 460 912 416 q 897 471 897 460 q 902 500 902 476 q 892 511 892 500 l 892 521 q 907 551 907 541 q 897 566 897 551 q 902 582 902 576 l 892 576 q 877 597 880 576 l 877 612 q 867 637 867 612 l 836 637 l 836 648 l 842 683 l 817 677 l 806 693 l 811 718 q 766 769 766 736 q 741 789 741 769 l 730 784 q 720 819 720 784 l 700 799 l 695 799 q 680 829 680 799 q 649 819 663 819 q 644 845 644 828 l 629 835 l 619 835 q 609 854 609 835 l 604 854 l 589 845 q 568 880 568 853 l 553 870 l 543 870 q 533 895 533 870 l 517 885 l 508 885 q 498 911 498 885 l 467 880 q 452 905 454 880 l 427 885 l 422 885 q 412 905 412 885 l 396 895 l 381 895 q 371 911 371 895 q 326 880 349 880 q 315 890 315 880 q 321 911 315 901 l 321 916 l 315 916 m 210 860 q 184 819 197 819 l 174 825 q 159 794 174 817 q 163 779 163 785 l 174 779 q 189 809 177 809 q 199 794 199 809 l 204 794 q 224 850 204 822 l 224 854 q 210 860 219 854 m 134 784 l 134 774 l 138 774 l 138 784 l 134 784 m 149 749 l 149 739 l 153 739 l 153 749 l 149 749 m 958 627 l 958 612 l 963 612 l 963 627 l 958 627 m 103 612 q 78 526 78 546 q 98 450 98 526 l 103 450 q 118 465 111 450 q 103 475 103 465 l 103 481 q 113 496 113 493 q 103 506 103 496 l 103 511 q 118 521 103 521 l 108 536 l 108 547 l 113 556 q 98 572 106 556 q 108 582 100 582 l 103 592 l 108 602 l 108 612 l 103 612 m 416 486 q 503 405 416 439 q 523 399 514 405 q 624 481 601 399 l 624 490 q 488 612 624 596 q 416 486 432 612 m 275 547 l 275 536 l 280 536 l 280 547 l 275 547 m 305 531 q 295 511 305 523 l 300 486 l 295 486 l 311 440 l 311 425 q 326 395 326 420 q 321 389 321 395 q 351 339 332 389 l 376 344 l 381 334 l 391 339 l 396 339 q 412 319 404 339 q 442 329 428 329 q 452 304 452 313 l 462 309 l 472 309 q 517 278 517 294 l 564 298 l 568 298 l 578 294 q 589 309 578 309 l 599 309 l 609 304 l 609 329 l 599 329 q 589 313 599 313 l 583 313 q 568 334 571 313 l 548 319 l 543 319 l 528 329 q 513 313 528 321 l 508 313 q 492 344 492 319 l 488 344 q 472 323 488 323 l 467 323 q 457 359 457 323 l 442 349 l 437 349 q 427 379 427 349 l 406 364 l 391 364 q 381 379 381 364 q 391 405 391 396 q 356 389 373 389 q 331 415 356 396 l 331 420 l 340 440 q 326 460 333 440 q 331 475 331 470 q 311 521 311 482 q 315 526 315 521 l 305 531 m 391 455 l 391 445 l 396 445 l 396 455 l 391 455 m 108 445 q 103 415 108 422 q 113 399 113 415 l 113 385 l 159 319 l 159 323 q 144 344 156 344 l 144 359 l 149 369 q 128 379 128 369 l 128 385 l 138 399 q 113 415 113 404 l 113 420 l 123 435 q 108 445 111 445 m 902 369 l 912 369 l 912 379 q 902 369 902 378 m 872 354 l 867 344 l 882 344 q 872 354 882 354 m 932 354 q 928 339 932 349 l 928 334 l 932 334 q 938 349 932 339 l 938 354 l 932 354 m 629 339 l 629 323 l 644 323 q 665 344 644 334 l 665 349 l 654 349 q 629 339 642 339 m 163 313 l 163 294 l 174 294 q 169 313 169 302 l 163 313 m 457 268 l 457 258 l 462 258 l 462 268 l 457 268 m 614 86 l 604 91 q 589 76 604 84 l 568 91 q 558 76 568 76 q 543 81 549 81 l 538 71 q 564 51 548 71 q 574 66 564 66 l 578 66 q 593 56 581 66 q 690 86 632 86 l 690 96 l 680 91 l 675 91 q 659 101 662 101 q 644 86 659 94 q 634 101 634 86 l 614 86 m 488 71 q 503 66 503 71 l 513 71 l 528 61 l 533 71 q 517 86 526 71 q 488 71 488 79 z "},"(":{"ha":1149,"x_min":27,"x_max":1117,"o":"m 688 968 q 1033 714 821 954 q 1117 450 1117 567 q 720 21 1117 142 q 551 0 636 5 q 59 302 191 0 q 27 460 27 386 q 260 878 27 704 q 688 968 397 968 m 488 910 l 471 921 l 435 916 l 435 910 q 456 895 456 907 l 456 889 q 445 878 456 878 l 435 878 q 392 900 406 878 q 308 868 315 880 l 313 842 l 308 842 l 286 857 l 255 836 l 260 810 q 244 793 260 802 l 239 793 l 223 804 q 186 767 215 804 q 218 741 208 760 l 218 736 q 207 725 218 725 q 170 751 202 725 q 127 683 127 696 q 138 672 138 681 q 85 587 85 642 q 117 466 114 545 q 197 376 197 427 l 197 307 q 308 259 197 259 q 414 159 394 159 l 424 159 l 525 185 l 541 185 q 635 153 621 153 q 710 217 648 153 l 736 217 q 794 206 788 206 l 805 206 q 852 296 820 206 q 969 334 886 334 l 996 439 q 1075 534 1075 505 q 901 815 1019 734 l 895 825 l 884 821 l 869 821 q 858 831 858 821 l 858 842 l 863 852 q 705 931 734 931 l 710 921 l 710 905 l 705 905 q 667 937 667 905 q 488 910 488 937 m 673 937 q 694 916 673 928 l 699 916 l 699 921 q 684 937 699 928 l 673 937 m 599 921 q 635 900 635 908 l 620 889 l 609 889 q 567 905 570 889 q 599 921 567 916 m 408 900 q 440 889 425 889 l 440 900 q 418 910 431 900 q 408 900 408 909 m 588 905 l 588 900 l 620 900 l 620 905 q 609 910 609 905 q 588 905 600 905 m 694 884 l 741 884 q 758 868 749 884 q 726 857 740 857 l 694 857 q 678 873 686 857 l 694 884 m 519 878 l 525 878 q 535 868 535 877 q 525 857 535 857 l 503 857 q 493 868 493 857 q 498 873 498 868 q 525 863 515 863 l 519 873 l 519 878 m 699 873 l 699 868 l 741 868 l 741 873 l 699 873 m 800 873 l 805 873 q 837 857 837 870 q 794 842 833 842 l 784 857 q 800 873 784 865 m 800 863 l 800 852 l 810 852 q 821 863 821 852 l 800 863 m 583 857 l 588 857 q 599 847 599 856 l 599 836 l 593 810 l 583 810 q 572 821 572 810 l 572 847 q 583 857 574 857 m 329 852 l 339 852 q 355 836 347 852 l 355 804 q 345 793 355 793 q 329 842 329 814 l 329 852 m 440 852 q 461 815 461 844 l 450 810 q 429 831 442 810 l 429 842 q 440 852 431 852 m 583 847 l 583 821 l 588 821 q 593 847 588 838 l 583 847 m 339 842 l 339 825 l 345 825 l 345 842 l 339 842 m 869 842 l 869 831 l 884 831 l 884 836 q 869 842 879 836 m 445 831 l 445 821 l 450 821 l 450 831 l 445 831 m 646 836 l 657 836 q 688 810 688 817 l 688 804 q 678 793 688 793 l 667 793 q 635 825 660 793 q 646 836 637 836 m 233 815 q 244 804 235 804 l 250 804 l 250 825 l 244 825 q 233 815 233 824 m 657 821 q 673 804 657 812 l 678 804 q 662 821 678 812 l 657 821 m 503 815 l 514 815 q 525 804 525 813 l 525 783 q 503 762 525 775 q 493 772 493 762 q 503 815 493 777 m 758 804 l 773 804 q 816 783 813 798 l 816 778 q 805 767 816 767 l 784 767 q 747 799 747 789 l 758 804 m 768 793 q 800 778 773 778 l 805 778 q 773 793 800 793 l 768 793 m 392 772 l 403 757 l 403 730 q 392 720 403 720 l 387 720 q 376 730 376 720 l 376 757 q 392 772 376 764 m 609 772 q 758 736 690 739 q 779 714 779 720 l 789 720 l 800 720 l 800 709 l 789 709 q 805 699 789 699 q 821 704 815 704 l 816 714 l 816 720 l 821 720 q 831 709 831 718 q 794 688 831 695 q 789 693 794 693 l 789 661 q 837 577 789 643 l 837 561 q 763 418 823 481 q 699 376 752 418 l 705 365 q 678 323 696 336 l 667 323 q 657 338 657 323 q 609 317 627 317 q 408 391 408 329 q 345 481 408 409 q 323 598 339 552 l 323 614 q 408 683 323 651 q 477 757 437 757 q 551 751 485 757 q 609 772 589 772 m 890 772 q 937 757 937 767 q 901 736 928 736 l 884 736 q 874 746 874 736 l 890 772 m 387 762 l 387 730 l 392 730 l 392 762 l 387 762 m 297 762 l 302 762 l 302 757 q 297 741 297 747 l 329 741 q 318 730 329 730 l 297 730 q 281 746 290 730 q 297 762 281 753 m 318 762 l 329 762 l 329 751 l 318 751 l 318 762 m 884 751 l 884 746 l 901 746 q 922 751 903 746 l 922 757 l 905 757 l 884 751 m 541 725 q 477 736 515 736 q 418 656 453 731 q 345 608 345 638 l 345 604 q 366 529 366 546 l 366 487 q 440 381 418 445 q 609 344 484 344 q 805 555 805 458 q 816 577 806 577 l 768 640 l 768 677 q 667 725 768 725 q 604 751 649 741 l 541 725 m 922 709 l 932 709 q 943 693 932 693 l 958 693 l 954 704 l 958 704 q 969 693 969 702 q 954 683 969 683 q 922 699 922 688 l 922 709 m 212 688 l 239 688 q 255 672 246 688 l 239 661 l 212 661 q 202 672 202 661 l 202 677 q 212 688 203 688 m 567 688 l 578 688 l 578 677 l 572 651 l 562 651 l 567 661 l 567 688 m 117 677 l 117 667 l 122 667 l 122 677 l 117 677 m 212 677 l 212 672 l 244 672 l 244 677 l 212 677 m 297 683 q 308 672 308 681 q 271 651 299 651 l 265 661 l 265 667 l 271 667 l 281 661 q 297 667 292 667 l 297 672 l 286 672 q 297 683 288 683 m 530 683 l 535 683 l 530 672 l 535 640 l 525 640 l 519 677 l 530 683 m 599 683 l 609 683 l 609 651 l 599 651 l 599 683 m 631 683 l 635 683 l 635 672 l 631 672 l 631 683 m 276 672 l 286 672 l 286 667 l 276 667 l 276 672 m 493 672 l 503 672 l 503 635 l 493 635 l 493 672 m 625 667 l 635 667 l 635 651 l 625 651 l 625 667 m 652 667 l 662 667 l 662 640 l 652 640 l 652 667 m 821 667 l 837 667 q 852 619 837 663 l 842 619 q 821 667 821 626 m 890 667 q 916 640 897 667 l 916 635 q 901 625 916 625 q 874 656 874 633 l 890 667 m 673 661 l 684 661 l 684 630 l 673 630 l 673 661 m 467 656 l 477 656 q 482 619 477 640 l 471 619 l 467 646 l 467 656 m 890 651 l 890 640 q 905 635 895 640 l 905 646 q 890 651 900 646 m 985 656 l 990 656 q 1027 630 1024 642 l 1027 625 q 1017 614 1027 614 q 985 640 995 621 l 985 656 m 694 646 l 705 646 l 705 625 l 694 625 l 694 646 m 149 635 l 170 635 q 186 619 178 635 q 175 608 186 608 l 149 608 q 138 619 138 608 l 138 625 q 149 635 140 635 m 149 625 l 149 619 l 175 619 l 175 625 q 165 630 165 625 q 149 625 155 625 m 445 630 l 456 630 l 456 619 l 445 619 l 445 630 m 726 630 l 731 630 q 726 598 726 622 l 715 598 l 715 619 q 726 630 717 630 m 424 614 l 435 614 l 435 593 l 424 593 l 424 614 m 450 608 l 461 608 l 461 598 l 450 598 l 450 608 m 588 608 l 609 608 q 720 498 684 608 l 720 481 q 599 370 694 370 l 567 370 q 440 492 483 370 l 440 498 q 588 608 440 570 m 975 604 l 980 604 q 990 593 990 602 l 990 582 q 943 551 972 551 q 932 561 932 551 l 932 566 q 975 604 932 574 m 244 598 l 255 598 q 265 587 265 596 l 244 587 l 244 582 q 271 566 253 582 l 281 566 l 265 587 l 276 587 q 292 572 283 587 l 292 566 q 281 555 292 555 q 233 587 252 555 q 244 598 235 598 m 741 598 l 752 598 l 747 566 l 736 566 l 736 572 l 741 598 m 943 561 l 954 561 q 980 593 980 570 q 943 561 943 568 m 408 587 l 418 587 l 418 572 l 408 572 l 408 587 m 471 498 l 471 487 q 578 397 505 397 l 593 397 q 694 476 667 397 l 694 503 q 609 582 654 582 l 593 582 q 471 498 471 551 m 890 587 q 905 572 897 587 l 905 545 q 890 529 905 538 q 874 577 874 549 l 890 587 m 890 577 l 890 545 l 895 545 l 895 577 l 890 577 m 758 566 l 768 566 q 763 540 763 557 l 752 540 l 758 566 m 69 555 q 64 476 64 503 l 64 455 q 366 64 64 179 q 541 37 438 37 l 551 37 q 1038 275 878 37 q 1086 455 1086 357 l 1086 498 q 1001 365 1001 432 l 1001 355 q 1017 307 1001 345 l 1011 307 q 1001 328 1001 307 l 996 328 l 980 317 l 985 291 l 985 286 l 975 286 q 964 307 975 307 q 858 243 858 307 q 848 228 850 228 q 863 170 863 188 l 852 170 l 848 206 l 842 206 q 821 185 834 206 l 821 180 l 826 153 l 816 153 l 810 180 l 800 180 q 726 196 731 196 q 688 164 713 194 l 705 111 l 694 111 q 684 153 684 151 q 657 138 666 138 l 662 100 l 641 132 l 609 132 q 620 90 609 117 l 614 90 q 593 138 605 90 q 525 164 542 164 q 456 138 467 148 l 456 143 q 424 138 448 138 l 424 121 l 429 111 l 424 111 q 387 143 408 143 q 371 153 387 148 l 371 148 q 382 117 382 127 l 371 117 q 265 243 338 243 l 239 243 l 239 238 l 244 212 l 233 212 q 218 249 229 249 l 207 249 l 207 238 l 197 238 l 170 317 l 175 349 l 175 365 q 117 434 175 416 q 80 551 94 434 l 69 555 m 212 555 q 260 534 253 555 q 244 524 247 524 q 202 545 216 524 q 212 555 203 555 m 403 555 l 414 555 l 414 551 l 403 551 l 403 555 m 1017 555 l 1027 555 q 1038 545 1038 554 l 1011 508 q 1001 524 1001 522 q 1017 555 1004 555 m 122 551 l 133 551 q 165 513 142 551 l 165 503 l 159 503 q 122 540 122 503 l 122 551 m 133 540 l 133 534 q 144 513 144 522 l 154 513 q 133 540 140 539 m 1011 534 l 1011 524 l 1017 524 l 1017 534 l 1011 534 m 297 508 q 308 498 308 507 q 260 476 300 476 q 250 487 250 476 l 260 492 q 265 487 260 487 q 297 508 265 508 m 281 498 l 281 492 l 292 492 l 292 498 l 281 498 m 937 498 l 954 498 q 975 476 962 498 q 964 466 975 466 l 958 466 q 927 481 931 466 l 927 487 q 937 498 928 498 m 937 487 q 948 476 939 476 l 964 476 l 964 481 l 937 487 m 842 481 q 879 466 879 476 q 863 450 879 458 l 848 450 q 837 460 837 450 l 837 471 l 842 481 m 852 460 l 863 460 l 863 471 q 852 460 852 469 m 191 460 l 197 460 q 223 439 222 446 q 207 434 213 434 q 180 455 183 444 l 191 460 m 329 460 l 334 460 q 366 444 366 457 l 366 429 l 355 429 q 329 455 348 429 l 329 460 m 1048 450 l 1054 450 q 1064 429 1054 441 l 1064 423 l 1059 423 q 1048 434 1048 423 l 1048 450 m 302 423 q 313 413 313 422 l 313 408 q 265 381 290 381 l 255 397 l 255 402 q 302 423 262 423 m 1027 423 l 1033 423 q 1059 376 1042 423 l 1054 376 q 1027 423 1047 376 m 265 397 q 271 391 271 397 q 302 413 302 404 l 281 413 q 265 397 273 413 m 874 408 l 884 408 q 922 376 922 385 l 922 370 q 905 360 922 360 q 863 391 871 374 l 863 397 q 874 408 865 408 m 879 397 l 879 391 q 911 370 879 383 l 911 376 q 879 397 911 385 m 794 391 q 826 334 826 354 l 810 334 q 784 381 794 334 q 794 391 785 391 m 1017 391 q 1038 344 1027 391 l 1027 344 q 1017 387 1027 349 l 1017 391 m 339 381 q 350 370 350 379 l 350 365 q 329 338 329 365 l 345 338 l 345 349 l 350 349 l 350 334 l 339 328 l 334 328 q 318 349 321 328 q 339 381 330 381 m 667 334 l 678 334 q 688 355 678 342 l 688 360 q 667 334 682 359 m 133 334 l 144 334 l 144 317 l 133 317 l 133 334 m 414 334 l 440 302 l 440 286 l 435 286 q 387 328 387 294 l 397 328 q 418 302 397 313 l 424 302 l 403 328 l 414 334 m 233 328 l 239 328 q 281 302 267 328 q 265 296 271 296 q 233 323 243 304 l 233 328 m 758 328 l 758 317 q 741 307 741 317 l 773 307 l 768 317 l 768 323 l 773 323 q 784 312 784 321 l 784 307 q 773 296 784 296 l 736 296 q 726 307 726 296 l 726 312 q 758 328 731 328 m 535 307 q 562 291 562 303 q 503 270 556 270 l 498 281 l 498 286 q 535 307 507 307 m 154 302 l 165 302 q 170 281 165 299 l 159 281 l 154 302 m 514 291 l 514 281 l 546 286 l 546 296 l 541 296 l 514 291 m 614 291 q 652 254 629 291 q 641 243 652 243 l 631 243 q 599 286 599 264 q 614 291 609 291 m 948 286 l 958 286 l 964 259 l 954 259 l 948 286 m 620 275 l 620 270 q 635 254 620 262 l 635 259 q 620 275 635 267 m 916 281 l 922 281 q 943 233 932 281 l 932 233 q 916 281 932 245 m 726 259 l 736 259 l 736 249 q 720 238 720 249 l 726 238 q 752 259 752 238 q 763 249 763 258 l 763 243 q 720 228 760 228 l 715 228 q 705 238 705 228 q 726 259 705 246 m 874 259 l 879 259 q 905 196 891 259 l 895 196 q 874 259 895 214 m 572 249 q 604 212 572 246 q 593 201 604 201 l 588 201 q 562 228 581 201 l 562 238 q 572 249 564 249 m 260 233 l 271 233 l 271 217 l 276 191 l 265 191 l 260 217 l 260 233 m 418 222 l 429 222 l 456 217 l 456 206 l 429 212 l 418 212 q 450 196 418 201 q 461 206 452 206 l 461 191 l 440 191 q 403 212 412 191 l 418 222 m 297 196 l 308 196 l 308 175 l 297 175 l 297 196 m 323 196 l 334 196 q 345 138 334 181 l 334 138 q 323 191 323 180 l 323 196 m 726 175 l 736 175 q 741 132 736 170 l 731 132 q 726 175 731 137 m 779 153 l 789 153 l 789 132 l 779 132 l 779 153 m 551 138 l 562 138 l 562 121 l 567 85 l 556 85 l 551 138 m 456 132 l 467 132 q 471 106 467 115 l 461 106 l 456 132 m 498 132 l 509 132 l 514 95 l 503 95 l 498 132 z "},")":{"ha":1045,"x_min":41,"x_max":1010,"o":"m 223 975 q 237 960 230 975 l 237 956 q 228 947 237 947 q 214 960 221 947 l 214 965 q 223 975 216 975 m 584 913 q 800 839 684 906 q 893 741 800 834 q 1010 431 1010 583 l 1010 393 q 781 52 1010 184 q 547 0 676 0 q 92 272 243 0 q 50 459 50 376 l 50 520 q 55 538 50 530 q 50 553 50 548 l 60 557 l 68 553 l 92 557 q 125 520 118 520 l 144 520 l 200 538 l 223 525 l 233 525 l 279 530 q 313 492 303 492 q 369 515 355 515 l 387 515 q 453 398 405 507 q 528 361 493 361 l 532 361 q 622 440 595 361 l 622 469 q 551 553 622 505 q 519 581 542 567 q 477 623 477 618 l 477 628 q 490 703 490 691 q 481 726 481 718 q 532 768 514 742 q 524 778 524 768 l 528 806 q 519 834 519 821 l 519 839 l 542 839 q 575 913 575 859 l 584 913 m 60 890 l 64 890 l 60 825 l 68 820 l 78 820 q 68 862 68 850 l 68 881 q 87 820 79 881 l 87 815 q 78 806 87 806 l 60 806 q 41 839 41 814 q 60 890 45 890 m 589 881 q 537 825 570 825 q 566 745 537 798 l 566 731 q 542 698 562 698 l 542 693 q 561 646 555 675 q 556 628 556 638 l 556 614 l 547 614 l 547 623 q 532 609 540 623 q 631 515 627 530 q 650 464 650 491 q 528 333 622 333 q 397 454 439 333 l 387 450 l 369 450 l 336 459 q 275 431 321 431 q 233 459 255 439 l 210 450 l 181 459 q 168 422 178 422 q 163 427 168 427 q 172 469 172 448 l 163 464 l 158 464 l 153 506 l 134 501 q 102 515 102 508 l 92 511 l 87 511 l 87 515 q 92 520 87 520 q 87 538 87 528 l 83 538 q 78 478 83 536 q 392 52 78 179 q 551 28 498 28 q 978 323 864 28 q 987 417 987 401 q 870 731 987 575 q 589 881 738 881 m 336 886 q 359 867 357 876 l 369 871 q 401 844 390 864 l 401 829 q 364 783 368 802 l 355 778 q 298 825 355 783 q 336 886 306 886 m 326 867 l 326 825 q 369 834 357 834 l 374 834 l 382 829 l 387 839 l 364 857 q 355 848 364 848 q 350 867 350 857 l 345 867 l 345 848 l 336 848 l 331 867 l 326 867 m 195 844 q 205 829 195 841 l 205 810 q 195 801 205 801 q 181 834 181 825 q 195 844 184 834 m 308 829 l 308 820 l 313 820 l 313 829 l 308 829 m 345 815 l 345 806 q 359 801 350 806 l 364 810 l 364 815 l 345 815 m 284 792 l 294 792 q 308 764 308 787 l 308 754 q 298 745 308 745 q 271 759 274 745 l 271 764 q 284 792 273 792 m 284 768 q 294 759 286 759 l 294 778 q 284 768 284 777 m 158 768 l 163 759 l 163 736 l 158 726 q 191 707 170 726 l 200 707 l 200 712 q 168 745 168 739 l 176 749 q 219 698 219 725 l 210 693 l 181 693 l 139 717 q 158 768 151 768 m 537 754 l 537 749 q 547 741 538 741 l 547 754 l 537 754 m 256 741 q 303 703 293 722 l 303 698 q 252 722 252 710 l 252 731 l 256 741 m 532 736 q 547 717 540 717 l 547 722 q 532 736 547 728 m 500 722 q 532 665 500 704 l 532 656 l 524 656 l 524 665 l 519 665 l 519 661 q 524 646 524 652 l 519 646 q 509 665 509 646 l 500 665 l 500 637 l 495 637 l 495 628 q 509 614 495 621 q 542 646 516 614 q 524 689 542 664 q 532 703 532 701 l 532 712 q 524 726 524 724 q 500 722 515 722 m 266 722 l 266 717 l 275 717 l 275 722 l 266 722 m 266 689 l 289 689 q 317 675 317 686 q 266 656 317 663 q 256 665 256 656 l 256 680 q 266 689 258 689 m 271 680 l 271 670 l 294 675 l 294 680 l 271 680 m 837 661 l 846 661 l 846 651 l 837 651 l 837 661 m 589 637 l 593 637 q 589 618 589 629 l 579 618 l 579 628 q 589 637 581 637 m 627 628 l 631 618 q 622 604 622 618 l 612 604 l 612 609 q 627 628 619 628 m 875 618 l 880 618 q 898 600 886 618 l 898 595 q 875 614 875 608 l 875 618 m 640 609 l 650 609 q 645 586 645 602 l 635 586 l 640 609 m 669 600 q 673 595 669 595 q 664 567 664 580 l 654 567 q 669 600 659 600 m 682 581 l 692 581 l 687 557 l 678 557 l 682 581 m 903 567 l 907 567 q 922 553 914 567 l 912 548 l 903 562 l 903 567 m 706 562 l 711 562 q 701 525 701 538 l 692 525 q 706 562 692 559 m 715 530 l 725 530 q 711 501 720 501 l 706 501 q 715 530 715 521 m 195 520 l 172 501 l 172 492 q 195 469 172 486 l 219 469 q 228 478 228 469 l 195 520 m 200 515 q 210 483 210 496 l 200 478 q 191 511 191 502 l 200 515 m 219 511 l 219 506 q 252 478 227 481 q 289 450 252 456 q 331 478 311 450 l 331 483 l 317 483 l 317 464 q 303 483 305 464 l 298 483 l 298 473 q 303 469 303 473 l 298 469 q 271 511 294 469 l 271 506 q 289 459 289 471 l 284 459 q 261 511 276 459 l 237 511 l 242 501 l 242 492 l 237 492 q 228 511 228 492 l 219 511 m 917 515 l 922 515 q 940 492 928 515 l 931 488 q 917 515 917 492 m 369 501 l 374 478 l 369 478 l 350 496 l 350 488 q 364 469 357 469 l 374 469 l 397 473 q 382 501 382 492 l 369 501 m 734 501 l 739 501 l 739 496 q 734 483 734 488 l 720 483 l 720 488 q 734 501 720 494 m 907 488 l 912 488 q 945 436 926 478 l 936 431 q 907 488 907 479 m 256 483 l 261 483 q 271 473 271 481 q 261 464 271 464 l 256 473 l 256 483 m 92 469 l 106 469 l 106 464 q 92 445 99 445 q 87 450 92 450 q 92 469 92 458 m 907 450 l 917 450 q 931 408 931 416 l 931 403 q 907 450 916 403 m 106 431 l 116 431 l 116 422 l 106 422 l 106 431 m 181 412 l 191 412 l 191 389 l 181 389 l 181 412 m 903 412 l 912 412 q 926 361 912 400 l 917 361 q 903 412 903 400 m 205 385 l 210 385 l 210 356 l 200 356 l 200 361 l 205 385 m 106 380 l 116 380 l 116 361 l 106 361 l 106 380 m 893 375 l 903 375 q 917 323 903 366 l 907 323 l 893 375 m 130 361 l 134 351 l 134 333 q 125 323 134 323 l 120 323 l 120 351 q 130 361 122 361 m 219 356 l 228 356 l 228 333 l 219 333 l 219 356 m 865 356 l 875 356 q 888 314 875 348 l 884 314 q 865 356 875 314 m 149 333 l 153 333 l 149 309 l 149 290 l 139 290 l 139 323 q 149 333 140 333 m 954 333 l 964 333 l 964 328 l 954 328 l 954 333 m 247 323 l 256 323 l 256 304 l 247 304 l 247 323 m 846 323 l 856 323 l 861 300 l 851 300 q 846 323 851 315 m 163 309 l 168 300 q 163 295 168 295 l 168 272 l 168 262 l 163 262 q 153 272 153 262 l 153 300 q 163 309 155 309 m 823 300 l 833 300 l 837 277 l 828 277 l 823 300 m 945 295 l 954 295 l 954 286 l 945 286 l 945 295 m 795 286 l 804 286 l 804 258 l 795 258 l 795 286 m 186 272 l 191 272 l 191 220 l 186 220 q 176 230 176 220 l 176 262 q 186 272 178 272 m 917 267 l 926 267 l 931 243 l 926 243 q 917 253 917 243 l 917 267 m 767 258 l 777 258 l 781 234 l 781 230 l 772 230 q 767 258 767 254 m 898 253 l 907 253 l 907 211 l 898 211 l 898 253 m 223 248 l 233 248 l 233 216 q 219 187 233 191 q 214 192 219 192 q 223 248 218 200 m 739 239 l 748 239 l 748 211 l 739 211 l 739 239 m 865 239 l 875 239 l 875 192 l 865 192 l 865 239 m 271 225 q 275 220 271 220 q 261 155 271 155 l 256 164 q 271 225 258 225 m 706 220 l 715 220 l 715 211 l 706 211 l 706 220 m 842 220 l 842 169 l 833 169 l 833 211 q 842 220 834 220 m 669 206 l 678 206 q 682 192 678 201 l 673 192 q 669 206 673 197 m 804 201 l 814 201 l 814 155 l 804 155 l 800 182 q 804 201 804 191 m 298 197 l 313 197 l 308 174 l 308 136 l 303 136 q 294 145 294 136 l 294 174 l 298 197 m 650 187 l 659 187 l 659 182 l 650 182 l 650 187 m 336 182 l 345 182 l 340 136 l 340 122 l 331 122 l 331 150 l 336 182 m 622 178 l 631 178 l 631 169 l 622 169 l 622 178 m 767 178 l 777 178 q 772 164 777 173 q 777 127 777 138 l 767 127 l 762 150 q 767 178 767 174 m 584 174 l 593 174 q 584 164 593 164 l 584 174 m 374 159 l 382 159 l 382 108 q 374 98 382 98 l 369 108 l 369 136 l 374 159 m 406 155 q 411 140 411 146 q 406 136 411 136 l 411 113 l 411 98 l 401 98 l 397 131 l 397 145 q 406 155 398 155 m 734 155 l 743 155 l 743 117 l 734 117 l 734 155 m 701 145 l 711 145 q 706 108 706 119 l 696 108 l 696 122 l 701 145 m 429 140 l 444 140 l 439 117 l 444 94 l 434 89 l 429 98 l 429 140 m 669 136 l 678 136 l 678 117 l 669 117 l 669 136 m 584 131 l 598 131 q 593 113 598 129 l 598 79 l 593 79 q 584 89 584 79 l 584 131 m 472 127 q 477 122 472 122 l 472 89 l 472 75 l 463 75 l 463 117 q 472 127 464 127 m 551 127 l 556 127 l 556 117 q 551 113 556 113 q 561 66 556 101 l 547 66 l 547 71 q 542 122 542 112 l 551 127 m 635 122 l 645 122 l 645 113 l 635 113 l 635 122 m 519 117 l 524 117 l 519 94 l 519 75 l 509 75 l 509 108 q 519 117 511 117 m 631 98 l 640 98 l 640 89 l 631 89 l 631 98 z "},"*":{"ha":1106,"x_min":27,"x_max":1067,"o":"m 486 971 l 540 971 q 900 833 740 971 q 1048 572 1023 702 l 1067 434 q 722 30 1067 135 q 535 0 625 0 q 66 311 208 0 q 27 503 27 436 l 27 552 q 342 951 27 850 q 486 971 425 971 m 62 532 l 62 503 q 244 128 62 309 q 475 44 374 44 l 475 79 q 486 89 477 89 q 496 79 496 87 q 481 39 496 62 l 490 39 q 618 54 618 39 q 629 89 618 89 l 633 79 l 633 50 q 668 54 653 54 l 663 64 l 663 98 l 678 98 l 678 59 q 1033 463 1033 146 q 875 813 1033 649 q 707 902 746 902 l 707 887 l 698 887 q 683 902 690 887 l 688 912 l 644 922 q 629 907 644 915 l 624 907 q 614 917 614 907 q 638 922 622 922 l 638 927 q 609 932 616 927 q 574 882 609 900 l 555 882 l 555 887 l 594 927 l 594 932 l 559 937 l 475 937 q 71 631 170 937 q 62 532 62 561 m 530 927 l 535 927 q 545 917 545 925 l 545 912 q 530 897 545 905 q 520 907 520 897 q 530 927 530 907 m 500 922 q 520 907 520 914 l 510 907 q 500 917 500 907 l 500 922 m 456 907 l 461 897 l 451 882 l 456 873 q 446 838 456 863 q 456 828 456 836 l 441 819 l 427 819 q 416 828 416 819 l 446 867 q 431 878 431 867 l 431 887 q 456 907 432 894 m 382 902 l 407 897 l 407 887 l 382 892 l 382 902 m 368 892 l 377 892 l 422 853 l 412 848 q 368 887 382 848 l 368 892 m 678 882 l 678 867 q 668 858 678 858 l 663 858 q 648 873 656 858 q 678 882 669 882 m 333 878 l 338 878 q 357 863 357 870 l 347 858 q 333 873 340 858 l 333 878 m 481 878 q 500 833 500 837 l 510 838 q 520 828 520 836 q 496 804 520 821 q 471 873 486 804 l 481 878 m 515 878 l 545 878 l 545 863 l 515 863 q 505 873 505 863 l 515 878 m 624 873 l 633 873 l 633 838 l 624 838 l 624 853 l 618 853 l 594 838 l 599 828 q 589 819 599 819 q 584 823 589 823 l 584 813 q 570 828 577 813 l 570 833 q 589 843 570 843 l 589 848 l 564 848 l 564 858 l 599 858 q 624 873 624 858 m 722 873 l 727 863 l 727 858 q 718 848 727 848 l 707 848 l 707 858 q 722 873 707 865 m 772 873 l 777 863 l 777 853 l 766 853 q 762 867 766 858 l 772 873 m 279 858 l 283 848 l 273 833 l 273 828 q 318 799 302 828 q 313 793 313 799 q 264 828 308 793 l 244 819 l 239 828 l 279 858 m 747 858 q 757 848 757 857 l 742 838 l 737 848 q 747 858 739 858 m 328 843 l 333 843 q 357 813 340 843 q 347 804 357 804 q 328 843 328 833 m 550 843 q 564 828 550 836 l 559 819 q 570 779 570 800 l 564 779 q 584 759 570 759 q 570 739 570 747 l 555 739 q 510 804 555 783 l 510 808 l 515 808 l 550 799 l 550 813 l 540 813 l 540 833 q 550 843 541 843 m 683 843 l 698 843 l 698 838 q 653 808 698 826 q 648 813 653 813 q 633 799 648 806 q 624 808 624 799 q 653 838 624 813 l 658 838 l 658 833 l 653 823 l 658 823 l 683 843 m 796 838 l 806 823 l 796 808 q 816 804 816 808 l 826 808 l 831 808 q 846 793 838 808 l 846 784 l 840 784 l 806 793 l 801 784 l 811 784 l 811 774 l 801 774 q 742 823 783 802 l 766 823 l 777 819 q 796 838 778 838 m 357 833 l 362 833 q 382 813 370 833 l 382 804 l 377 804 q 357 823 370 804 l 357 833 m 397 828 q 422 789 406 828 l 431 789 q 441 804 431 804 l 466 793 q 486 799 475 799 q 500 793 495 793 l 500 784 q 475 774 475 784 q 471 779 471 774 l 446 774 l 427 784 q 416 774 427 774 l 387 819 q 397 828 389 828 m 584 813 q 599 799 591 813 l 594 799 q 584 808 584 799 l 584 813 m 727 808 l 737 808 q 781 764 779 764 l 781 754 l 766 754 l 766 745 l 772 745 l 791 759 l 791 754 l 777 734 l 777 720 q 826 695 783 712 q 836 710 826 710 l 850 710 l 850 700 q 836 690 836 700 l 855 671 q 840 665 846 665 q 826 671 831 671 q 855 646 855 651 q 846 636 855 636 l 836 641 q 826 626 836 626 l 821 636 l 821 646 l 826 656 q 796 685 813 656 l 777 675 l 772 685 q 781 695 781 685 l 781 700 l 766 700 l 766 705 q 772 710 766 710 q 718 804 757 770 l 727 808 m 338 804 q 372 789 372 799 l 362 784 l 357 784 q 328 799 332 784 l 338 804 m 195 799 l 205 784 l 205 774 l 199 774 q 185 789 193 774 q 195 799 186 799 m 273 793 l 283 793 q 294 784 294 792 q 224 774 287 778 l 219 784 q 273 793 239 793 m 707 789 q 737 749 737 779 l 737 745 l 732 745 l 707 769 q 698 759 707 759 q 692 764 692 759 l 683 759 l 673 759 q 633 779 646 759 q 638 784 638 779 q 678 774 652 774 q 688 784 680 784 q 698 774 689 774 l 703 774 q 707 789 703 789 m 328 779 q 357 754 357 760 l 353 745 l 401 749 l 412 749 q 451 769 412 769 l 461 754 l 401 734 l 382 734 q 372 720 382 720 l 368 720 q 303 745 312 745 l 303 759 l 308 759 q 342 745 333 745 q 318 769 318 764 q 328 779 319 779 m 850 779 q 860 769 852 769 q 890 779 876 779 l 895 779 l 895 764 l 865 759 q 860 764 865 764 l 860 745 l 850 745 l 850 764 q 831 720 838 764 l 821 720 l 821 754 q 850 779 821 762 m 199 764 l 205 764 l 229 749 q 269 764 257 764 l 273 754 q 229 734 245 734 l 229 730 l 264 730 l 264 739 q 294 730 275 730 l 294 720 q 259 715 274 715 l 259 710 q 288 690 277 708 l 279 685 l 273 685 l 254 700 l 234 700 l 234 695 q 259 680 259 692 l 249 675 q 214 700 217 688 l 219 710 l 185 720 l 185 730 q 205 725 196 730 q 219 730 214 730 l 199 754 l 199 764 m 530 759 l 535 749 q 520 739 535 739 q 550 705 536 705 l 555 705 l 555 690 l 510 685 q 471 715 505 685 l 461 680 q 475 665 468 680 q 466 656 475 656 l 451 675 l 441 671 q 412 680 421 680 l 397 656 l 422 656 l 422 641 l 407 641 q 387 651 395 651 q 357 641 371 641 l 357 656 q 377 665 365 656 l 387 661 q 401 690 387 667 q 372 710 372 702 l 382 715 l 412 700 q 427 705 421 705 l 431 695 q 427 690 427 695 l 446 690 q 466 725 446 712 l 475 725 l 486 720 l 486 725 l 475 739 q 530 759 475 747 m 589 759 l 604 759 l 604 745 l 599 745 q 589 754 589 745 l 589 759 m 895 759 q 924 745 924 756 q 909 739 915 739 q 895 745 900 745 l 895 759 m 880 754 q 890 730 890 739 l 880 725 q 870 739 870 737 l 870 745 q 880 754 871 754 m 638 749 q 673 730 665 749 l 673 725 l 668 725 q 648 730 657 725 q 618 720 632 720 l 618 725 q 638 749 631 749 m 683 745 l 692 745 l 692 734 q 683 745 683 734 m 752 739 l 757 730 q 737 685 741 726 l 722 685 q 752 739 737 739 m 692 734 q 698 730 698 734 l 707 734 q 722 705 722 730 l 712 700 q 692 725 705 701 l 692 734 m 505 725 l 505 700 l 525 700 l 520 725 l 505 725 m 224 720 l 224 715 l 249 710 l 254 710 l 254 720 l 224 720 m 550 725 l 559 725 q 570 715 570 723 l 570 705 l 559 705 q 550 715 550 705 l 550 725 m 900 725 l 905 725 q 924 680 918 725 l 920 680 q 900 725 900 687 m 323 720 l 338 720 q 362 675 362 700 l 357 675 q 333 710 351 675 l 323 705 q 313 715 313 705 l 323 720 m 618 715 q 629 690 629 699 l 614 690 q 609 710 609 707 l 618 715 m 653 715 q 663 685 663 699 l 663 671 l 658 671 q 644 710 644 673 l 653 715 m 574 710 l 584 710 q 594 700 594 708 l 584 695 l 574 695 l 574 710 m 870 710 l 875 710 q 895 680 895 700 l 885 675 q 870 705 870 680 l 870 710 m 170 685 q 219 646 219 671 q 195 626 216 646 l 190 626 l 190 636 q 210 661 210 658 l 185 656 l 160 680 l 170 685 m 328 685 l 333 675 l 303 661 l 298 671 q 328 685 317 685 m 929 685 l 935 685 q 944 675 944 684 l 935 661 q 964 646 964 658 l 964 636 l 944 611 q 974 597 974 606 l 974 582 l 964 582 q 929 602 947 602 l 959 572 q 944 567 949 567 l 944 562 l 968 562 q 964 543 968 559 q 968 528 968 533 q 920 523 968 523 l 920 517 q 988 478 939 517 l 979 473 l 939 498 l 939 493 l 944 483 l 935 478 q 909 503 931 478 l 905 493 q 920 478 911 493 q 909 469 920 469 q 900 478 909 478 l 890 473 q 895 444 895 466 q 949 473 924 471 l 954 463 q 900 439 912 439 l 900 434 l 909 419 l 900 414 l 880 414 q 865 429 873 414 q 880 434 875 434 l 875 469 l 875 478 l 905 513 l 900 523 q 920 532 900 532 l 920 537 l 909 552 l 920 567 q 900 587 905 570 l 909 591 q 920 582 911 582 l 924 582 q 905 636 905 621 q 929 656 905 656 l 920 671 q 929 685 929 671 m 683 680 l 692 680 q 712 656 699 680 l 712 641 l 707 641 q 692 651 695 651 q 683 636 692 636 q 668 646 683 646 l 668 661 q 683 680 683 661 m 870 671 l 890 671 q 900 661 900 669 l 880 651 q 860 665 860 658 l 870 671 m 318 665 l 328 665 l 328 656 l 318 656 l 318 665 m 264 661 l 273 661 l 273 656 q 244 631 273 648 l 239 641 q 264 661 242 641 m 574 656 l 579 656 l 570 616 q 653 547 605 604 q 663 557 654 557 l 668 557 l 668 552 q 658 532 658 540 q 668 493 668 501 l 692 498 q 732 483 728 483 l 737 483 l 737 488 q 722 498 722 488 l 727 508 q 781 478 781 486 l 781 469 l 777 469 l 757 478 l 757 463 q 698 478 742 463 q 648 395 670 478 q 638 385 638 393 l 673 320 l 703 320 l 703 326 q 668 365 668 339 l 678 370 q 698 345 691 345 l 722 365 l 727 355 q 722 350 722 355 q 747 330 736 350 l 747 326 q 722 345 722 342 q 707 340 713 340 q 742 300 732 319 l 752 306 q 772 300 760 300 q 786 315 772 308 l 791 315 l 791 311 q 732 232 736 271 l 722 232 l 722 241 l 712 241 q 673 217 694 241 l 663 222 q 648 202 663 202 l 604 207 q 624 163 624 178 l 633 163 l 633 178 l 644 178 q 653 168 653 176 q 638 163 644 163 l 644 153 l 633 148 l 624 148 q 589 197 617 148 l 599 212 q 574 232 599 219 l 564 232 q 545 222 553 222 l 545 212 l 555 212 l 555 222 q 564 212 564 220 l 564 207 l 559 182 q 564 178 564 182 l 555 172 l 550 172 l 530 192 q 570 252 530 235 q 594 276 570 258 l 599 276 q 633 237 599 271 l 633 232 l 624 232 l 594 256 l 589 256 q 579 246 579 255 l 579 241 q 614 227 584 241 l 658 232 l 658 241 q 599 281 602 266 l 604 281 q 618 271 606 281 q 629 281 621 281 q 653 256 653 264 l 673 256 l 673 267 q 638 291 638 279 l 638 296 l 644 296 q 703 252 703 263 l 707 252 q 737 276 734 252 l 727 276 l 703 271 l 703 276 q 718 286 703 286 l 718 291 q 683 300 683 291 q 707 306 691 306 l 707 311 l 658 311 l 658 315 l 663 326 l 624 370 l 618 370 q 555 345 585 345 l 545 345 q 451 380 517 345 q 441 360 441 368 l 431 360 l 431 374 l 436 399 q 401 469 415 399 q 407 523 401 479 l 382 567 l 392 567 q 416 547 414 547 l 422 547 q 540 621 460 621 q 555 616 549 616 q 574 656 564 656 m 614 651 l 638 651 q 648 641 648 649 q 638 631 648 631 l 618 631 q 604 646 612 631 l 614 651 m 732 651 l 757 651 q 796 636 793 651 q 786 626 796 626 q 732 651 732 640 m 924 646 l 924 621 q 944 631 937 631 q 924 646 944 638 m 865 646 l 880 646 l 880 636 l 865 636 l 865 646 m 273 626 l 279 626 l 279 616 l 273 616 l 273 626 m 303 626 q 318 606 311 626 l 308 602 q 294 616 301 602 q 303 626 295 626 m 347 626 q 372 606 372 613 l 362 602 l 342 602 q 333 611 333 602 q 347 626 333 618 m 155 621 l 160 621 l 160 611 q 151 602 160 602 l 136 602 q 125 611 125 602 q 155 621 142 621 m 180 621 l 185 621 q 195 611 195 620 l 185 606 l 180 606 q 170 616 170 606 l 180 621 m 777 621 l 781 621 q 791 611 791 620 l 772 597 q 762 606 762 597 q 777 621 762 614 m 875 621 l 880 621 q 890 611 890 620 q 880 572 880 576 l 890 567 q 905 572 899 572 l 905 562 q 895 552 905 552 q 850 587 867 552 q 831 611 844 587 q 836 616 836 611 l 875 606 l 875 621 m 732 616 l 732 602 l 722 602 l 722 606 q 732 616 724 616 m 791 611 l 796 611 q 811 587 808 611 q 732 532 803 532 q 727 528 732 528 q 718 537 718 528 q 737 552 718 545 q 752 547 747 547 l 757 547 l 757 552 q 732 567 732 555 q 737 572 737 567 q 766 562 757 562 l 772 562 l 772 567 q 757 576 757 567 q 772 582 766 582 q 796 572 787 572 q 801 576 796 576 q 791 606 791 593 l 791 611 m 210 606 l 224 606 l 224 602 q 214 591 224 591 l 210 602 l 210 606 m 698 606 q 707 597 707 605 q 698 587 707 587 q 688 597 688 587 q 698 606 689 606 m 431 488 l 431 473 q 535 370 431 406 l 559 370 q 648 458 618 370 l 648 463 q 545 591 618 591 l 530 591 q 431 488 431 565 m 125 591 q 199 523 176 559 l 190 517 q 170 537 182 517 l 125 528 l 121 537 q 155 547 136 547 q 116 587 116 583 l 125 591 m 303 591 l 323 591 q 333 582 333 590 q 264 572 326 576 l 259 582 q 264 587 264 582 l 273 582 q 303 591 290 591 m 244 587 l 244 582 q 210 567 244 570 l 210 557 q 239 547 228 557 l 244 547 l 264 562 q 298 528 271 562 l 288 523 q 264 547 288 529 q 254 537 264 537 l 210 537 q 185 547 185 537 q 244 587 203 587 m 283 567 l 288 567 q 338 547 338 557 q 333 543 333 547 q 283 562 283 549 l 283 567 m 988 562 l 994 552 l 983 547 l 979 557 l 988 562 m 821 552 l 826 552 q 840 537 829 552 q 870 547 857 547 l 880 547 q 890 537 890 546 l 890 523 l 885 523 l 870 532 q 850 517 850 525 q 870 508 870 517 q 860 498 870 498 l 850 503 q 801 463 819 463 l 801 473 l 816 493 l 806 498 l 801 498 l 801 483 l 796 483 q 781 513 781 488 l 791 517 q 831 503 825 503 l 836 513 l 821 537 l 821 552 m 939 543 l 939 537 l 954 537 l 954 543 l 939 543 m 347 537 l 347 528 l 323 523 l 323 532 l 347 537 m 121 528 l 140 498 l 131 493 q 111 523 111 503 l 121 528 m 283 528 l 283 523 q 229 498 283 512 l 224 508 q 283 528 224 528 m 180 517 l 185 517 l 185 503 q 165 483 185 495 q 160 488 165 488 q 180 517 172 517 m 259 498 q 288 483 288 493 l 279 478 q 249 493 253 478 l 259 498 m 323 493 l 333 493 l 333 488 q 328 483 333 483 q 338 454 338 467 l 338 448 l 333 448 q 313 473 323 451 l 303 469 l 298 469 q 323 493 298 475 m 229 488 l 234 488 l 234 473 q 210 454 234 467 l 190 454 l 175 463 l 170 463 l 170 454 q 185 444 185 454 l 185 439 l 160 439 l 160 424 q 219 409 202 409 q 205 399 219 399 l 210 374 l 199 370 q 180 389 196 385 l 185 399 l 185 404 q 145 419 149 404 l 145 439 l 151 448 q 140 458 140 448 l 140 463 q 170 478 154 463 q 199 469 186 469 q 229 488 204 469 m 259 469 q 303 444 303 450 l 298 434 q 303 429 303 434 q 298 424 298 429 q 259 434 273 434 q 279 409 275 409 q 303 419 294 419 l 308 409 q 279 389 308 403 l 259 404 q 249 395 259 395 l 244 404 l 254 409 l 244 439 q 269 444 252 444 l 269 448 q 249 458 249 448 q 259 469 250 469 m 836 469 l 850 469 l 850 454 q 840 444 850 444 l 836 444 q 826 454 826 444 q 836 469 836 454 m 766 463 l 791 463 l 791 458 q 742 429 768 429 l 742 434 q 766 463 766 455 m 338 444 q 342 439 338 439 q 338 419 338 430 l 328 419 l 328 434 q 338 444 330 444 m 826 434 l 836 434 q 846 424 846 432 q 840 409 840 414 q 900 385 874 385 l 900 374 q 880 355 880 374 q 895 340 887 355 l 895 330 q 885 320 895 320 q 870 360 870 354 l 846 360 q 836 345 846 345 l 826 350 q 811 320 819 320 q 801 340 801 332 q 811 365 811 356 q 796 380 804 365 q 801 385 801 380 l 840 360 l 840 374 q 826 404 826 374 l 816 399 l 811 399 l 806 424 l 781 419 l 777 419 l 777 429 l 826 434 m 688 419 l 692 419 q 703 409 703 418 l 692 404 l 688 404 q 678 414 678 404 l 688 419 m 762 419 l 766 409 l 766 389 l 752 399 q 727 389 736 389 l 718 409 l 727 414 l 752 404 q 762 419 752 419 m 131 404 l 136 395 q 125 385 136 385 l 121 395 q 131 404 122 404 m 347 404 q 368 360 361 404 q 353 355 357 355 l 368 335 l 368 330 l 362 320 l 387 315 q 416 320 413 320 l 397 340 q 407 350 398 350 l 431 335 l 436 335 l 461 355 l 466 345 l 466 340 q 441 320 465 334 l 446 311 q 441 296 441 301 l 456 306 l 461 296 l 461 291 q 436 276 436 290 q 446 267 446 275 l 436 261 l 431 261 q 377 286 418 275 q 362 281 368 281 l 353 286 q 333 281 344 281 l 338 271 l 338 267 q 328 256 338 256 q 283 306 295 281 l 283 311 q 294 320 285 320 q 323 291 297 320 q 353 306 323 306 q 318 355 347 324 l 318 365 l 313 365 q 288 345 298 345 q 249 350 253 350 q 234 345 239 345 l 229 355 q 259 365 245 365 l 264 365 l 298 360 q 313 389 301 389 q 338 365 318 365 l 342 374 l 338 399 l 347 404 m 914 399 l 924 399 q 935 389 935 398 l 924 385 q 914 395 914 385 l 914 399 m 732 365 l 742 365 l 742 360 q 732 350 742 350 l 732 365 m 199 360 l 205 350 l 205 345 q 195 335 205 335 q 185 345 185 335 q 199 360 185 352 m 766 355 l 772 355 q 781 345 781 353 l 777 345 q 766 355 766 345 m 210 345 q 244 326 236 345 l 244 320 l 239 320 q 210 340 210 332 l 210 345 m 929 345 l 944 345 l 944 335 l 929 335 l 929 345 m 298 340 l 333 335 q 323 326 333 326 l 298 330 l 298 340 m 570 340 q 584 311 584 321 l 574 306 q 559 335 559 325 l 570 340 m 140 335 l 145 335 l 145 326 q 136 315 145 315 l 131 326 q 140 335 132 335 m 210 326 q 264 311 247 311 l 264 300 l 249 300 l 254 291 q 244 281 254 281 l 239 281 q 229 291 229 281 q 239 300 239 291 q 199 320 217 300 l 210 326 m 368 306 q 407 291 370 291 l 412 291 l 436 296 l 436 300 l 427 315 q 368 306 415 306 m 609 320 q 624 306 616 320 l 614 300 q 599 315 607 300 l 609 320 m 722 306 l 722 296 l 727 296 l 727 306 l 722 306 m 475 306 l 520 306 l 520 296 l 475 296 l 475 306 m 831 306 q 860 291 860 302 l 831 291 l 831 306 m 151 300 q 175 286 175 294 l 165 281 l 151 281 q 140 291 140 281 q 151 300 142 300 m 791 300 l 796 300 q 806 291 806 299 l 796 286 l 791 286 q 781 296 781 286 l 791 300 m 555 296 l 555 281 l 510 271 l 505 281 q 555 296 530 296 m 875 296 l 880 296 q 890 286 890 294 l 890 281 l 885 281 q 875 291 875 281 l 875 296 m 475 276 q 535 252 535 257 l 525 246 l 520 246 q 471 267 471 252 l 475 276 m 294 271 l 308 252 q 303 246 303 252 q 283 261 283 254 q 294 271 285 271 m 273 267 l 279 256 l 269 252 l 264 261 l 273 267 m 772 267 l 777 267 q 781 261 781 267 l 791 267 l 796 267 q 831 222 803 267 l 821 217 l 762 261 l 772 267 m 407 261 l 416 246 q 407 237 416 237 q 397 252 397 249 q 407 261 398 261 m 180 256 l 195 256 q 205 246 205 255 q 175 237 189 237 q 165 246 165 237 l 180 256 m 333 256 l 342 256 q 353 246 353 255 l 362 252 l 372 252 q 382 241 382 250 l 377 232 l 387 232 l 387 212 l 382 202 q 392 192 392 201 q 382 182 392 182 l 357 182 q 377 197 357 195 q 342 237 376 218 q 333 252 333 249 l 333 256 m 456 256 q 475 232 475 246 q 510 241 496 241 l 510 232 l 481 207 l 490 202 q 510 207 499 207 q 530 182 530 185 q 525 178 530 178 q 545 148 525 173 l 535 143 q 520 163 523 143 l 515 163 l 500 153 l 466 172 q 456 163 466 163 l 451 163 l 427 178 q 412 163 427 170 q 407 168 412 168 l 416 187 q 397 202 397 195 l 397 212 l 407 212 l 422 202 l 431 202 l 427 212 l 427 222 l 431 222 q 441 202 441 222 l 451 207 l 446 217 l 466 241 q 446 252 446 241 l 456 256 m 668 241 l 668 237 l 678 237 l 678 241 l 668 241 m 939 246 l 944 237 l 935 232 l 929 241 l 939 246 m 757 241 l 762 232 q 747 207 755 207 l 742 217 l 742 227 q 757 241 742 234 m 294 237 q 328 222 328 230 l 318 217 l 298 217 q 288 227 288 217 l 294 237 m 914 232 l 920 222 q 909 212 920 212 l 905 212 l 905 222 q 914 232 906 232 m 224 227 l 229 217 q 219 207 229 207 l 205 207 l 205 212 q 224 227 205 219 m 638 217 l 638 212 l 648 212 l 648 217 l 638 217 m 362 217 l 368 207 q 318 197 345 197 l 313 207 q 362 217 336 217 m 703 217 l 707 207 q 668 172 690 181 l 663 182 q 703 217 663 186 m 766 207 l 786 207 l 786 197 l 766 197 l 766 207 m 712 202 l 737 197 l 737 187 l 712 187 l 712 202 m 466 192 q 496 178 471 178 q 466 192 490 192 m 264 192 l 269 182 q 244 168 269 171 l 239 178 l 264 192 m 870 178 l 875 168 l 875 153 l 870 153 q 860 163 860 153 l 860 168 q 870 178 862 178 m 298 168 l 303 158 q 288 143 303 151 q 279 153 279 143 l 298 168 m 821 163 l 831 163 q 836 133 836 137 l 826 133 l 821 158 l 821 163 m 786 153 l 796 153 l 796 118 l 786 118 l 786 153 m 318 148 q 328 138 328 146 q 308 118 328 130 l 303 128 q 318 148 311 148 m 747 133 l 757 133 l 762 98 l 762 94 l 747 94 l 747 133 m 353 118 l 368 118 l 368 104 q 353 89 368 96 l 342 94 q 353 118 353 110 m 707 113 l 722 113 q 718 79 718 94 l 707 79 l 707 113 m 401 109 q 407 104 401 104 q 392 69 401 69 l 387 79 l 387 94 q 401 109 387 101 m 451 94 q 456 89 451 89 q 451 54 451 69 l 436 54 l 436 79 q 451 94 436 86 m 520 94 q 530 50 525 85 l 520 44 q 510 74 510 60 l 510 84 q 520 94 512 94 m 570 94 q 574 89 570 89 q 570 54 570 69 l 555 54 l 555 64 q 570 94 557 94 z "},"+":{"ha":976,"x_min":27,"x_max":941,"o":"m 401 968 q 868 673 640 968 q 941 418 941 542 q 671 35 941 175 q 494 0 593 0 q 32 437 168 0 q 27 492 32 465 q 268 939 27 808 q 401 968 328 968 m 56 501 q 209 162 56 366 q 499 35 330 35 q 882 300 760 35 q 907 428 907 355 q 553 900 907 706 q 396 939 449 939 q 86 688 194 939 q 56 501 56 607 m 386 924 l 391 914 l 357 885 l 351 895 l 386 924 m 347 914 l 351 914 l 351 909 q 337 895 351 903 l 327 895 q 347 914 327 903 m 420 909 l 425 909 l 425 905 q 391 875 425 900 l 386 885 q 420 909 391 885 m 292 905 l 302 905 l 302 900 l 292 900 l 292 905 m 460 900 l 465 900 l 465 895 q 420 861 458 879 l 420 865 q 460 900 420 871 m 494 890 l 499 880 q 465 850 496 880 l 460 850 l 460 855 q 494 890 460 863 m 538 875 l 543 875 l 543 870 q 504 836 532 852 l 499 846 l 538 875 m 568 861 l 573 850 q 538 826 543 826 l 534 836 q 568 861 538 836 m 292 850 l 298 850 q 268 806 284 817 l 263 806 l 263 811 q 292 850 288 850 m 253 841 l 263 841 q 233 791 263 811 l 233 796 q 253 841 253 829 m 322 841 q 327 836 322 836 q 307 796 307 806 l 298 796 l 298 802 q 322 841 315 841 m 597 836 l 597 831 q 568 806 588 813 l 568 811 q 597 836 568 819 m 351 831 l 357 821 l 337 806 l 332 806 l 332 811 q 351 831 332 819 m 381 821 l 381 811 q 371 802 381 802 l 366 802 l 366 806 q 381 821 366 813 m 622 816 l 627 816 l 627 811 q 602 791 627 804 l 597 791 l 597 802 q 622 816 606 802 m 214 811 l 224 811 q 209 767 224 802 l 199 767 q 214 811 199 776 m 416 811 l 420 811 l 420 806 q 401 787 420 798 l 396 796 l 416 811 m 455 811 l 460 802 l 440 787 l 435 796 l 455 811 m 666 811 l 671 802 l 632 772 l 627 772 l 627 777 q 666 811 627 781 m 184 802 l 194 802 l 194 796 q 180 743 180 751 l 170 743 l 170 747 l 184 802 m 494 802 l 499 791 l 475 777 l 475 782 q 494 802 475 789 m 524 782 l 524 777 q 509 762 524 770 l 509 767 q 524 782 509 774 m 691 772 l 696 772 l 696 767 q 661 732 696 760 l 656 732 l 656 737 q 691 772 656 745 m 145 762 l 160 762 q 145 732 160 736 l 140 743 q 145 762 145 751 m 543 757 l 553 757 q 543 747 553 747 l 543 757 m 568 747 l 578 747 l 578 743 l 568 743 l 568 747 m 725 747 l 730 747 l 730 743 q 691 703 730 736 l 686 703 l 686 708 q 725 747 686 714 m 593 737 l 602 737 l 602 728 l 593 728 l 593 737 m 745 713 l 750 713 l 750 708 q 711 684 737 684 l 711 693 q 745 713 723 693 m 111 708 l 121 708 l 121 688 l 111 688 l 111 693 l 115 703 q 111 708 111 703 m 622 708 l 632 708 l 632 698 l 622 698 l 622 708 m 774 678 l 779 669 l 740 639 l 735 639 l 735 654 q 774 678 748 654 m 91 664 l 101 664 l 101 634 l 91 634 l 91 664 m 489 654 l 499 654 l 494 629 l 494 614 q 593 487 593 582 l 593 477 l 607 477 l 632 481 l 632 472 q 583 418 583 459 q 538 363 538 375 l 538 354 l 528 354 l 528 369 l 524 369 q 514 349 524 361 l 514 324 l 504 324 l 499 349 q 504 363 504 359 l 494 363 q 425 374 477 363 q 420 369 425 369 q 376 418 420 385 q 371 433 376 423 q 327 418 340 418 l 327 428 q 361 448 339 428 q 351 487 351 465 q 361 541 351 522 q 347 546 352 546 l 347 555 q 381 590 381 555 q 361 619 361 600 l 366 619 q 401 605 385 605 q 484 634 478 621 l 489 654 m 784 644 l 789 634 l 755 605 q 745 614 745 605 q 784 644 750 614 m 794 614 l 804 614 l 804 610 q 770 575 804 602 l 760 575 l 760 580 l 794 614 m 283 610 l 292 610 l 292 605 q 283 595 292 595 q 273 605 273 595 l 283 610 m 376 492 q 469 393 408 393 l 499 393 q 568 467 557 393 l 568 492 q 450 600 568 585 q 376 492 412 600 m 814 590 q 823 580 823 589 l 774 546 l 770 555 l 814 590 m 86 585 l 91 585 l 91 575 l 86 575 l 86 585 m 292 585 l 292 575 q 263 566 284 575 l 263 570 q 292 585 263 580 m 283 555 l 283 551 q 248 536 283 539 l 248 546 l 283 555 m 823 546 l 829 546 l 829 541 q 789 507 817 522 l 774 507 q 823 546 774 511 m 273 526 l 273 516 l 248 511 q 273 526 248 522 m 838 511 l 843 511 l 843 507 q 794 467 814 467 l 789 477 q 838 511 796 477 m 273 501 l 273 496 q 243 481 268 481 l 243 492 q 273 501 257 492 m 273 472 l 273 462 l 248 457 l 248 467 l 273 472 m 843 467 q 853 457 853 465 q 794 422 808 422 l 794 437 q 843 467 807 437 m 253 442 l 278 442 q 268 433 278 433 l 253 433 l 253 442 m 288 413 l 288 403 l 278 403 q 288 413 279 413 m 853 413 l 853 408 q 804 374 852 399 l 799 383 q 853 413 836 413 m 273 408 l 278 398 l 263 398 q 273 408 264 408 m 302 383 l 307 383 l 307 378 q 292 363 307 372 l 283 363 l 283 374 q 302 383 290 374 m 853 369 l 858 359 q 814 324 821 324 l 809 334 q 853 369 846 369 m 745 363 l 750 354 l 735 344 l 730 344 l 730 349 q 745 363 730 356 m 322 354 l 332 354 q 302 334 322 334 l 302 344 q 322 354 310 344 m 342 339 l 347 330 q 322 310 325 310 l 317 310 l 317 315 q 342 339 317 321 m 366 324 l 371 324 q 347 295 364 304 l 342 295 l 342 300 q 366 324 342 307 m 833 324 l 838 315 q 809 285 838 308 q 799 295 799 285 q 833 324 807 295 m 735 319 l 745 319 q 730 304 745 313 l 725 304 l 725 310 q 735 319 727 319 m 519 315 l 524 315 l 524 304 l 519 304 l 519 315 m 386 310 l 391 300 q 366 280 369 280 l 361 280 l 361 285 q 386 310 361 292 m 406 304 l 410 304 l 410 300 q 386 271 404 279 l 381 280 q 406 304 385 280 m 425 300 l 430 300 l 430 295 q 410 271 420 273 l 406 280 q 425 300 406 288 m 494 300 l 499 290 l 489 285 l 484 295 l 494 300 m 445 290 l 450 290 l 450 280 q 435 265 450 273 q 430 271 435 271 q 445 290 437 290 m 469 290 l 475 290 l 475 285 q 465 275 475 275 l 460 275 l 460 280 q 469 290 461 290 m 730 290 l 735 290 l 735 285 q 715 271 735 278 l 715 275 q 730 290 715 282 m 823 290 l 829 280 l 794 256 l 789 265 l 823 290 m 720 256 l 725 256 l 725 245 q 705 236 718 245 l 701 236 l 701 245 q 720 256 708 245 m 809 256 l 814 245 q 789 226 813 239 l 784 226 l 784 231 q 809 256 784 237 m 705 221 l 705 216 q 676 197 705 207 l 676 201 q 705 221 676 210 m 789 216 l 794 206 l 779 197 l 774 206 q 789 216 777 206 m 671 186 l 681 186 l 681 177 q 656 167 672 177 l 656 172 q 671 186 656 179 m 755 182 l 760 182 l 760 172 l 745 172 q 755 182 747 182 m 253 167 l 268 167 l 268 162 q 258 153 268 153 l 253 162 l 253 167 m 652 157 l 652 153 q 642 142 652 142 l 642 147 q 652 157 643 157 m 283 153 l 288 142 l 278 138 l 273 147 l 283 153 m 730 147 q 740 138 740 146 l 730 133 l 720 133 l 720 138 q 730 147 722 147 m 312 133 l 317 133 l 317 127 q 307 118 317 118 l 302 118 l 302 123 q 312 133 304 133 m 622 127 l 632 127 l 632 118 q 612 113 621 118 l 612 118 q 622 127 614 127 m 337 123 l 347 123 l 347 113 l 337 113 l 337 123 m 366 113 l 376 113 l 376 108 q 371 94 371 98 l 361 94 l 361 98 q 366 113 366 108 m 597 108 l 602 98 l 593 94 l 587 94 l 587 98 q 597 108 589 108 m 686 103 l 691 103 l 691 94 l 686 94 l 686 103 z "},",":{"ha":1158,"x_min":27,"x_max":1131,"o":"m 574 968 l 654 968 q 1025 763 824 968 q 1131 496 1131 633 l 1131 456 q 800 71 1131 241 q 499 0 651 0 q 67 296 201 0 q 27 481 27 396 q 333 933 27 783 q 574 968 442 968 m 584 898 l 584 893 l 594 893 l 594 898 l 584 898 m 694 898 q 709 878 709 886 l 715 878 l 715 888 l 699 898 l 694 898 m 730 888 l 730 883 l 740 868 l 749 873 l 755 873 q 765 858 765 873 l 790 863 q 800 838 795 838 l 820 848 q 815 868 815 857 l 805 863 l 795 863 q 765 883 765 877 l 755 878 l 749 878 q 734 888 737 888 l 730 888 m 825 848 q 835 823 835 836 l 850 823 q 830 848 837 848 l 825 848 m 193 747 l 198 738 l 153 682 q 157 667 157 673 l 163 667 q 182 703 163 677 q 208 713 182 713 l 203 722 q 223 738 203 735 l 218 747 l 218 753 q 248 763 218 763 l 243 772 l 268 808 l 278 808 l 288 803 q 298 828 288 815 l 298 833 q 243 798 283 831 q 203 763 231 798 q 193 747 203 747 m 855 823 q 885 793 855 811 q 905 772 885 785 l 905 768 l 900 758 q 930 738 930 758 q 956 718 949 738 q 966 703 966 718 l 975 703 q 935 783 966 736 l 925 778 l 920 778 q 870 828 870 816 q 855 823 861 823 m 589 728 l 549 692 l 529 707 q 514 677 529 677 l 504 677 l 489 688 q 474 663 485 663 l 469 663 l 458 667 q 449 652 458 652 l 429 652 l 418 657 q 389 602 402 602 l 393 592 q 374 577 393 577 l 374 572 q 389 557 374 565 l 393 557 l 389 567 l 389 572 q 408 587 389 585 l 424 587 q 433 612 424 612 l 439 612 l 449 607 q 458 637 449 637 q 489 627 472 637 l 489 632 q 484 652 484 641 l 499 663 l 504 663 q 519 642 519 663 l 539 663 l 544 663 q 559 642 559 663 l 564 642 q 579 682 564 682 l 589 682 q 604 642 604 680 l 609 642 q 624 688 610 688 l 629 688 q 634 682 634 688 q 659 692 650 692 q 669 657 669 672 l 680 663 l 684 663 q 705 642 692 663 l 715 647 q 755 612 755 626 l 760 612 l 760 642 q 690 697 690 684 l 680 692 l 669 692 q 624 718 651 713 l 624 728 l 614 722 l 599 722 l 589 728 m 634 622 l 634 612 l 640 612 l 640 622 l 634 622 m 1076 612 l 1076 602 l 1081 602 l 1081 612 l 1076 612 m 589 592 q 579 582 589 582 l 559 587 q 469 481 469 556 l 469 467 q 579 381 495 381 l 589 381 q 694 462 676 381 q 594 592 694 568 l 589 592 m 1071 557 l 1071 547 l 1076 547 l 1076 557 l 1071 557 m 283 547 l 283 542 l 293 542 l 293 547 l 283 547 m 358 537 l 363 527 q 353 512 358 512 q 358 496 358 502 l 374 507 l 368 517 l 368 522 l 378 537 q 374 542 374 537 q 358 537 363 537 m 1046 527 l 1046 522 q 1056 492 1056 505 q 1036 487 1047 487 q 1056 431 1047 468 l 1071 431 q 1061 481 1061 469 q 1071 492 1071 481 l 1071 496 q 1046 527 1071 524 m 98 496 l 98 487 l 102 487 l 102 496 l 98 496 m 1025 422 l 1025 416 l 1031 387 q 1016 381 1021 381 q 960 416 982 397 q 981 366 981 381 l 981 351 q 970 341 981 341 q 935 356 954 341 l 935 351 l 941 321 q 930 311 941 311 q 870 361 897 311 l 865 361 l 865 356 q 900 271 894 305 q 880 261 888 261 q 820 331 867 261 l 820 326 q 850 246 850 269 l 840 241 l 830 241 l 810 261 q 800 231 810 231 l 790 231 l 770 246 q 760 211 770 211 l 755 211 q 709 271 712 271 l 715 221 l 715 216 q 694 180 715 189 q 654 236 654 213 l 649 236 l 649 231 q 654 186 654 203 l 654 180 q 634 161 654 173 q 609 186 631 161 q 599 161 609 161 l 594 161 q 579 180 582 161 l 569 180 q 554 161 569 161 q 529 201 529 174 l 524 201 q 504 161 524 168 l 489 161 q 474 216 474 161 l 469 216 q 444 171 458 171 l 439 171 q 414 226 421 171 l 408 226 q 378 180 408 202 l 374 180 q 349 205 370 180 q 338 196 349 196 l 333 196 q 313 231 313 204 l 288 226 q 273 256 278 226 l 263 251 l 253 251 q 233 281 246 251 q 218 276 223 276 q 213 281 218 281 l 213 276 q 238 221 238 260 l 243 221 q 258 241 245 241 q 278 205 278 233 l 288 211 l 298 211 q 318 171 308 211 q 343 140 343 171 l 349 140 q 358 165 349 165 l 363 165 q 414 136 380 149 l 418 136 q 429 151 418 151 l 439 151 q 464 111 464 128 l 469 111 q 484 136 470 136 l 489 136 q 509 115 496 136 l 534 121 l 544 115 q 559 121 553 121 q 579 100 579 115 l 584 100 q 594 115 584 115 l 619 111 q 629 121 621 121 l 634 121 l 654 105 q 665 136 654 136 q 694 125 678 136 q 709 146 697 146 l 720 146 l 734 136 q 749 165 734 165 l 770 151 q 780 176 770 176 q 815 161 797 176 q 830 191 815 191 l 835 191 q 850 180 838 191 l 855 180 q 870 205 857 205 l 890 191 q 900 236 890 236 l 910 236 l 920 231 q 935 266 920 263 l 956 256 q 970 286 956 286 l 981 286 l 991 281 l 985 306 l 985 316 q 1006 336 985 324 l 1010 336 l 1031 316 q 1021 356 1021 354 q 1046 381 1029 381 l 1046 416 l 1025 422 m 193 341 l 203 341 l 203 351 q 193 341 193 350 m 148 321 l 148 301 l 157 296 l 157 301 q 153 321 153 310 l 148 321 m 228 316 l 228 311 l 238 311 l 238 316 l 228 316 m 188 311 l 188 296 l 198 296 l 198 311 l 188 311 m 323 90 l 323 75 l 333 71 l 333 75 q 328 90 328 85 l 323 90 z "},"-":{"ha":1106,"x_min":27,"x_max":1064,"o":"m 489 968 l 514 968 q 892 846 675 968 q 1055 516 1006 729 q 1064 408 1064 475 l 1064 374 q 848 39 1064 180 q 681 0 738 0 l 597 0 q 125 226 349 0 q 27 496 27 361 l 27 521 q 268 905 27 757 q 489 968 384 968 m 406 900 q 401 924 401 908 q 347 909 355 909 q 361 865 361 890 l 351 861 q 327 900 341 861 q 263 861 263 867 q 268 846 268 850 l 243 836 q 224 841 235 841 q 180 796 224 837 l 180 747 q 155 678 155 684 q 189 600 189 605 l 189 585 q 145 477 189 570 q 214 418 145 453 q 258 290 239 402 q 391 245 258 260 q 469 167 460 167 l 484 167 q 548 186 489 167 l 558 186 q 637 138 579 186 l 646 138 q 725 197 654 138 q 745 201 734 201 l 755 201 q 838 177 772 201 q 897 245 848 177 q 1015 290 923 263 q 1040 418 1027 290 q 991 639 1040 522 q 961 654 965 639 l 961 659 l 976 678 q 873 821 939 752 l 873 816 q 878 802 878 806 q 868 791 868 800 q 838 836 844 791 q 843 841 843 836 l 691 905 q 681 895 691 895 q 632 920 663 920 l 637 909 l 637 890 l 617 890 q 509 939 585 939 l 499 939 q 489 914 499 914 l 484 914 q 475 939 484 939 q 435 920 435 939 q 406 900 435 900 m 410 929 l 410 914 l 425 914 l 425 929 l 410 929 m 597 929 q 622 900 614 900 l 627 900 l 627 905 q 597 929 619 929 m 514 914 q 528 900 521 914 q 504 855 517 855 l 499 865 l 499 885 q 514 914 502 914 m 509 885 l 509 875 l 514 875 l 519 900 q 509 885 509 900 m 342 895 l 342 880 l 351 875 l 351 880 q 347 895 347 890 l 342 895 m 602 870 l 612 855 l 612 846 l 602 846 l 602 836 l 612 836 l 612 821 l 602 821 q 593 831 593 821 l 593 861 q 602 870 594 870 m 243 855 l 243 850 l 253 850 l 253 855 l 243 855 m 686 861 q 696 836 696 844 l 686 831 l 681 831 q 661 850 673 831 l 661 855 l 666 855 l 681 846 l 681 850 q 676 855 676 850 l 686 861 m 755 861 q 799 831 781 861 l 799 816 q 745 846 745 831 l 745 850 q 755 861 747 861 m 430 850 l 445 850 q 455 841 455 849 l 430 841 q 465 821 438 821 l 465 811 q 420 836 420 821 l 420 841 q 430 850 422 850 m 760 846 l 760 841 q 779 831 767 841 l 784 831 l 784 841 q 764 846 773 841 l 760 846 m 455 841 l 460 841 q 469 831 469 839 l 465 831 q 455 841 455 831 m 853 831 l 853 821 q 858 806 858 811 l 863 806 l 863 821 q 853 831 863 831 m 327 826 q 366 802 366 813 l 366 796 q 351 787 366 787 q 317 811 320 800 l 317 816 q 327 826 319 826 m 524 821 q 534 811 534 819 q 514 772 534 785 l 509 772 q 499 782 499 772 q 524 821 499 808 m 332 811 q 357 796 332 800 q 342 811 357 804 l 332 811 m 509 782 q 524 806 520 782 q 509 782 513 806 m 248 806 q 283 787 275 806 l 283 772 l 273 772 q 239 791 246 772 l 239 796 q 248 806 240 806 m 730 806 l 740 806 q 745 796 740 796 q 720 762 735 766 q 711 772 711 762 l 711 787 q 730 806 711 794 m 248 796 q 263 782 248 789 l 273 782 q 258 796 273 789 l 248 796 m 652 802 q 661 791 661 800 l 661 782 q 627 757 646 757 l 622 767 l 622 777 q 652 802 622 783 m 720 782 l 720 772 q 735 791 728 772 l 730 791 q 720 782 720 790 m 396 782 l 406 782 q 416 772 416 780 q 406 762 416 762 l 401 762 q 396 782 396 779 m 632 777 l 632 772 l 642 772 l 642 777 l 632 777 m 376 777 q 386 767 386 775 l 386 762 l 376 762 q 366 772 366 762 l 376 777 m 833 777 l 843 777 q 897 743 871 777 l 888 737 l 882 737 q 823 772 848 737 l 833 777 m 150 767 q 62 521 62 648 l 62 487 q 366 88 62 250 q 637 29 514 29 q 1010 260 905 29 l 1010 265 l 1005 265 q 868 133 868 238 l 858 133 l 863 157 l 863 162 q 833 123 833 162 l 823 123 l 829 157 q 755 177 765 177 l 750 177 q 676 83 691 177 l 666 83 q 676 123 666 93 l 671 123 q 637 83 637 123 l 627 83 l 627 88 l 632 113 q 558 167 625 113 l 548 167 q 514 142 524 159 l 504 147 q 469 108 469 147 l 460 108 q 469 147 469 145 q 435 162 453 147 q 425 123 425 144 l 416 123 q 425 167 420 159 q 312 236 395 236 q 302 197 302 218 l 292 197 q 302 236 292 212 q 273 245 282 245 q 268 226 268 237 l 258 226 l 263 251 q 239 290 239 277 l 233 290 l 233 256 l 224 256 l 224 275 q 233 300 225 300 q 155 418 222 418 l 150 393 l 140 393 q 150 433 150 430 q 135 442 138 442 q 125 433 135 433 l 121 433 q 130 457 125 457 l 125 467 l 125 487 q 170 590 170 584 q 130 664 170 602 l 130 673 l 160 762 l 150 767 m 583 772 q 661 728 591 772 q 774 659 744 728 q 848 595 836 634 q 888 570 875 595 q 878 560 888 560 l 868 560 q 838 570 854 560 l 823 531 l 829 452 q 686 344 829 393 q 612 334 631 334 l 622 319 q 573 295 589 295 q 568 319 568 303 l 543 319 q 381 428 488 319 q 371 467 381 435 l 376 516 q 357 575 376 521 q 396 708 385 640 q 440 732 415 732 l 455 732 l 504 728 q 583 772 545 771 m 843 767 q 878 747 843 759 l 882 747 l 882 752 l 843 767 m 779 757 l 784 757 q 804 723 794 757 l 794 723 q 784 737 794 737 l 784 728 q 804 713 784 713 q 794 703 804 703 q 770 747 779 703 q 779 757 771 757 m 499 708 q 445 713 479 708 q 410 649 410 713 q 381 570 381 581 q 401 516 401 531 q 396 457 396 465 q 538 344 422 393 l 548 344 q 789 437 789 378 q 814 457 804 457 l 814 462 q 799 526 814 478 l 823 590 q 745 659 823 606 q 632 713 745 705 q 578 747 608 747 q 509 708 557 747 l 499 708 m 199 743 l 204 743 l 199 718 l 199 698 l 204 698 l 204 723 l 214 723 l 214 693 q 204 684 214 684 q 189 713 189 688 l 189 732 q 199 743 191 743 m 322 732 q 357 684 357 707 l 347 678 l 337 678 q 307 723 307 699 l 322 732 m 317 723 q 347 684 334 684 l 347 688 q 322 723 330 723 l 317 723 m 922 723 q 956 703 948 723 l 956 698 q 941 688 956 688 q 912 703 912 693 l 912 713 q 922 723 913 723 m 922 713 l 922 703 l 947 698 q 932 713 947 705 l 922 713 m 273 708 l 278 708 q 307 678 285 708 l 307 673 q 298 664 307 664 q 263 703 263 680 l 273 708 m 578 684 l 578 678 l 568 644 l 558 644 q 578 684 567 684 m 612 684 l 617 673 q 597 639 604 673 l 587 639 q 612 684 599 684 m 863 684 q 907 634 907 663 l 897 629 l 882 629 q 853 678 853 649 l 863 684 m 548 678 l 553 678 q 543 644 543 664 l 534 644 l 534 649 q 548 678 536 678 m 514 673 l 524 673 q 509 639 519 639 l 504 639 q 514 673 514 659 m 868 669 l 868 664 q 897 639 876 639 q 868 669 897 654 m 652 669 l 656 659 l 632 629 l 627 629 l 627 634 q 652 669 644 669 m 976 664 l 971 654 l 981 649 l 986 649 l 986 654 q 976 664 986 664 m 484 664 l 494 664 l 489 639 l 479 639 l 484 664 m 460 644 l 469 644 l 469 634 l 460 634 l 460 644 m 676 644 l 681 644 l 681 639 q 661 614 668 615 l 656 614 q 676 644 668 644 m 214 639 l 233 610 l 233 605 q 224 595 233 595 l 204 629 q 214 639 205 639 m 307 634 q 337 619 337 629 q 327 610 337 610 l 292 610 q 278 625 286 610 l 278 629 l 283 629 l 298 619 l 317 619 l 317 625 l 307 625 l 307 634 m 701 629 l 705 629 q 686 605 692 605 l 681 605 q 701 629 690 627 m 440 619 l 450 619 l 450 614 l 440 614 l 440 619 m 711 610 l 720 610 l 720 605 q 705 585 713 585 l 701 585 q 711 610 711 601 m 558 600 q 701 452 701 600 q 612 363 673 363 l 583 363 q 440 511 458 363 l 440 526 q 558 600 440 589 m 966 595 q 1000 566 1000 574 q 991 555 1000 555 l 956 555 q 941 570 949 555 l 941 575 q 966 595 942 582 m 730 590 l 735 590 q 725 566 725 574 l 715 566 l 715 570 q 730 590 723 590 m 848 585 l 848 580 q 873 566 848 572 l 878 575 q 848 585 861 585 m 951 575 l 951 570 l 976 566 l 986 566 q 966 580 986 572 q 951 575 956 575 m 750 580 l 755 570 q 740 551 743 570 l 730 551 l 730 555 q 750 580 740 578 m 469 521 l 469 501 q 583 389 490 389 l 587 389 q 671 448 660 389 l 671 481 q 573 570 671 570 l 553 570 q 469 521 469 570 m 342 570 q 361 536 361 562 l 351 531 q 332 566 338 531 l 342 570 m 258 560 l 268 560 q 302 541 294 560 q 263 526 302 529 q 243 541 243 533 l 243 546 q 258 560 243 553 m 263 555 l 253 541 l 278 536 q 292 541 288 541 l 292 546 q 263 555 284 546 m 106 551 l 115 551 l 115 541 q 106 531 115 531 l 101 531 q 106 551 106 540 m 760 551 l 764 541 q 745 516 745 530 l 735 516 l 735 521 q 760 551 752 551 m 863 531 l 868 531 l 868 481 l 858 481 q 848 492 848 481 q 863 531 848 528 m 971 526 q 976 521 971 521 l 971 511 q 986 496 971 504 l 991 496 l 991 507 q 1000 496 1000 505 q 991 487 1000 487 l 986 487 q 961 511 979 487 l 961 516 q 971 526 963 526 m 111 511 l 121 511 l 115 487 l 106 487 q 111 511 111 495 m 760 507 l 764 507 l 764 501 q 745 481 764 494 l 745 492 q 760 507 745 498 m 199 501 l 224 462 q 214 452 224 452 q 189 496 189 482 l 199 501 m 907 501 l 922 501 l 932 467 l 922 462 l 912 462 q 897 477 905 462 l 897 496 l 907 496 q 917 472 907 472 l 922 472 l 907 501 m 312 496 l 312 487 q 292 448 312 460 l 288 448 q 273 467 275 448 q 312 496 283 496 m 283 467 q 292 457 284 457 q 302 481 302 473 l 298 481 q 283 467 290 481 m 760 472 l 764 472 q 755 452 755 460 l 745 452 l 745 457 q 760 472 745 465 m 1000 452 q 1020 408 1020 422 q 1010 398 1020 398 q 991 442 991 405 q 1000 452 992 452 m 878 437 q 888 428 888 436 l 888 418 l 878 422 l 868 408 l 868 398 q 878 413 878 398 l 888 413 l 888 408 q 868 383 878 386 l 858 383 l 858 403 q 878 437 858 429 m 1000 433 l 1000 428 q 1005 413 1005 418 l 1010 413 l 1010 418 q 1005 433 1005 427 l 1000 433 m 332 433 l 337 433 l 337 418 q 351 389 340 389 l 351 393 l 342 428 q 361 383 361 421 q 351 374 361 374 q 322 428 322 393 l 332 433 m 966 408 l 971 398 l 971 389 q 941 374 966 374 l 917 374 q 907 383 907 374 l 907 389 q 966 408 907 404 m 170 403 l 180 403 l 170 359 l 160 359 l 170 403 m 922 383 l 937 383 l 961 389 l 961 398 q 922 383 922 393 m 189 363 l 199 363 l 189 324 l 180 324 q 189 363 189 356 m 794 359 q 819 339 817 349 q 804 324 819 332 q 779 344 781 334 q 794 359 779 351 m 430 354 q 465 324 452 346 q 455 315 465 315 q 401 339 401 322 q 430 354 401 349 m 794 344 q 804 334 795 334 l 804 344 l 794 344 m 971 349 l 986 349 q 996 339 996 347 q 961 310 996 335 q 951 324 951 310 q 971 349 961 347 m 416 339 l 416 334 l 450 324 l 450 330 q 440 339 450 339 l 416 339 m 961 324 l 961 319 q 976 334 968 319 l 976 339 q 961 324 969 339 m 209 339 l 219 339 q 209 285 209 304 l 199 285 q 209 339 199 297 m 882 334 q 907 300 907 328 q 897 290 907 290 q 868 324 868 302 l 882 334 m 882 324 l 882 315 q 897 300 882 307 l 897 310 q 882 324 897 317 m 302 324 q 337 290 337 324 l 337 280 l 332 280 q 288 319 288 288 q 302 324 297 324 m 578 315 l 578 310 l 583 310 q 597 315 592 315 l 597 319 l 593 319 q 578 315 583 315 m 302 315 l 302 310 q 332 290 312 290 q 302 315 332 299 m 705 304 q 720 245 720 285 l 711 241 q 696 256 703 241 l 696 295 q 705 304 697 304 m 499 300 l 504 300 q 524 265 524 292 l 524 251 q 514 241 524 241 q 489 295 496 241 l 499 300 m 504 285 l 504 280 l 509 256 l 514 256 l 514 271 q 509 285 509 280 l 504 285 m 784 285 q 819 231 807 285 q 809 221 809 229 q 774 256 795 221 l 774 275 q 784 285 776 285 m 445 280 l 455 280 q 465 236 465 248 l 465 226 l 455 226 q 435 265 442 226 l 435 271 q 445 280 437 280 m 705 275 l 705 256 l 711 256 l 711 275 l 705 275 m 622 271 l 642 271 q 661 251 649 271 l 661 245 q 627 260 640 260 l 627 251 l 661 241 q 666 245 661 245 l 666 241 q 656 231 666 231 q 612 256 612 242 l 612 260 q 622 271 614 271 m 789 265 l 789 256 q 799 236 799 243 l 809 236 l 809 241 q 789 265 800 263 m 450 256 l 450 245 l 455 245 l 455 256 l 450 256 m 956 241 l 966 241 l 966 216 l 956 216 l 956 241 m 932 226 l 937 226 l 937 212 l 932 212 l 932 226 m 587 221 q 622 201 622 214 l 622 197 q 612 186 622 186 l 607 186 q 568 201 571 186 l 568 206 q 587 221 568 214 m 583 206 l 583 201 l 607 197 l 612 197 q 597 212 612 201 q 583 206 588 206 m 342 206 l 347 206 q 337 172 337 186 l 327 172 q 342 206 332 206 m 902 206 l 912 206 l 907 157 l 897 157 l 897 162 l 902 206 m 927 197 l 937 197 l 937 172 l 927 172 l 927 197 m 381 186 l 391 186 q 381 142 381 155 l 371 142 q 381 186 371 155 m 725 153 l 735 153 q 725 83 731 146 l 715 83 q 725 153 715 96 m 770 153 l 779 153 l 774 103 l 774 98 l 764 98 l 764 103 q 770 153 770 146 m 799 153 l 809 153 l 804 118 l 794 118 l 799 153 m 553 142 l 563 142 q 553 108 553 118 l 543 108 q 553 142 553 133 m 504 133 l 514 133 l 509 98 l 499 98 l 504 133 m 607 123 l 607 118 q 593 79 593 90 l 583 79 q 607 123 596 123 z "},".":{"ha":1141,"x_min":34,"x_max":1101,"o":"m 583 975 l 614 975 q 1055 667 891 975 q 1101 456 1101 565 q 772 46 1101 186 q 526 0 635 0 q 54 308 179 0 q 34 452 34 388 l 34 467 q 496 964 34 800 q 583 975 496 973 m 450 913 l 450 908 l 511 908 q 844 800 629 908 l 865 800 l 865 805 q 690 887 849 836 q 650 939 661 909 l 624 944 q 450 913 541 944 m 701 939 l 701 933 l 793 903 l 798 903 l 798 908 q 706 939 720 939 l 701 939 m 578 841 l 578 836 l 588 836 l 588 841 l 578 841 m 388 816 q 644 718 388 779 q 962 621 909 679 l 972 626 q 1008 574 994 615 q 1044 482 1044 545 q 967 400 1044 440 q 962 405 962 400 q 942 395 942 401 q 947 380 947 385 l 937 380 q 932 400 932 397 l 921 395 q 686 472 845 395 q 654 416 673 435 q 854 318 724 416 q 860 323 854 323 q 890 252 890 274 q 880 210 880 233 l 880 205 l 885 180 l 880 180 q 870 205 870 180 q 850 159 850 205 q 834 180 844 159 q 814 144 814 180 l 803 144 l 803 164 l 778 164 l 778 159 l 783 134 l 772 134 q 721 174 772 174 q 680 195 721 180 q 670 184 680 184 l 670 190 l 675 200 q 234 344 385 344 l 234 323 l 224 323 l 224 349 l 214 349 l 188 344 l 188 334 q 311 252 216 281 q 532 82 532 200 l 526 82 q 500 92 509 92 q 490 82 500 82 q 465 118 465 109 l 460 118 l 460 113 l 465 82 l 454 77 q 414 154 448 154 l 414 149 l 418 98 l 408 98 l 404 123 l 404 159 q 332 195 404 173 l 332 149 l 336 123 l 326 118 q 316 174 316 138 l 316 184 l 326 200 l 280 205 l 280 200 q 286 154 286 172 q 275 144 286 144 l 270 144 l 270 210 l 234 216 l 234 210 l 239 174 l 229 170 q 218 220 218 193 l 203 220 l 203 210 l 193 210 q 136 252 193 233 q 116 267 136 256 q 500 41 241 41 l 557 41 q 1008 267 836 41 q 1070 482 1070 355 q 988 734 1070 593 q 937 703 973 718 q 639 800 876 703 q 454 831 532 831 l 429 831 q 388 816 391 831 m 726 831 l 721 821 q 772 805 736 821 l 778 805 l 778 810 q 726 831 771 810 m 96 600 l 100 600 q 306 646 115 616 l 408 636 l 408 652 l 418 652 q 429 636 418 636 l 434 636 q 424 672 424 656 l 429 672 l 454 631 l 465 631 q 382 703 465 681 q 290 826 304 768 q 96 600 162 758 m 290 785 q 300 774 300 783 l 290 774 l 290 785 m 254 774 l 264 774 q 270 754 264 772 l 260 754 l 254 774 m 368 744 q 418 708 368 735 l 424 708 l 424 713 q 372 744 410 713 l 368 744 m 870 744 q 942 728 870 728 l 952 728 l 952 734 q 870 744 885 744 m 578 708 l 578 703 l 604 703 l 604 708 l 578 708 m 439 703 l 439 698 q 470 687 453 698 l 475 687 l 475 692 q 450 703 466 692 l 439 703 m 500 682 l 500 677 l 511 677 l 511 682 l 500 682 m 522 677 l 522 672 q 547 667 538 672 l 547 677 l 522 677 m 465 672 l 465 667 q 470 631 470 646 q 793 518 623 631 q 906 482 854 482 l 926 482 q 957 498 953 482 l 957 508 q 736 621 957 575 l 732 595 l 721 595 l 726 621 l 716 621 l 706 616 q 506 656 706 626 q 500 662 506 662 l 486 662 q 465 672 486 668 m 952 677 l 962 662 l 962 656 q 942 672 942 664 l 952 677 m 752 605 l 757 605 l 757 570 l 747 570 l 747 580 l 752 605 m 526 595 l 526 590 l 536 590 l 536 595 l 526 595 m 136 580 l 136 574 l 146 574 l 146 580 l 136 580 m 111 528 q 244 488 111 488 q 454 472 355 488 l 454 508 q 465 564 465 553 q 378 580 437 574 l 378 564 l 368 564 l 368 580 q 111 528 111 574 m 778 580 l 783 570 q 768 549 775 549 l 762 559 q 778 580 770 580 m 486 503 l 486 492 q 511 456 486 472 l 511 436 q 572 410 539 410 l 578 410 q 660 488 660 427 q 568 564 660 554 q 486 503 486 556 m 362 549 l 372 549 l 372 538 l 362 538 l 362 549 m 142 534 q 146 528 142 528 q 142 513 142 518 l 132 513 l 132 523 q 142 534 133 534 m 362 513 l 372 513 l 372 508 l 362 508 l 362 513 m 70 467 l 70 462 q 85 338 75 399 l 90 338 q 172 410 90 390 l 172 416 q 70 467 134 418 m 885 462 l 885 456 l 896 456 l 896 462 l 885 462 m 342 431 l 342 420 l 352 420 q 342 431 352 431 m 1044 436 l 1055 436 l 1055 426 l 1044 426 l 1044 436 m 90 420 l 100 420 l 100 400 l 85 400 l 85 405 q 90 420 90 415 m 357 400 l 357 395 q 665 277 498 386 q 762 226 709 241 l 762 236 l 757 246 l 762 246 q 772 226 772 246 l 778 226 q 783 236 778 236 q 675 334 765 291 q 372 400 477 400 l 357 400 m 593 385 l 593 380 l 608 380 l 608 385 l 593 385 m 1039 390 l 1050 390 q 1039 380 1050 380 l 1039 390 m 736 370 l 736 364 l 747 364 l 747 370 l 736 370 m 906 374 l 911 374 q 921 364 921 373 l 921 354 l 911 354 q 906 374 911 366 m 168 359 l 168 349 q 178 359 178 349 l 168 359 m 1014 359 l 1024 359 l 1029 334 l 1024 334 q 1014 344 1014 334 l 1014 359 m 875 354 l 890 354 l 890 323 l 880 323 l 875 354 m 993 338 l 1003 338 q 1014 292 1014 300 l 1003 292 q 993 338 1003 300 m 250 323 l 260 323 l 254 298 l 244 298 q 250 323 250 306 m 967 318 l 978 318 l 983 267 l 972 267 l 967 302 l 967 318 m 280 292 l 290 292 l 290 277 l 280 277 l 280 292 m 932 292 l 942 292 l 952 231 l 947 231 q 932 292 935 231 m 901 262 l 911 262 q 921 210 921 218 l 911 210 l 901 262 m 844 231 q 854 220 846 220 l 854 231 l 844 231 m 368 170 l 372 170 l 372 164 l 378 102 l 368 102 q 357 164 357 143 l 368 170 m 680 149 l 686 149 q 701 98 696 149 l 690 98 q 680 149 680 141 m 736 149 l 747 149 l 747 134 l 752 98 l 742 98 l 736 149 m 639 138 l 650 138 q 665 77 650 111 l 654 72 q 639 128 639 106 l 639 138 m 614 128 q 618 123 614 123 l 614 113 l 614 102 l 618 77 l 604 77 l 604 118 q 614 128 605 128 m 552 123 l 562 123 l 568 72 l 568 66 l 557 66 l 552 118 l 552 123 z "},"/":{"ha":1123,"x_min":27,"x_max":1082,"o":"m 62 971 l 932 971 l 933 970 q 932 867 932 910 q 916 863 918 864 l 840 573 l 1047 323 q 1048 323 1048 323 q 1046 129 1048 298 q 1082 66 1072 106 l 1082 26 q 1052 -37 1082 1 q 1038 -49 1051 -37 q 1015 -63 1029 -55 q 918 -90 985 -81 q 880 -92 898 -92 l 833 -92 q 701 -62 761 -92 q 657 -25 683 -53 q 651 -17 657 -23 q 650 -20 651 -18 q 651 -20 651 -20 q 640 -31 645 -31 l 635 -31 q 630 -21 630 -28 q 631 -12 630 -20 q 627 -2 628 -2 q 625 -17 627 -3 l 625 -20 q 629 -43 629 -37 q 616 -64 627 -64 q 603 -37 603 -64 q 597 2 601 2 l 530 2 l 531 -2 l 531 -8 q 518 -30 528 -30 q 509 -13 509 -30 q 507 -5 508 -11 q 500 -8 505 -7 q 498 -22 499 -18 q 499 -36 499 -30 q 485 -65 496 -65 l 483 -65 q 473 -50 475 -65 q 474 -26 473 -43 q 471 2 474 2 l 324 2 l 325 -9 q 311 -29 325 -29 q 302 -14 303 -29 l 302 -13 q 302 -5 302 -10 q 302 -1 302 -4 l 297 -1 q 288 -20 288 -12 q 288 -28 288 -21 q 273 -59 285 -59 l 267 -59 q 256 -10 261 -59 q 253 2 254 -10 l 131 2 q 129 -4 130 2 q 133 -33 133 -25 l 133 -42 q 122 -56 133 -54 l 121 -56 q 107 -22 107 -56 l 107 -13 q 102 -1 107 -5 l 92 -2 l 92 -6 q 74 -42 89 -42 q 58 -17 58 -37 l 58 -3 q 54 2 58 2 l 28 2 q 27 3 27 2 l 27 345 l 202 548 l 171 627 q 80 852 115 766 q 67 857 67 855 l 60 970 l 62 971 m 83 956 q 86 871 83 920 q 686 879 108 871 l 688 880 l 690 879 q 900 881 857 881 q 916 882 912 882 q 916 885 916 885 l 913 955 l 912 955 q 83 956 344 956 m 706 951 q 718 935 718 949 l 718 930 q 712 917 718 924 l 712 916 q 731 899 731 906 l 731 897 q 727 891 731 893 l 721 891 q 697 905 719 891 q 688 909 689 909 l 688 907 q 682 886 688 886 l 677 886 q 671 891 673 886 q 671 911 671 908 q 671 937 671 933 q 691 951 671 948 l 706 951 m 314 950 q 344 940 336 947 q 352 920 352 932 q 317 887 352 892 q 306 899 306 890 l 306 903 q 305 943 306 918 q 314 950 305 949 m 100 949 l 109 949 q 113 945 110 949 q 112 923 112 928 q 113 912 112 922 q 125 918 119 918 l 127 918 q 146 903 134 918 q 159 946 153 946 l 169 946 q 173 942 170 946 l 173 935 q 162 885 168 921 q 153 880 157 880 l 149 880 q 125 896 141 880 q 112 882 118 882 l 108 882 q 98 897 100 882 q 94 920 94 911 l 94 934 q 100 949 94 947 m 581 949 l 582 949 q 589 942 589 948 l 589 940 q 583 932 589 932 l 577 932 l 575 931 q 578 890 577 918 q 570 885 576 885 l 570 885 q 560 897 560 885 q 558 929 560 904 l 547 927 l 543 927 q 536 932 536 927 l 536 939 q 567 947 536 947 q 581 949 567 949 m 873 949 q 881 942 881 948 l 881 937 q 873 925 881 934 q 888 916 888 924 l 888 914 q 872 891 888 905 q 864 886 872 886 l 863 886 q 854 893 854 886 l 854 899 q 859 908 854 903 l 859 909 q 848 920 848 912 l 848 925 q 868 949 850 935 l 873 949 m 387 948 l 391 948 q 397 942 397 948 l 397 937 q 387 929 397 929 q 375 911 378 918 q 388 901 380 901 l 391 901 q 401 905 391 901 l 405 905 q 412 901 410 905 l 412 893 q 396 883 412 885 l 381 883 q 358 901 369 883 q 357 907 357 904 l 357 914 q 379 947 357 929 q 387 948 383 948 m 612 948 q 633 946 616 946 l 651 946 q 659 938 659 944 l 659 936 q 654 931 659 935 l 644 932 q 620 932 631 932 l 616 932 l 616 924 l 624 923 l 634 923 l 639 922 q 643 923 640 923 l 645 923 q 649 919 646 923 l 649 916 q 642 909 649 911 l 618 911 l 618 909 l 618 907 q 623 903 618 903 q 633 907 624 903 l 637 907 q 646 897 644 907 l 646 895 q 622 885 646 885 q 601 904 601 885 q 599 931 601 912 l 599 935 q 612 948 604 948 m 205 947 q 227 916 227 939 q 208 884 227 894 q 203 884 207 884 q 179 911 182 884 l 179 916 q 197 947 181 947 q 205 947 200 947 m 254 947 q 290 925 281 947 q 292 918 292 921 l 292 913 q 272 887 292 897 q 262 885 266 885 q 236 911 239 885 l 236 918 q 254 947 241 947 m 476 947 q 488 943 486 943 l 498 943 q 522 945 502 943 q 526 938 526 943 l 526 936 q 518 927 526 927 q 511 928 516 927 l 507 927 l 507 925 q 512 897 507 914 l 512 897 q 504 888 511 888 q 494 896 497 888 q 490 923 490 916 l 490 927 l 487 927 q 468 935 468 930 l 468 943 q 476 947 470 947 m 447 944 l 450 944 q 460 924 458 944 l 460 916 q 439 884 457 884 l 433 884 q 410 920 416 884 l 410 928 q 418 943 410 943 l 425 943 q 429 939 427 943 l 429 932 q 427 927 429 930 q 437 901 427 910 q 443 920 443 909 l 440 932 l 440 938 q 447 944 440 944 m 798 944 q 817 943 804 944 q 827 944 823 944 q 834 937 834 943 l 834 936 q 830 929 834 932 q 812 928 816 928 q 804 929 805 929 l 804 924 l 814 924 q 823 927 815 924 q 830 920 830 926 q 808 909 830 909 l 804 909 l 804 906 l 824 907 q 829 900 829 905 q 809 891 829 891 l 800 891 q 789 906 791 891 l 789 934 q 798 944 789 944 m 760 912 l 762 912 q 772 901 772 912 l 772 899 q 761 888 772 890 l 758 888 q 749 903 749 888 q 760 912 749 911 m 817 831 q 819 827 819 831 q 810 783 814 795 q 820 776 810 777 q 850 789 836 776 q 857 807 857 800 l 857 812 q 827 845 857 822 l 823 845 q 817 831 817 842 m 791 833 l 791 812 l 790 812 q 766 836 772 836 l 765 836 q 758 829 758 834 q 758 812 758 825 q 757 789 758 810 q 764 782 758 782 l 765 782 q 772 789 772 782 q 770 792 772 791 q 772 810 772 796 l 773 810 q 792 793 786 793 l 797 793 q 805 813 805 799 l 805 827 q 808 833 808 830 l 808 835 q 800 843 808 841 q 791 833 791 843 m 370 812 q 353 835 364 818 l 349 836 l 348 836 q 339 828 339 836 q 340 790 340 799 l 340 774 q 347 768 340 768 l 351 768 q 357 776 357 768 l 357 798 l 358 798 q 370 793 364 793 l 375 793 q 391 808 382 793 l 391 808 q 403 774 397 774 q 407 773 404 773 l 408 773 q 415 781 415 773 l 415 783 q 397 840 403 840 l 389 840 q 373 816 381 840 q 370 812 371 812 m 420 833 q 429 773 424 795 l 435 772 q 444 781 444 772 l 442 793 q 457 815 457 800 q 439 840 457 829 l 427 840 q 420 833 420 840 m 471 833 q 471 827 471 828 q 471 814 471 819 l 471 783 q 477 775 471 775 l 483 775 q 487 781 487 777 l 487 795 q 488 833 487 810 q 479 840 486 840 q 471 833 471 839 m 169 808 l 169 804 q 194 760 174 760 l 207 760 q 227 762 214 760 q 232 760 229 760 l 234 760 q 241 769 241 760 q 230 778 241 777 l 229 778 q 201 775 224 778 q 185 804 189 775 l 185 805 q 202 821 185 819 l 219 817 l 220 817 q 227 821 224 817 l 227 829 q 201 837 222 837 q 169 808 169 833 m 503 829 q 505 793 505 811 l 505 784 q 519 773 505 773 q 546 781 546 774 l 546 784 q 538 791 546 791 q 522 789 532 791 l 520 790 l 520 803 q 515 836 520 836 l 510 836 q 503 829 503 836 m 250 802 l 250 794 q 277 761 250 774 q 288 760 280 760 q 322 781 316 760 q 324 791 324 787 l 324 792 q 304 827 324 817 q 281 836 292 831 l 277 836 q 250 802 250 825 m 554 809 l 554 808 q 559 800 554 804 q 581 777 564 777 l 587 777 q 618 789 618 782 l 618 790 q 611 797 618 797 l 610 797 l 585 792 l 583 792 q 577 795 579 792 l 577 797 l 582 797 q 599 817 599 797 q 583 836 599 833 l 581 836 q 560 816 568 836 q 554 809 554 814 m 703 793 l 703 785 q 711 776 703 776 l 714 776 q 721 782 721 776 q 720 792 720 791 q 726 796 721 792 q 730 782 728 796 q 738 777 733 777 l 741 777 q 748 781 746 777 l 748 787 q 745 797 745 796 q 748 803 748 798 l 748 808 q 738 814 747 812 q 721 836 730 836 l 715 836 q 708 820 708 833 l 703 793 m 623 827 l 623 814 q 635 774 623 797 l 641 773 q 665 790 657 773 q 667 803 667 798 q 642 833 667 829 l 633 833 q 623 827 627 833 m 552 734 l 552 730 q 551 697 552 718 q 559 688 552 688 l 562 688 q 568 694 568 688 q 567 701 568 696 q 568 720 568 711 q 568 720 568 720 q 603 696 599 696 q 607 694 604 694 q 616 700 614 694 l 616 705 q 606 712 616 710 q 588 726 592 722 q 594 742 594 734 q 570 764 594 764 q 552 734 552 764 m 743 733 q 764 692 745 700 l 768 691 l 777 691 q 792 703 792 693 l 792 705 q 788 711 792 709 l 781 711 q 773 707 777 707 l 770 707 q 761 720 766 707 l 762 721 l 772 721 q 787 729 783 721 l 787 742 q 774 762 787 755 q 770 762 772 762 l 761 762 q 743 733 749 762 m 797 697 q 805 688 799 688 l 810 688 q 843 716 829 688 q 844 724 844 722 l 844 730 q 820 760 844 741 q 813 762 820 762 l 812 762 q 802 732 802 762 q 797 697 798 716 m 686 753 l 686 749 q 703 741 686 741 l 707 740 q 694 726 703 726 q 690 717 690 722 q 692 711 690 714 q 686 693 686 696 l 686 692 q 694 685 686 685 l 715 685 q 722 691 722 685 l 722 697 q 717 701 720 701 l 707 701 l 707 701 q 712 711 707 703 q 723 708 720 708 l 724 708 q 731 715 731 708 q 719 726 731 723 l 719 726 q 725 745 725 740 q 699 757 725 757 q 692 758 699 758 q 686 753 689 758 m 640 753 l 640 726 q 646 696 640 696 l 652 696 q 659 701 657 696 q 658 739 658 724 l 658 750 q 650 758 658 758 l 647 758 q 640 753 642 758 m 471 711 q 484 688 475 688 q 494 686 484 686 q 526 710 518 686 l 528 722 q 506 755 528 747 q 496 757 499 757 q 471 711 471 749 m 392 749 l 392 746 q 415 736 392 738 q 420 734 420 736 q 421 701 420 732 l 421 691 q 429 682 421 682 l 433 682 l 437 686 l 436 734 l 437 734 q 444 732 443 732 l 448 732 q 452 736 450 732 l 452 742 q 410 753 452 753 q 399 756 404 756 q 392 749 392 755 m 326 716 l 326 711 q 356 678 330 678 l 357 678 q 391 689 372 678 q 392 694 392 693 q 385 701 391 701 l 382 701 q 357 694 361 694 l 356 694 q 342 713 345 694 q 349 729 342 720 l 357 728 q 364 734 364 728 q 355 748 363 748 l 351 748 q 326 716 334 748 m 232 738 q 233 726 233 730 l 233 718 q 229 691 233 710 l 229 691 q 201 738 203 726 q 194 740 197 740 l 193 740 q 186 730 186 740 l 186 728 q 219 672 186 724 q 226 665 219 670 l 233 665 q 249 716 245 665 l 249 722 q 250 729 250 728 l 250 732 q 241 744 249 744 l 237 744 q 232 738 235 744 m 264 736 q 277 675 268 675 q 306 672 283 672 l 311 672 q 317 678 317 672 l 317 683 q 300 691 310 691 q 294 688 298 691 l 290 688 q 284 696 284 688 l 284 699 q 302 704 284 701 q 307 711 307 707 l 307 712 q 298 720 307 719 q 282 717 287 717 q 281 726 281 718 q 281 726 281 726 q 294 726 290 726 l 298 726 q 312 734 312 726 q 307 742 311 742 q 293 741 296 741 q 275 743 281 743 l 269 743 q 264 736 264 741 m 581 486 q 730 534 654 534 q 785 527 760 534 l 785 528 q 696 568 758 568 q 581 486 613 568 m 247 512 l 247 511 q 310 523 276 523 l 319 523 q 464 473 387 523 q 467 472 464 472 q 414 539 450 519 q 336 559 382 559 q 247 512 273 559 m 587 425 q 745 467 640 467 q 848 454 798 467 l 848 455 q 814 496 840 482 q 741 515 784 515 l 728 515 q 593 439 637 515 q 587 425 587 427 m 209 454 l 209 452 q 292 464 248 464 q 475 408 387 464 l 477 408 l 477 408 q 414 475 456 453 q 313 498 372 498 q 209 454 246 498 m 585 351 l 929 351 l 929 352 q 895 397 919 372 q 758 448 838 448 l 755 448 q 607 399 661 448 q 585 351 585 370 m 142 359 q 155 357 153 357 q 364 356 197 357 l 377 355 q 385 356 380 356 q 407 355 397 355 q 408 356 408 355 l 412 355 l 458 355 q 483 355 467 355 q 407 417 465 393 q 294 436 355 436 l 278 436 q 161 387 208 436 q 142 359 142 363 m 52 327 q 51 24 51 145 l 52 24 q 568 26 464 26 q 589 27 586 27 l 589 26 l 591 27 l 633 27 q 630 55 631 41 q 670 131 630 89 q 855 188 737 188 q 1019 150 954 188 l 1024 146 l 1025 146 l 1025 159 q 1026 314 1025 212 l 370 323 l 368 323 q 358 323 367 323 l 52 327 m 88 310 l 90 310 q 132 286 100 310 q 166 243 154 276 q 174 181 174 210 l 174 166 q 159 91 174 133 q 136 62 153 77 q 88 35 115 35 l 87 35 q 71 44 74 35 q 72 54 71 48 q 70 75 71 65 q 69 121 70 89 q 75 254 72 221 q 81 305 75 305 q 88 310 85 310 m 679 309 q 703 307 688 307 q 722 309 705 307 q 805 300 805 304 q 810 268 810 296 q 796 256 807 256 l 770 256 l 770 256 q 774 193 774 214 q 768 186 772 186 q 753 186 760 186 q 729 186 739 186 q 720 199 721 186 q 715 262 719 262 l 707 262 q 686 261 699 262 q 669 274 669 261 q 669 290 669 283 l 669 292 q 679 309 669 307 m 431 307 q 488 297 445 305 q 492 288 492 293 q 483 208 486 288 q 498 48 490 103 l 498 47 q 489 34 498 34 q 446 47 446 38 q 422 94 439 67 q 410 114 421 94 l 409 114 l 409 113 q 420 46 417 58 l 420 43 q 413 36 420 36 l 410 36 q 354 45 354 36 q 351 55 354 47 q 353 60 351 57 q 355 142 353 69 l 356 142 q 355 145 355 144 q 353 194 353 182 l 353 235 q 353 290 353 255 q 361 304 353 304 q 379 306 366 304 q 393 292 393 306 q 422 195 407 243 l 423 195 q 424 211 424 206 l 424 237 q 420 282 424 248 q 431 307 420 307 m 274 304 l 286 304 q 325 277 302 304 q 344 216 337 256 q 345 201 345 208 l 345 192 q 330 127 345 165 q 293 74 320 110 q 252 43 271 43 l 245 43 q 198 99 214 43 q 194 138 197 106 q 218 256 194 184 q 244 288 225 269 q 264 299 251 292 q 274 304 267 304 m 892 303 q 953 297 910 300 q 959 290 959 295 l 959 290 q 930 271 959 281 q 907 260 930 270 l 907 258 q 935 239 935 250 l 935 238 q 917 224 935 233 q 871 193 873 193 l 868 193 q 840 202 857 199 q 836 210 836 208 q 857 238 836 215 l 855 239 l 852 239 q 825 252 825 242 l 825 254 q 860 288 831 271 q 885 302 875 302 l 892 303 m 526 300 l 528 300 q 573 292 541 295 q 579 281 579 287 q 578 252 578 267 l 578 229 q 579 192 578 212 q 578 147 578 166 l 580 146 l 583 146 q 606 192 595 146 q 608 216 608 201 l 608 240 q 603 285 608 261 q 613 294 603 294 l 623 294 q 649 285 649 294 l 649 271 q 650 257 649 263 q 648 235 648 243 q 649 208 648 220 q 648 155 648 184 l 648 146 q 635 103 648 113 q 610 69 624 86 q 579 50 600 50 q 532 75 560 50 q 510 170 510 104 q 507 207 507 181 l 507 227 q 519 296 510 296 q 526 300 522 296 m 254 216 q 245 165 248 191 q 256 134 245 144 q 268 173 268 156 l 268 178 q 254 216 264 216 m 110 210 l 110 210 q 113 146 112 192 l 114 146 q 125 180 125 172 q 110 210 125 195 m 658 55 q 677 45 658 47 q 695 19 683 42 q 723 2 709 2 q 751 -16 726 2 q 766 -20 758 -20 q 797 -13 773 -20 q 802 -12 798 -12 q 821 -24 808 -12 q 849 -35 836 -32 l 851 -34 l 854 -35 q 883 -29 875 -29 q 915 -31 894 -29 q 970 -1 963 -31 q 1002 16 975 16 q 1032 27 1028 16 q 1042 62 1036 62 q 1055 69 1042 66 l 1055 73 q 1028 121 1055 94 q 923 165 987 155 q 859 170 900 169 q 736 144 801 170 q 694 117 713 133 q 661 68 665 87 q 658 55 661 66 m 871 164 l 879 164 q 889 158 882 164 q 904 146 894 158 q 921 164 911 164 q 937 150 937 158 q 921 118 928 118 q 912 114 920 116 q 891 126 899 117 q 878 138 882 134 q 877 135 878 137 q 878 127 878 131 q 871 123 875 123 q 861 134 864 123 q 864 155 862 135 q 871 164 869 163 m 809 161 l 815 161 q 834 141 834 152 l 834 140 q 814 117 834 124 q 808 115 813 115 l 805 115 q 788 134 791 115 q 809 161 788 153 m 752 138 q 762 127 759 138 q 768 119 768 123 q 758 105 768 115 l 761 102 q 772 106 762 102 q 780 98 780 104 l 780 97 q 758 75 780 81 l 753 75 q 726 101 737 75 q 725 107 725 105 q 750 138 725 127 l 752 138 m 980 138 l 987 138 q 1008 126 1008 133 q 1014 115 1014 121 l 1014 113 q 1003 100 1012 100 q 983 117 992 100 l 980 119 l 976 119 q 985 96 976 116 q 990 77 990 79 q 968 56 990 66 l 966 56 q 939 73 950 56 q 937 79 937 77 q 949 96 940 96 q 956 90 952 96 l 963 86 q 969 91 966 87 q 956 113 956 105 l 956 118 q 980 138 956 130 m 861 115 q 922 90 909 115 q 924 81 924 85 l 924 79 q 882 50 924 58 q 862 48 875 48 l 858 48 q 838 50 838 48 q 837 50 837 50 q 798 62 819 50 q 790 82 790 71 q 812 109 790 100 q 861 115 837 115 m 813 87 q 817 83 815 83 q 863 90 838 90 q 897 85 879 90 q 901 87 900 87 l 901 90 q 857 99 897 97 q 813 87 813 96 m 696 94 l 699 94 q 740 70 705 94 q 745 58 745 64 l 745 56 q 728 33 734 33 q 683 65 701 41 l 682 71 q 696 94 682 79 z "},":":{"ha":1123,"x_min":27,"x_max":1082,"o":"m 62 971 l 932 971 l 933 970 q 932 867 932 910 q 916 863 918 864 l 840 573 l 1047 323 q 1048 323 1048 323 q 1046 129 1048 298 q 1082 66 1072 106 l 1082 26 q 1052 -37 1082 1 q 1038 -49 1051 -37 q 1015 -63 1029 -55 q 918 -90 985 -81 q 880 -92 898 -92 l 833 -92 q 701 -62 761 -92 q 657 -25 683 -53 q 651 -17 657 -23 q 650 -20 651 -18 q 651 -20 651 -20 q 640 -31 645 -31 l 635 -31 q 630 -21 630 -28 q 631 -12 630 -20 q 627 -2 628 -2 q 625 -17 627 -3 l 625 -20 q 629 -43 629 -37 q 616 -64 627 -64 q 603 -37 603 -64 q 597 2 601 2 l 530 2 l 531 -2 l 531 -8 q 518 -30 528 -30 q 509 -13 509 -30 q 507 -5 508 -11 q 500 -8 505 -7 q 498 -22 499 -18 q 499 -36 499 -30 q 485 -65 496 -65 l 483 -65 q 473 -50 475 -65 q 474 -26 473 -43 q 471 2 474 2 l 324 2 l 325 -9 q 311 -29 325 -29 q 302 -14 303 -29 l 302 -13 q 302 -5 302 -10 q 302 -1 302 -4 l 297 -1 q 288 -20 288 -12 q 288 -28 288 -21 q 273 -59 285 -59 l 267 -59 q 256 -10 261 -59 q 253 2 254 -10 l 131 2 q 129 -4 130 2 q 133 -33 133 -25 l 133 -42 q 122 -56 133 -54 l 121 -56 q 107 -22 107 -56 l 107 -13 q 102 -1 107 -5 l 92 -2 l 92 -6 q 74 -42 89 -42 q 58 -17 58 -37 l 58 -3 q 54 2 58 2 l 28 2 q 27 3 27 2 l 27 345 l 202 548 l 171 627 q 80 852 115 766 q 67 857 67 855 l 60 970 l 62 971 m 83 956 q 86 871 83 920 q 686 879 108 871 l 688 880 l 690 879 q 900 881 857 881 q 916 882 912 882 q 916 885 916 885 l 913 955 l 912 955 q 83 956 344 956 m 706 951 q 718 935 718 949 l 718 930 q 712 917 718 924 l 712 916 q 731 899 731 906 l 731 897 q 727 891 731 893 l 721 891 q 697 905 719 891 q 688 909 689 909 l 688 907 q 682 886 688 886 l 677 886 q 671 891 673 886 q 671 911 671 908 q 671 937 671 933 q 691 951 671 948 l 706 951 m 314 950 q 344 940 336 947 q 352 920 352 932 q 317 887 352 892 q 306 899 306 890 l 306 903 q 305 943 306 918 q 314 950 305 949 m 100 949 l 109 949 q 113 945 110 949 q 112 923 112 928 q 113 912 112 922 q 125 918 119 918 l 127 918 q 146 903 134 918 q 159 946 153 946 l 169 946 q 173 942 170 946 l 173 935 q 162 885 168 921 q 153 880 157 880 l 149 880 q 125 896 141 880 q 112 882 118 882 l 108 882 q 98 897 100 882 q 94 920 94 911 l 94 934 q 100 949 94 947 m 581 949 l 582 949 q 589 942 589 948 l 589 940 q 583 932 589 932 l 577 932 l 575 931 q 578 890 577 918 q 570 885 576 885 l 570 885 q 560 897 560 885 q 558 929 560 904 l 547 927 l 543 927 q 536 932 536 927 l 536 939 q 567 947 536 947 q 581 949 567 949 m 873 949 q 881 942 881 948 l 881 937 q 873 925 881 934 q 888 916 888 924 l 888 914 q 872 891 888 905 q 864 886 872 886 l 863 886 q 854 893 854 886 l 854 899 q 859 908 854 903 l 859 909 q 848 920 848 912 l 848 925 q 868 949 850 935 l 873 949 m 387 948 l 391 948 q 397 942 397 948 l 397 937 q 387 929 397 929 q 375 911 378 918 q 388 901 380 901 l 391 901 q 401 905 391 901 l 405 905 q 412 901 410 905 l 412 893 q 396 883 412 885 l 381 883 q 358 901 369 883 q 357 907 357 904 l 357 914 q 379 947 357 929 q 387 948 383 948 m 612 948 q 633 946 616 946 l 651 946 q 659 938 659 944 l 659 936 q 654 931 659 935 l 644 932 q 620 932 631 932 l 616 932 l 616 924 l 624 923 l 634 923 l 639 922 q 643 923 640 923 l 645 923 q 649 919 646 923 l 649 916 q 642 909 649 911 l 618 911 l 618 909 l 618 907 q 623 903 618 903 q 633 907 624 903 l 637 907 q 646 897 644 907 l 646 895 q 622 885 646 885 q 601 904 601 885 q 599 931 601 912 l 599 935 q 612 948 604 948 m 205 947 q 227 916 227 939 q 208 884 227 894 q 203 884 207 884 q 179 911 182 884 l 179 916 q 197 947 181 947 q 205 947 200 947 m 254 947 q 290 925 281 947 q 292 918 292 921 l 292 913 q 272 887 292 897 q 262 885 266 885 q 236 911 239 885 l 236 918 q 254 947 241 947 m 476 947 q 488 943 486 943 l 498 943 q 522 945 502 943 q 526 938 526 943 l 526 936 q 518 927 526 927 q 511 928 516 927 l 507 927 l 507 925 q 512 897 507 914 l 512 897 q 504 888 511 888 q 494 896 497 888 q 490 923 490 916 l 490 927 l 487 927 q 468 935 468 930 l 468 943 q 476 947 470 947 m 447 944 l 450 944 q 460 924 458 944 l 460 916 q 439 884 457 884 l 433 884 q 410 920 416 884 l 410 928 q 418 943 410 943 l 425 943 q 429 939 427 943 l 429 932 q 427 927 429 930 q 437 901 427 910 q 443 920 443 909 l 440 932 l 440 938 q 447 944 440 944 m 798 944 q 817 943 804 944 q 827 944 823 944 q 834 937 834 943 l 834 936 q 830 929 834 932 q 812 928 816 928 q 804 929 805 929 l 804 924 l 814 924 q 823 927 815 924 q 830 920 830 926 q 808 909 830 909 l 804 909 l 804 906 l 824 907 q 829 900 829 905 q 809 891 829 891 l 800 891 q 789 906 791 891 l 789 934 q 798 944 789 944 m 760 912 l 762 912 q 772 901 772 912 l 772 899 q 761 888 772 890 l 758 888 q 749 903 749 888 q 760 912 749 911 m 817 831 q 819 827 819 831 q 810 783 814 795 q 820 776 810 777 q 850 789 836 776 q 857 807 857 800 l 857 812 q 827 845 857 822 l 823 845 q 817 831 817 842 m 791 833 l 791 812 l 790 812 q 766 836 772 836 l 765 836 q 758 829 758 834 q 758 812 758 825 q 757 789 758 810 q 764 782 758 782 l 765 782 q 772 789 772 782 q 770 792 772 791 q 772 810 772 796 l 773 810 q 792 793 786 793 l 797 793 q 805 813 805 799 l 805 827 q 808 833 808 830 l 808 835 q 800 843 808 841 q 791 833 791 843 m 370 812 q 353 835 364 818 l 349 836 l 348 836 q 339 828 339 836 q 340 790 340 799 l 340 774 q 347 768 340 768 l 351 768 q 357 776 357 768 l 357 798 l 358 798 q 370 793 364 793 l 375 793 q 391 808 382 793 l 391 808 q 403 774 397 774 q 407 773 404 773 l 408 773 q 415 781 415 773 l 415 783 q 397 840 403 840 l 389 840 q 373 816 381 840 q 370 812 371 812 m 420 833 q 429 773 424 795 l 435 772 q 444 781 444 772 l 442 793 q 457 815 457 800 q 439 840 457 829 l 427 840 q 420 833 420 840 m 471 833 q 471 827 471 828 q 471 814 471 819 l 471 783 q 477 775 471 775 l 483 775 q 487 781 487 777 l 487 795 q 488 833 487 810 q 479 840 486 840 q 471 833 471 839 m 169 808 l 169 804 q 194 760 174 760 l 207 760 q 227 762 214 760 q 232 760 229 760 l 234 760 q 241 769 241 760 q 230 778 241 777 l 229 778 q 201 775 224 778 q 185 804 189 775 l 185 805 q 202 821 185 819 l 219 817 l 220 817 q 227 821 224 817 l 227 829 q 201 837 222 837 q 169 808 169 833 m 503 829 q 505 793 505 811 l 505 784 q 519 773 505 773 q 546 781 546 774 l 546 784 q 538 791 546 791 q 522 789 532 791 l 520 790 l 520 803 q 515 836 520 836 l 510 836 q 503 829 503 836 m 250 802 l 250 794 q 277 761 250 774 q 288 760 280 760 q 322 781 316 760 q 324 791 324 787 l 324 792 q 304 827 324 817 q 281 836 292 831 l 277 836 q 250 802 250 825 m 554 809 l 554 808 q 559 800 554 804 q 581 777 564 777 l 587 777 q 618 789 618 782 l 618 790 q 611 797 618 797 l 610 797 l 585 792 l 583 792 q 577 795 579 792 l 577 797 l 582 797 q 599 817 599 797 q 583 836 599 833 l 581 836 q 560 816 568 836 q 554 809 554 814 m 703 793 l 703 785 q 711 776 703 776 l 714 776 q 721 782 721 776 q 720 792 720 791 q 726 796 721 792 q 730 782 728 796 q 738 777 733 777 l 741 777 q 748 781 746 777 l 748 787 q 745 797 745 796 q 748 803 748 798 l 748 808 q 738 814 747 812 q 721 836 730 836 l 715 836 q 708 820 708 833 l 703 793 m 623 827 l 623 814 q 635 774 623 797 l 641 773 q 665 790 657 773 q 667 803 667 798 q 642 833 667 829 l 633 833 q 623 827 627 833 m 552 734 l 552 730 q 551 697 552 718 q 559 688 552 688 l 562 688 q 568 694 568 688 q 567 701 568 696 q 568 720 568 711 q 568 720 568 720 q 603 696 599 696 q 607 694 604 694 q 616 700 614 694 l 616 705 q 606 712 616 710 q 588 726 592 722 q 594 742 594 734 q 570 764 594 764 q 552 734 552 764 m 743 733 q 764 692 745 700 l 768 691 l 777 691 q 792 703 792 693 l 792 705 q 788 711 792 709 l 781 711 q 773 707 777 707 l 770 707 q 761 720 766 707 l 762 721 l 772 721 q 787 729 783 721 l 787 742 q 774 762 787 755 q 770 762 772 762 l 761 762 q 743 733 749 762 m 797 697 q 805 688 799 688 l 810 688 q 843 716 829 688 q 844 724 844 722 l 844 730 q 820 760 844 741 q 813 762 820 762 l 812 762 q 802 732 802 762 q 797 697 798 716 m 686 753 l 686 749 q 703 741 686 741 l 707 740 q 694 726 703 726 q 690 717 690 722 q 692 711 690 714 q 686 693 686 696 l 686 692 q 694 685 686 685 l 715 685 q 722 691 722 685 l 722 697 q 717 701 720 701 l 707 701 l 707 701 q 712 711 707 703 q 723 708 720 708 l 724 708 q 731 715 731 708 q 719 726 731 723 l 719 726 q 725 745 725 740 q 699 757 725 757 q 692 758 699 758 q 686 753 689 758 m 640 753 l 640 726 q 646 696 640 696 l 652 696 q 659 701 657 696 q 658 739 658 724 l 658 750 q 650 758 658 758 l 647 758 q 640 753 642 758 m 471 711 q 484 688 475 688 q 494 686 484 686 q 526 710 518 686 l 528 722 q 506 755 528 747 q 496 757 499 757 q 471 711 471 749 m 392 749 l 392 746 q 415 736 392 738 q 420 734 420 736 q 421 701 420 732 l 421 691 q 429 682 421 682 l 433 682 l 437 686 l 436 734 l 437 734 q 444 732 443 732 l 448 732 q 452 736 450 732 l 452 742 q 410 753 452 753 q 399 756 404 756 q 392 749 392 755 m 326 716 l 326 711 q 356 678 330 678 l 357 678 q 391 689 372 678 q 392 694 392 693 q 385 701 391 701 l 382 701 q 357 694 361 694 l 356 694 q 342 713 345 694 q 349 729 342 720 l 357 728 q 364 734 364 728 q 355 748 363 748 l 351 748 q 326 716 334 748 m 232 738 q 233 726 233 730 l 233 718 q 229 691 233 710 l 229 691 q 201 738 203 726 q 194 740 197 740 l 193 740 q 186 730 186 740 l 186 728 q 219 672 186 724 q 226 665 219 670 l 233 665 q 249 716 245 665 l 249 722 q 250 729 250 728 l 250 732 q 241 744 249 744 l 237 744 q 232 738 235 744 m 264 736 q 277 675 268 675 q 306 672 283 672 l 311 672 q 317 678 317 672 l 317 683 q 300 691 310 691 q 294 688 298 691 l 290 688 q 284 696 284 688 l 284 699 q 302 704 284 701 q 307 711 307 707 l 307 712 q 298 720 307 719 q 282 717 287 717 q 281 726 281 718 q 281 726 281 726 q 294 726 290 726 l 298 726 q 312 734 312 726 q 307 742 311 742 q 293 741 296 741 q 275 743 281 743 l 269 743 q 264 736 264 741 m 581 486 q 730 534 654 534 q 785 527 760 534 l 785 528 q 696 568 758 568 q 581 486 613 568 m 247 512 l 247 511 q 310 523 276 523 l 319 523 q 464 473 387 523 q 467 472 464 472 q 414 539 450 519 q 336 559 382 559 q 247 512 273 559 m 587 425 q 745 467 640 467 q 848 454 798 467 l 848 455 q 814 496 840 482 q 741 515 784 515 l 728 515 q 593 439 637 515 q 587 425 587 427 m 209 454 l 209 452 q 292 464 248 464 q 475 408 387 464 l 477 408 l 477 408 q 414 475 456 453 q 313 498 372 498 q 209 454 246 498 m 585 351 l 929 351 l 929 352 q 895 397 919 372 q 758 448 838 448 l 755 448 q 607 399 661 448 q 585 351 585 370 m 142 359 q 155 357 153 357 q 364 356 197 357 l 377 355 q 385 356 380 356 q 407 355 397 355 q 408 356 408 355 l 412 355 l 458 355 q 483 355 467 355 q 407 417 465 393 q 294 436 355 436 l 278 436 q 161 387 208 436 q 142 359 142 363 m 52 327 q 51 24 51 145 l 52 24 q 568 26 464 26 q 589 27 586 27 l 589 26 l 591 27 l 633 27 q 630 55 631 41 q 670 131 630 89 q 855 188 737 188 q 1019 150 954 188 l 1024 146 l 1025 146 l 1025 159 q 1026 314 1025 212 l 370 323 l 368 323 q 358 323 367 323 l 52 327 m 88 310 l 90 310 q 132 286 100 310 q 166 243 154 276 q 174 181 174 210 l 174 166 q 159 91 174 133 q 136 62 153 77 q 88 35 115 35 l 87 35 q 71 44 74 35 q 72 54 71 48 q 70 75 71 65 q 69 121 70 89 q 75 254 72 221 q 81 305 75 305 q 88 310 85 310 m 679 309 q 703 307 688 307 q 722 309 705 307 q 805 300 805 304 q 810 268 810 296 q 796 256 807 256 l 770 256 l 770 256 q 774 193 774 214 q 768 186 772 186 q 753 186 760 186 q 729 186 739 186 q 720 199 721 186 q 715 262 719 262 l 707 262 q 686 261 699 262 q 669 274 669 261 q 669 290 669 283 l 669 292 q 679 309 669 307 m 431 307 q 488 297 445 305 q 492 288 492 293 q 483 208 486 288 q 498 48 490 103 l 498 47 q 489 34 498 34 q 446 47 446 38 q 422 94 439 67 q 410 114 421 94 l 409 114 l 409 113 q 420 46 417 58 l 420 43 q 413 36 420 36 l 410 36 q 354 45 354 36 q 351 55 354 47 q 353 60 351 57 q 355 142 353 69 l 356 142 q 355 145 355 144 q 353 194 353 182 l 353 235 q 353 290 353 255 q 361 304 353 304 q 379 306 366 304 q 393 292 393 306 q 422 195 407 243 l 423 195 q 424 211 424 206 l 424 237 q 420 282 424 248 q 431 307 420 307 m 274 304 l 286 304 q 325 277 302 304 q 344 216 337 256 q 345 201 345 208 l 345 192 q 330 127 345 165 q 293 74 320 110 q 252 43 271 43 l 245 43 q 198 99 214 43 q 194 138 197 106 q 218 256 194 184 q 244 288 225 269 q 264 299 251 292 q 274 304 267 304 m 892 303 q 953 297 910 300 q 959 290 959 295 l 959 290 q 930 271 959 281 q 907 260 930 270 l 907 258 q 935 239 935 250 l 935 238 q 917 224 935 233 q 871 193 873 193 l 868 193 q 840 202 857 199 q 836 210 836 208 q 857 238 836 215 l 855 239 l 852 239 q 825 252 825 242 l 825 254 q 860 288 831 271 q 885 302 875 302 l 892 303 m 526 300 l 528 300 q 573 292 541 295 q 579 281 579 287 q 578 252 578 267 l 578 229 q 579 192 578 212 q 578 147 578 166 l 580 146 l 583 146 q 606 192 595 146 q 608 216 608 201 l 608 240 q 603 285 608 261 q 613 294 603 294 l 623 294 q 649 285 649 294 l 649 271 q 650 257 649 263 q 648 235 648 243 q 649 208 648 220 q 648 155 648 184 l 648 146 q 635 103 648 113 q 610 69 624 86 q 579 50 600 50 q 532 75 560 50 q 510 170 510 104 q 507 207 507 181 l 507 227 q 519 296 510 296 q 526 300 522 296 m 254 216 q 245 165 248 191 q 256 134 245 144 q 268 173 268 156 l 268 178 q 254 216 264 216 m 110 210 l 110 210 q 113 146 112 192 l 114 146 q 125 180 125 172 q 110 210 125 195 m 658 55 q 677 45 658 47 q 695 19 683 42 q 723 2 709 2 q 751 -16 726 2 q 766 -20 758 -20 q 797 -13 773 -20 q 802 -12 798 -12 q 821 -24 808 -12 q 849 -35 836 -32 l 851 -34 l 854 -35 q 883 -29 875 -29 q 915 -31 894 -29 q 970 -1 963 -31 q 1002 16 975 16 q 1032 27 1028 16 q 1042 62 1036 62 q 1055 69 1042 66 l 1055 73 q 1028 121 1055 94 q 923 165 987 155 q 859 170 900 169 q 736 144 801 170 q 694 117 713 133 q 661 68 665 87 q 658 55 661 66 m 871 164 l 879 164 q 889 158 882 164 q 904 146 894 158 q 921 164 911 164 q 937 150 937 158 q 921 118 928 118 q 912 114 920 116 q 891 126 899 117 q 878 138 882 134 q 877 135 878 137 q 878 127 878 131 q 871 123 875 123 q 861 134 864 123 q 864 155 862 135 q 871 164 869 163 m 809 161 l 815 161 q 834 141 834 152 l 834 140 q 814 117 834 124 q 808 115 813 115 l 805 115 q 788 134 791 115 q 809 161 788 153 m 752 138 q 762 127 759 138 q 768 119 768 123 q 758 105 768 115 l 761 102 q 772 106 762 102 q 780 98 780 104 l 780 97 q 758 75 780 81 l 753 75 q 726 101 737 75 q 725 107 725 105 q 750 138 725 127 l 752 138 m 980 138 l 987 138 q 1008 126 1008 133 q 1014 115 1014 121 l 1014 113 q 1003 100 1012 100 q 983 117 992 100 l 980 119 l 976 119 q 985 96 976 116 q 990 77 990 79 q 968 56 990 66 l 966 56 q 939 73 950 56 q 937 79 937 77 q 949 96 940 96 q 956 90 952 96 l 963 86 q 969 91 966 87 q 956 113 956 105 l 956 118 q 980 138 956 130 m 861 115 q 922 90 909 115 q 924 81 924 85 l 924 79 q 882 50 924 58 q 862 48 875 48 l 858 48 q 838 50 838 48 q 837 50 837 50 q 798 62 819 50 q 790 82 790 71 q 812 109 790 100 q 861 115 837 115 m 813 87 q 817 83 815 83 q 863 90 838 90 q 897 85 879 90 q 901 87 900 87 l 901 90 q 857 99 897 97 q 813 87 813 96 m 696 94 l 699 94 q 740 70 705 94 q 745 58 745 64 l 745 56 q 728 33 734 33 q 683 65 701 41 l 682 71 q 696 94 682 79 z "}}}
